<svg xmlns="http://www.w3.org/2000/svg" width="600" height="1800" viewBox="0 0 600 1800">

  <defs>
    <linearGradient id="bbg" x1="0" y1="0" x2="0.2" y2="1">
      <stop offset="0%" stop-color="#FDF6E3"/><stop offset="50%" stop-color="#F7EDD6"/>
      <stop offset="100%" stop-color="#F1E4C9"/>
    </linearGradient>
  </defs>
  <rect width="600" height="1800" fill="url(#bbg)"/>
  <g><circle cx="127.0" cy="1417.9" r="1.07" fill="#E8C24A" opacity="0.35"/><circle cx="67.1" cy="623.5" r="1.16" fill="#2E6B3A" opacity="0.19"/><circle cx="240.6" cy="57.4" r="2.25" fill="#E8C24A" opacity="0.21"/><circle cx="576.0" cy="608.5" r="2.17" fill="#E8C24A" opacity="0.39"/><circle cx="37.4" cy="1186.3" r="1.46" fill="#E8C24A" opacity="0.18"/><circle cx="224.6" cy="360.1" r="1.86" fill="#D2413F" opacity="0.20"/><circle cx="346.4" cy="1505.8" r="1.63" fill="#D2413F" opacity="0.19"/><circle cx="359.3" cy="176.5" r="1.61" fill="#2E6B3A" opacity="0.20"/><circle cx="524.1" cy="616.0" r="1.12" fill="#D2413F" opacity="0.35"/><circle cx="130.0" cy="417.9" r="2.26" fill="#D2413F" opacity="0.38"/><circle cx="103.4" cy="1056.4" r="1.84" fill="#D2413F" opacity="0.38"/><circle cx="77.4" cy="749.4" r="1.22" fill="#2E6B3A" opacity="0.31"/><circle cx="162.2" cy="1227.8" r="1.02" fill="#E8C24A" opacity="0.29"/><circle cx="200.2" cy="807.1" r="1.64" fill="#2E6B3A" opacity="0.21"/><circle cx="446.8" cy="1677.0" r="2.09" fill="#E8C24A" opacity="0.35"/><circle cx="83.2" cy="1363.0" r="1.87" fill="#D2413F" opacity="0.28"/><circle cx="184.1" cy="876.3" r="2.23" fill="#2E6B3A" opacity="0.15"/><circle cx="153.4" cy="1483.2" r="1.39" fill="#D2413F" opacity="0.30"/><circle cx="273.3" cy="529.4" r="2.26" fill="#2E6B3A" opacity="0.31"/><circle cx="535.9" cy="1786.7" r="2.04" fill="#2E6B3A" opacity="0.13"/><circle cx="118.2" cy="333.7" r="0.92" fill="#E8C24A" opacity="0.22"/><circle cx="256.4" cy="584.9" r="1.28" fill="#D2413F" opacity="0.32"/><circle cx="446.2" cy="1051.7" r="2.05" fill="#E8C24A" opacity="0.36"/><circle cx="544.1" cy="932.8" r="1.98" fill="#E8C24A" opacity="0.20"/><circle cx="193.9" cy="431.9" r="2.32" fill="#D2413F" opacity="0.27"/><circle cx="148.4" cy="1268.7" r="1.94" fill="#E8C24A" opacity="0.25"/><circle cx="331.8" cy="97.1" r="2.34" fill="#E8C24A" opacity="0.25"/><circle cx="9.5" cy="340.2" r="1.90" fill="#D2413F" opacity="0.34"/><circle cx="150.1" cy="103.2" r="1.21" fill="#D2413F" opacity="0.27"/><circle cx="248.0" cy="630.0" r="2.15" fill="#E8C24A" opacity="0.18"/><circle cx="54.1" cy="926.0" r="2.15" fill="#2E6B3A" opacity="0.20"/><circle cx="457.8" cy="1561.0" r="2.35" fill="#2E6B3A" opacity="0.35"/><circle cx="566.7" cy="142.4" r="1.62" fill="#E8C24A" opacity="0.16"/><circle cx="112.3" cy="555.7" r="2.14" fill="#2E6B3A" opacity="0.25"/><circle cx="437.6" cy="191.9" r="1.76" fill="#D2413F" opacity="0.35"/><circle cx="220.3" cy="1337.3" r="1.44" fill="#D2413F" opacity="0.29"/><circle cx="22.9" cy="1346.4" r="2.30" fill="#D2413F" opacity="0.16"/><circle cx="533.2" cy="1696.5" r="1.06" fill="#D2413F" opacity="0.39"/><circle cx="244.8" cy="1352.4" r="1.56" fill="#2E6B3A" opacity="0.33"/><circle cx="93.5" cy="210.9" r="1.59" fill="#E8C24A" opacity="0.19"/><circle cx="33.3" cy="989.8" r="1.89" fill="#2E6B3A" opacity="0.18"/><circle cx="272.1" cy="1285.8" r="1.08" fill="#2E6B3A" opacity="0.17"/><circle cx="509.5" cy="686.8" r="2.16" fill="#E8C24A" opacity="0.24"/><circle cx="534.0" cy="569.3" r="1.14" fill="#D2413F" opacity="0.22"/><circle cx="11.4" cy="1530.6" r="1.81" fill="#E8C24A" opacity="0.18"/><circle cx="191.5" cy="156.9" r="1.03" fill="#D2413F" opacity="0.28"/><circle cx="23.6" cy="1448.7" r="1.24" fill="#D2413F" opacity="0.40"/><circle cx="241.9" cy="588.9" r="0.92" fill="#E8C24A" opacity="0.22"/><circle cx="223.4" cy="1683.7" r="1.10" fill="#2E6B3A" opacity="0.16"/><circle cx="323.9" cy="1377.0" r="2.21" fill="#D2413F" opacity="0.20"/><circle cx="6.7" cy="137.5" r="2.11" fill="#E8C24A" opacity="0.19"/><circle cx="312.0" cy="874.8" r="1.42" fill="#2E6B3A" opacity="0.27"/><circle cx="40.0" cy="706.2" r="1.41" fill="#D2413F" opacity="0.31"/><circle cx="570.3" cy="851.8" r="1.29" fill="#E8C24A" opacity="0.28"/><circle cx="473.1" cy="114.5" r="1.00" fill="#E8C24A" opacity="0.24"/><circle cx="486.4" cy="1541.9" r="1.57" fill="#2E6B3A" opacity="0.24"/><circle cx="401.2" cy="1396.3" r="1.08" fill="#E8C24A" opacity="0.29"/><circle cx="12.5" cy="129.7" r="2.16" fill="#E8C24A" opacity="0.19"/><circle cx="389.5" cy="198.0" r="1.44" fill="#2E6B3A" opacity="0.17"/><circle cx="200.3" cy="1356.5" r="1.98" fill="#E8C24A" opacity="0.26"/><circle cx="69.2" cy="835.0" r="1.04" fill="#2E6B3A" opacity="0.32"/><circle cx="55.5" cy="947.7" r="1.69" fill="#D2413F" opacity="0.28"/><circle cx="307.1" cy="1205.1" r="1.72" fill="#E8C24A" opacity="0.29"/><circle cx="566.6" cy="362.0" r="1.56" fill="#2E6B3A" opacity="0.14"/><circle cx="163.8" cy="821.4" r="1.82" fill="#E8C24A" opacity="0.34"/><circle cx="210.5" cy="1690.4" r="2.32" fill="#2E6B3A" opacity="0.15"/><circle cx="504.5" cy="194.7" r="2.17" fill="#2E6B3A" opacity="0.32"/><circle cx="259.5" cy="36.3" r="1.66" fill="#D2413F" opacity="0.25"/><circle cx="277.4" cy="1269.5" r="1.08" fill="#E8C24A" opacity="0.13"/><circle cx="466.4" cy="1646.1" r="0.86" fill="#D2413F" opacity="0.38"/><circle cx="78.9" cy="1492.4" r="1.08" fill="#D2413F" opacity="0.34"/><circle cx="481.6" cy="180.0" r="0.92" fill="#D2413F" opacity="0.26"/><circle cx="399.5" cy="1237.1" r="1.05" fill="#2E6B3A" opacity="0.26"/><circle cx="200.2" cy="1582.9" r="1.60" fill="#E8C24A" opacity="0.25"/><circle cx="408.5" cy="374.2" r="0.95" fill="#D2413F" opacity="0.28"/><circle cx="511.7" cy="148.2" r="2.00" fill="#E8C24A" opacity="0.34"/><circle cx="299.9" cy="906.0" r="1.85" fill="#2E6B3A" opacity="0.38"/><circle cx="26.0" cy="465.9" r="2.28" fill="#2E6B3A" opacity="0.27"/><circle cx="568.8" cy="966.9" r="2.26" fill="#2E6B3A" opacity="0.17"/><circle cx="476.7" cy="256.6" r="1.20" fill="#2E6B3A" opacity="0.37"/><circle cx="116.7" cy="17.6" r="1.76" fill="#2E6B3A" opacity="0.24"/><circle cx="86.7" cy="633.7" r="2.34" fill="#2E6B3A" opacity="0.24"/><circle cx="72.9" cy="784.9" r="1.95" fill="#2E6B3A" opacity="0.21"/><circle cx="84.6" cy="1308.4" r="0.89" fill="#E8C24A" opacity="0.16"/><circle cx="449.1" cy="1479.1" r="2.19" fill="#E8C24A" opacity="0.29"/><circle cx="54.5" cy="1780.0" r="2.14" fill="#D2413F" opacity="0.16"/><circle cx="216.9" cy="1104.9" r="1.98" fill="#D2413F" opacity="0.27"/><circle cx="101.1" cy="1185.2" r="1.63" fill="#2E6B3A" opacity="0.13"/><circle cx="578.6" cy="520.3" r="0.81" fill="#E8C24A" opacity="0.33"/><circle cx="122.4" cy="1111.5" r="1.18" fill="#E8C24A" opacity="0.30"/><circle cx="6.7" cy="559.9" r="1.42" fill="#E8C24A" opacity="0.18"/><circle cx="392.0" cy="162.6" r="0.90" fill="#2E6B3A" opacity="0.15"/><circle cx="543.1" cy="310.4" r="1.26" fill="#2E6B3A" opacity="0.38"/><circle cx="304.8" cy="435.8" r="2.25" fill="#D2413F" opacity="0.38"/><circle cx="389.8" cy="657.0" r="2.30" fill="#2E6B3A" opacity="0.36"/><circle cx="51.5" cy="1575.6" r="1.46" fill="#D2413F" opacity="0.34"/><circle cx="65.6" cy="400.0" r="1.39" fill="#D2413F" opacity="0.23"/><circle cx="283.9" cy="727.3" r="1.94" fill="#E8C24A" opacity="0.25"/><circle cx="574.5" cy="244.2" r="1.12" fill="#2E6B3A" opacity="0.32"/><circle cx="177.9" cy="2.9" r="1.14" fill="#2E6B3A" opacity="0.22"/><circle cx="577.7" cy="394.0" r="1.96" fill="#D2413F" opacity="0.21"/><circle cx="120.5" cy="1333.1" r="2.37" fill="#2E6B3A" opacity="0.31"/><circle cx="513.4" cy="842.0" r="0.86" fill="#E8C24A" opacity="0.18"/><circle cx="212.8" cy="63.8" r="1.01" fill="#2E6B3A" opacity="0.35"/><circle cx="210.6" cy="987.1" r="1.70" fill="#D2413F" opacity="0.30"/><circle cx="562.8" cy="1228.6" r="1.05" fill="#E8C24A" opacity="0.30"/><circle cx="487.3" cy="345.6" r="2.39" fill="#D2413F" opacity="0.29"/><circle cx="284.4" cy="1145.3" r="1.39" fill="#2E6B3A" opacity="0.19"/><circle cx="472.2" cy="1400.3" r="0.96" fill="#D2413F" opacity="0.27"/><circle cx="45.7" cy="1267.8" r="1.49" fill="#D2413F" opacity="0.29"/></g>
</svg>
