<svg xmlns="http://www.w3.org/2000/svg" width="600" height="1800" viewBox="0 0 600 1800">

  <defs>
    <linearGradient id="bbg" x1="0" y1="0" x2="0.25" y2="1">
      <stop offset="0%" stop-color="#0F2A4A"/><stop offset="45%" stop-color="#0A1E38"/>
      <stop offset="100%" stop-color="#12304F"/>
    </linearGradient>
    <linearGradient id="bgold" x1="0" y1="0" x2="1" y2="1"><stop offset="0%" stop-color="#F6E4A8"/><stop offset="45%" stop-color="#D8B44A"/><stop offset="100%" stop-color="#9A7A1E"/></linearGradient>
  </defs>
  <rect width="600" height="1800" fill="url(#bbg)"/>
  <g><circle cx="512.8" cy="495.8" r="1.07" fill="#FFFFFF" opacity="0.71"/><circle cx="373.3" cy="378.4" r="1.33" fill="#FFFFFF" opacity="0.76"/><circle cx="487.9" cy="1742.4" r="3.24" fill="#FFFFFF" opacity="0.77"/><circle cx="441.1" cy="1594.1" r="2.91" fill="#FFFFFF" opacity="0.54"/><circle cx="398.1" cy="1301.5" r="1.33" fill="#FFFFFF" opacity="0.33"/><circle cx="588.6" cy="342.3" r="1.51" fill="#FFFFFF" opacity="0.57"/><circle cx="51.9" cy="936.0" r="2.39" fill="#FFFFFF" opacity="0.70"/><circle cx="192.5" cy="63.3" r="1.03" fill="#FFFFFF" opacity="0.59"/><circle cx="53.6" cy="803.9" r="2.50" fill="#FFFFFF" opacity="0.46"/><circle cx="270.9" cy="594.2" r="1.53" fill="#FFFFFF" opacity="0.67"/><circle cx="547.9" cy="1167.7" r="1.43" fill="#FFFFFF" opacity="0.60"/><circle cx="309.9" cy="1512.9" r="3.22" fill="#FFFFFF" opacity="0.56"/><circle cx="227.5" cy="1003.1" r="2.82" fill="#FFFFFF" opacity="0.75"/><circle cx="561.2" cy="620.1" r="1.71" fill="#FFFFFF" opacity="0.64"/><circle cx="150.8" cy="612.7" r="2.93" fill="#FFFFFF" opacity="0.53"/><circle cx="229.8" cy="670.7" r="1.19" fill="#FFFFFF" opacity="0.31"/><circle cx="531.1" cy="718.1" r="2.67" fill="#FFFFFF" opacity="0.67"/><circle cx="17.4" cy="737.5" r="3.36" fill="#FFFFFF" opacity="0.32"/><circle cx="74.6" cy="1124.2" r="2.87" fill="#FFFFFF" opacity="0.80"/><circle cx="4.1" cy="331.4" r="2.71" fill="#FFFFFF" opacity="0.29"/><circle cx="558.7" cy="1204.8" r="3.00" fill="#FFFFFF" opacity="0.77"/><circle cx="527.0" cy="324.6" r="3.11" fill="#FFFFFF" opacity="0.61"/><circle cx="321.2" cy="622.3" r="1.62" fill="#FFFFFF" opacity="0.48"/><circle cx="426.7" cy="1290.2" r="1.69" fill="#FFFFFF" opacity="0.49"/><circle cx="384.6" cy="954.1" r="2.86" fill="#FFFFFF" opacity="0.59"/><circle cx="556.4" cy="1099.5" r="2.10" fill="#FFFFFF" opacity="0.57"/><circle cx="7.1" cy="834.9" r="1.31" fill="#FFFFFF" opacity="0.57"/><circle cx="337.2" cy="1778.6" r="2.51" fill="#FFFFFF" opacity="0.69"/><circle cx="382.0" cy="1544.5" r="2.17" fill="#FFFFFF" opacity="0.57"/><circle cx="258.1" cy="533.7" r="1.36" fill="#FFFFFF" opacity="0.32"/><circle cx="14.5" cy="636.9" r="1.40" fill="#FFFFFF" opacity="0.76"/><circle cx="268.4" cy="1438.6" r="3.00" fill="#FFFFFF" opacity="0.66"/><circle cx="341.7" cy="575.5" r="2.18" fill="#FFFFFF" opacity="0.76"/><circle cx="306.1" cy="1070.7" r="3.26" fill="#FFFFFF" opacity="0.51"/><circle cx="429.6" cy="929.2" r="1.99" fill="#FFFFFF" opacity="0.46"/><circle cx="136.8" cy="359.9" r="1.03" fill="#FFFFFF" opacity="0.72"/><circle cx="90.2" cy="57.5" r="1.55" fill="#FFFFFF" opacity="0.61"/><circle cx="386.3" cy="1717.6" r="2.54" fill="#FFFFFF" opacity="0.72"/><circle cx="24.2" cy="655.9" r="1.82" fill="#FFFFFF" opacity="0.61"/><circle cx="1.1" cy="1001.5" r="2.72" fill="#FFFFFF" opacity="0.57"/><circle cx="318.2" cy="93.4" r="1.46" fill="#FFFFFF" opacity="0.65"/><circle cx="128.8" cy="281.9" r="3.32" fill="#FFFFFF" opacity="0.36"/><circle cx="588.3" cy="965.0" r="3.35" fill="#FFFFFF" opacity="0.58"/><circle cx="412.6" cy="1035.7" r="1.31" fill="#FFFFFF" opacity="0.78"/><circle cx="1.9" cy="66.5" r="2.27" fill="#FFFFFF" opacity="0.33"/><circle cx="455.3" cy="590.4" r="3.26" fill="#FFFFFF" opacity="0.35"/><circle cx="318.8" cy="539.0" r="2.37" fill="#FFFFFF" opacity="0.41"/><circle cx="315.1" cy="610.5" r="1.53" fill="#FFFFFF" opacity="0.75"/><circle cx="494.5" cy="765.6" r="2.39" fill="#FFFFFF" opacity="0.61"/><circle cx="15.7" cy="1781.9" r="3.14" fill="#FFFFFF" opacity="0.49"/><circle cx="420.4" cy="1672.6" r="3.15" fill="#FFFFFF" opacity="0.73"/><circle cx="133.7" cy="306.6" r="2.51" fill="#FFFFFF" opacity="0.42"/><circle cx="377.1" cy="924.7" r="1.59" fill="#FFFFFF" opacity="0.72"/><circle cx="33.8" cy="127.8" r="2.67" fill="#FFFFFF" opacity="0.78"/><circle cx="541.3" cy="1558.0" r="2.30" fill="#FFFFFF" opacity="0.71"/><circle cx="220.2" cy="1200.3" r="1.61" fill="#FFFFFF" opacity="0.25"/><circle cx="186.8" cy="554.5" r="1.74" fill="#FFFFFF" opacity="0.62"/><circle cx="519.8" cy="1070.1" r="1.99" fill="#FFFFFF" opacity="0.79"/><circle cx="157.5" cy="329.4" r="1.33" fill="#FFFFFF" opacity="0.78"/><circle cx="290.5" cy="961.5" r="1.24" fill="#FFFFFF" opacity="0.68"/><circle cx="174.3" cy="1696.0" r="3.17" fill="#FFFFFF" opacity="0.30"/><circle cx="342.1" cy="843.3" r="1.50" fill="#FFFFFF" opacity="0.31"/><circle cx="58.9" cy="1450.8" r="2.08" fill="#FFFFFF" opacity="0.64"/><circle cx="130.1" cy="1523.7" r="3.15" fill="#FFFFFF" opacity="0.63"/><circle cx="420.4" cy="1063.3" r="3.09" fill="#FFFFFF" opacity="0.31"/><circle cx="41.0" cy="304.8" r="1.52" fill="#FFFFFF" opacity="0.72"/><circle cx="81.5" cy="1280.0" r="2.26" fill="#FFFFFF" opacity="0.45"/><circle cx="561.1" cy="1785.5" r="2.98" fill="#FFFFFF" opacity="0.63"/><circle cx="450.6" cy="211.3" r="2.68" fill="#FFFFFF" opacity="0.49"/><circle cx="583.2" cy="1357.5" r="1.72" fill="#FFFFFF" opacity="0.50"/><circle cx="235.8" cy="1306.3" r="3.28" fill="#FFFFFF" opacity="0.30"/><circle cx="453.5" cy="554.6" r="3.34" fill="#FFFFFF" opacity="0.37"/><circle cx="537.3" cy="24.3" r="2.13" fill="#FFFFFF" opacity="0.39"/><circle cx="335.3" cy="173.4" r="2.15" fill="#FFFFFF" opacity="0.65"/><circle cx="404.7" cy="983.3" r="1.86" fill="#FFFFFF" opacity="0.58"/><circle cx="289.1" cy="1157.1" r="2.30" fill="#FFFFFF" opacity="0.68"/><circle cx="333.3" cy="689.4" r="2.33" fill="#FFFFFF" opacity="0.59"/><circle cx="371.4" cy="695.2" r="2.28" fill="#FFFFFF" opacity="0.71"/><circle cx="138.4" cy="1455.6" r="1.89" fill="#FFFFFF" opacity="0.35"/><circle cx="321.0" cy="360.0" r="2.25" fill="#FFFFFF" opacity="0.70"/><circle cx="16.6" cy="912.5" r="1.48" fill="#FFFFFF" opacity="0.65"/><circle cx="494.0" cy="598.7" r="1.60" fill="#FFFFFF" opacity="0.47"/><circle cx="430.5" cy="361.7" r="1.78" fill="#FFFFFF" opacity="0.59"/><circle cx="373.9" cy="1648.9" r="2.76" fill="#FFFFFF" opacity="0.55"/><circle cx="512.9" cy="558.8" r="2.75" fill="#FFFFFF" opacity="0.38"/><circle cx="111.4" cy="1072.1" r="1.49" fill="#FFFFFF" opacity="0.43"/><circle cx="258.6" cy="58.8" r="1.20" fill="#FFFFFF" opacity="0.35"/><circle cx="49.0" cy="1008.3" r="2.78" fill="#FFFFFF" opacity="0.63"/><circle cx="173.6" cy="297.5" r="3.11" fill="#FFFFFF" opacity="0.64"/><circle cx="181.6" cy="575.7" r="1.93" fill="#FFFFFF" opacity="0.57"/><circle cx="8.5" cy="1151.5" r="1.60" fill="#FFFFFF" opacity="0.49"/><circle cx="306.1" cy="379.5" r="1.25" fill="#FFFFFF" opacity="0.42"/><circle cx="158.9" cy="1749.8" r="2.03" fill="#FFFFFF" opacity="0.31"/><circle cx="189.6" cy="480.4" r="1.91" fill="#FFFFFF" opacity="0.76"/><circle cx="457.6" cy="1181.9" r="1.72" fill="#FFFFFF" opacity="0.52"/><circle cx="185.0" cy="782.9" r="2.13" fill="#FFFFFF" opacity="0.50"/><circle cx="413.9" cy="723.2" r="2.19" fill="#FFFFFF" opacity="0.31"/><circle cx="529.7" cy="311.8" r="2.63" fill="#FFFFFF" opacity="0.32"/><circle cx="366.1" cy="977.6" r="1.87" fill="#FFFFFF" opacity="0.26"/><circle cx="476.0" cy="1478.9" r="1.19" fill="#FFFFFF" opacity="0.70"/><circle cx="152.7" cy="167.5" r="2.82" fill="#FFFFFF" opacity="0.53"/><circle cx="13.6" cy="1707.6" r="2.07" fill="#FFFFFF" opacity="0.30"/><circle cx="181.8" cy="468.6" r="1.12" fill="#FFFFFF" opacity="0.29"/><circle cx="227.0" cy="1728.3" r="1.77" fill="#FFFFFF" opacity="0.57"/><circle cx="1.1" cy="445.7" r="1.52" fill="#FFFFFF" opacity="0.47"/><circle cx="325.0" cy="648.7" r="3.34" fill="#FFFFFF" opacity="0.63"/><circle cx="594.0" cy="896.4" r="3.38" fill="#FFFFFF" opacity="0.39"/><circle cx="575.2" cy="1000.3" r="1.17" fill="#FFFFFF" opacity="0.36"/><circle cx="177.3" cy="11.7" r="1.87" fill="#FFFFFF" opacity="0.44"/><circle cx="229.7" cy="397.6" r="2.17" fill="#FFFFFF" opacity="0.61"/><circle cx="598.5" cy="69.0" r="2.27" fill="#FFFFFF" opacity="0.41"/><circle cx="109.2" cy="408.0" r="1.53" fill="#FFFFFF" opacity="0.42"/><circle cx="464.1" cy="821.6" r="1.83" fill="#FFFFFF" opacity="0.52"/><circle cx="431.9" cy="524.1" r="2.19" fill="#FFFFFF" opacity="0.56"/><circle cx="337.7" cy="888.4" r="3.18" fill="#FFFFFF" opacity="0.38"/><circle cx="545.2" cy="687.4" r="2.25" fill="#FFFFFF" opacity="0.65"/><circle cx="446.6" cy="1370.8" r="1.43" fill="#FFFFFF" opacity="0.35"/><circle cx="26.7" cy="279.0" r="1.30" fill="#FFFFFF" opacity="0.44"/><circle cx="149.7" cy="390.8" r="1.43" fill="#FFFFFF" opacity="0.61"/><circle cx="57.2" cy="1284.0" r="2.43" fill="#FFFFFF" opacity="0.39"/><circle cx="271.1" cy="1508.6" r="3.04" fill="#FFFFFF" opacity="0.70"/><circle cx="397.3" cy="121.9" r="1.13" fill="#FFFFFF" opacity="0.78"/><circle cx="467.7" cy="1465.4" r="1.70" fill="#FFFFFF" opacity="0.49"/><circle cx="541.4" cy="183.9" r="1.56" fill="#FFFFFF" opacity="0.56"/><circle cx="64.2" cy="858.6" r="2.25" fill="#FFFFFF" opacity="0.69"/><circle cx="68.6" cy="911.5" r="1.04" fill="#FFFFFF" opacity="0.51"/><circle cx="498.0" cy="151.7" r="1.25" fill="#FFFFFF" opacity="0.47"/><circle cx="390.7" cy="1060.8" r="1.26" fill="#FFFFFF" opacity="0.66"/><circle cx="304.4" cy="273.4" r="2.75" fill="#FFFFFF" opacity="0.43"/><circle cx="549.9" cy="617.6" r="2.36" fill="#FFFFFF" opacity="0.60"/><circle cx="428.6" cy="1370.0" r="3.40" fill="#FFFFFF" opacity="0.31"/><circle cx="404.0" cy="900.1" r="1.84" fill="#FFFFFF" opacity="0.34"/><circle cx="230.8" cy="1299.0" r="1.85" fill="#FFFFFF" opacity="0.49"/><circle cx="56.9" cy="1688.8" r="3.19" fill="#FFFFFF" opacity="0.46"/><circle cx="259.0" cy="771.8" r="2.24" fill="#FFFFFF" opacity="0.56"/><circle cx="71.2" cy="900.2" r="3.21" fill="#FFFFFF" opacity="0.44"/><circle cx="170.4" cy="1363.7" r="3.23" fill="#FFFFFF" opacity="0.45"/><circle cx="231.6" cy="1220.2" r="1.34" fill="#FFFFFF" opacity="0.58"/><circle cx="133.5" cy="364.5" r="2.57" fill="#FFFFFF" opacity="0.26"/><circle cx="550.1" cy="456.0" r="2.72" fill="#FFFFFF" opacity="0.60"/><circle cx="558.8" cy="376.2" r="2.28" fill="#FFFFFF" opacity="0.47"/><circle cx="77.3" cy="886.2" r="3.22" fill="#FFFFFF" opacity="0.28"/><circle cx="464.9" cy="773.0" r="1.93" fill="#FFFFFF" opacity="0.58"/><circle cx="33.2" cy="1077.0" r="2.15" fill="#FFFFFF" opacity="0.39"/><circle cx="112.7" cy="720.7" r="2.27" fill="#FFFFFF" opacity="0.66"/><circle cx="407.2" cy="996.5" r="2.46" fill="#FFFFFF" opacity="0.57"/><circle cx="141.0" cy="1168.0" r="1.24" fill="#FFFFFF" opacity="0.30"/><circle cx="485.6" cy="330.9" r="2.37" fill="#FFFFFF" opacity="0.64"/><circle cx="253.9" cy="1461.8" r="2.48" fill="#FFFFFF" opacity="0.65"/><circle cx="34.4" cy="421.6" r="1.64" fill="#FFFFFF" opacity="0.52"/><circle cx="103.8" cy="1660.2" r="3.14" fill="#FFFFFF" opacity="0.36"/><circle cx="333.8" cy="1544.4" r="1.25" fill="#FFFFFF" opacity="0.65"/><circle cx="348.4" cy="1319.2" r="2.54" fill="#FFFFFF" opacity="0.73"/><circle cx="152.2" cy="1147.6" r="2.85" fill="#FFFFFF" opacity="0.26"/><circle cx="148.8" cy="749.5" r="2.57" fill="#FFFFFF" opacity="0.57"/><circle cx="574.8" cy="1694.5" r="2.98" fill="#FFFFFF" opacity="0.50"/><circle cx="418.3" cy="1322.3" r="2.48" fill="#FFFFFF" opacity="0.73"/><circle cx="456.9" cy="401.6" r="1.08" fill="#FFFFFF" opacity="0.60"/><circle cx="549.8" cy="944.6" r="1.11" fill="#FFFFFF" opacity="0.34"/><circle cx="319.7" cy="56.0" r="1.47" fill="#FFFFFF" opacity="0.35"/><circle cx="115.0" cy="806.8" r="3.23" fill="#FFFFFF" opacity="0.66"/><circle cx="577.6" cy="1063.0" r="2.94" fill="#FFFFFF" opacity="0.49"/><circle cx="103.8" cy="537.7" r="3.16" fill="#FFFFFF" opacity="0.74"/><circle cx="301.9" cy="1399.7" r="1.29" fill="#FFFFFF" opacity="0.61"/><circle cx="87.5" cy="1795.4" r="2.88" fill="#FFFFFF" opacity="0.50"/><circle cx="546.8" cy="925.1" r="1.34" fill="#FFFFFF" opacity="0.56"/><circle cx="331.0" cy="625.3" r="3.31" fill="#FFFFFF" opacity="0.62"/><circle cx="123.8" cy="887.6" r="1.60" fill="#FFFFFF" opacity="0.29"/><circle cx="258.2" cy="1641.5" r="1.66" fill="#FFFFFF" opacity="0.44"/><circle cx="365.3" cy="1321.8" r="1.41" fill="#FFFFFF" opacity="0.38"/><circle cx="590.1" cy="788.6" r="2.79" fill="#FFFFFF" opacity="0.66"/><circle cx="337.0" cy="313.7" r="1.21" fill="#FFFFFF" opacity="0.40"/><circle cx="571.4" cy="1625.0" r="3.17" fill="#FFFFFF" opacity="0.73"/><circle cx="434.9" cy="172.2" r="2.59" fill="#FFFFFF" opacity="0.52"/><circle cx="249.4" cy="1097.9" r="1.59" fill="#FFFFFF" opacity="0.79"/><circle cx="542.8" cy="1624.6" r="2.67" fill="#FFFFFF" opacity="0.26"/><circle cx="166.1" cy="794.8" r="3.01" fill="#FFFFFF" opacity="0.59"/><circle cx="373.1" cy="207.0" r="3.18" fill="#FFFFFF" opacity="0.49"/><circle cx="65.5" cy="1766.0" r="1.48" fill="#FFFFFF" opacity="0.67"/><circle cx="405.3" cy="212.8" r="2.31" fill="#FFFFFF" opacity="0.77"/><circle cx="537.6" cy="1386.6" r="3.21" fill="#FFFFFF" opacity="0.42"/><circle cx="254.2" cy="24.3" r="3.12" fill="#FFFFFF" opacity="0.70"/><circle cx="526.2" cy="958.3" r="3.33" fill="#FFFFFF" opacity="0.44"/><circle cx="388.0" cy="837.1" r="1.56" fill="#FFFFFF" opacity="0.45"/><circle cx="54.1" cy="573.5" r="2.04" fill="#FFFFFF" opacity="0.75"/><circle cx="35.4" cy="1140.7" r="2.06" fill="#FFFFFF" opacity="0.30"/><circle cx="310.3" cy="311.6" r="2.90" fill="#FFFFFF" opacity="0.36"/><circle cx="408.0" cy="1602.2" r="1.26" fill="#FFFFFF" opacity="0.56"/><circle cx="541.9" cy="1437.3" r="1.04" fill="#FFFFFF" opacity="0.76"/><circle cx="223.2" cy="533.9" r="1.65" fill="#FFFFFF" opacity="0.67"/><circle cx="167.3" cy="1338.0" r="1.05" fill="#FFFFFF" opacity="0.40"/><circle cx="214.9" cy="1156.7" r="1.50" fill="#FFFFFF" opacity="0.25"/><circle cx="59.0" cy="1782.3" r="1.04" fill="#FFFFFF" opacity="0.47"/><circle cx="56.3" cy="624.2" r="1.35" fill="#FFFFFF" opacity="0.78"/><circle cx="92.1" cy="1292.5" r="3.13" fill="#FFFFFF" opacity="0.57"/><circle cx="365.3" cy="1527.9" r="3.23" fill="#FFFFFF" opacity="0.29"/><circle cx="271.0" cy="544.1" r="1.69" fill="#FFFFFF" opacity="0.63"/><circle cx="299.6" cy="71.9" r="2.80" fill="#FFFFFF" opacity="0.71"/><circle cx="590.0" cy="1619.6" r="2.92" fill="#FFFFFF" opacity="0.71"/><circle cx="154.0" cy="1625.0" r="1.96" fill="#FFFFFF" opacity="0.37"/></g>
  <g><path transform="translate(166.2,232.6)" d="M0,-8.570806450210512 C1.5,-1.9 1.9,-1.5 8.570806450210512,0 C1.9,1.5 1.5,1.9 0,8.570806450210512 C-1.5,1.9 -1.9,1.5 -8.570806450210512,0 C-1.9,-1.5 -1.5,-1.9 0,-8.570806450210512Z" fill="#F6E4A8" opacity="0.66"/><path transform="translate(591.1,52.9)" d="M0,-8.680717601906508 C1.6,-1.9 1.9,-1.6 8.680717601906508,0 C1.9,1.6 1.6,1.9 0,8.680717601906508 C-1.6,1.9 -1.9,1.6 -8.680717601906508,0 C-1.9,-1.6 -1.6,-1.9 0,-8.680717601906508Z" fill="#F6E4A8" opacity="0.47"/><path transform="translate(571.4,581.0)" d="M0,-4.526546982116997 C0.8,-1.0 1.0,-0.8 4.526546982116997,0 C1.0,0.8 0.8,1.0 0,4.526546982116997 C-0.8,1.0 -1.0,0.8 -4.526546982116997,0 C-1.0,-0.8 -0.8,-1.0 0,-4.526546982116997Z" fill="#F6E4A8" opacity="0.65"/><path transform="translate(353.1,558.0)" d="M0,-3.7012552418746054 C0.7,-0.8 0.8,-0.7 3.7012552418746054,0 C0.8,0.7 0.7,0.8 0,3.7012552418746054 C-0.7,0.8 -0.8,0.7 -3.7012552418746054,0 C-0.8,-0.7 -0.7,-0.8 0,-3.7012552418746054Z" fill="#F6E4A8" opacity="0.32"/><path transform="translate(519.2,677.6)" d="M0,-7.796014258638024 C1.4,-1.7 1.7,-1.4 7.796014258638024,0 C1.7,1.4 1.4,1.7 0,7.796014258638024 C-1.4,1.7 -1.7,1.4 -7.796014258638024,0 C-1.7,-1.4 -1.4,-1.7 0,-7.796014258638024Z" fill="#F6E4A8" opacity="0.67"/><path transform="translate(371.2,78.9)" d="M0,-7.930649574380368 C1.4,-1.7 1.7,-1.4 7.930649574380368,0 C1.7,1.4 1.4,1.7 0,7.930649574380368 C-1.4,1.7 -1.7,1.4 -7.930649574380368,0 C-1.7,-1.4 -1.4,-1.7 0,-7.930649574380368Z" fill="#F6E4A8" opacity="0.48"/><path transform="translate(580.4,635.4)" d="M0,-8.184664947912097 C1.5,-1.8 1.8,-1.5 8.184664947912097,0 C1.8,1.5 1.5,1.8 0,8.184664947912097 C-1.5,1.8 -1.8,1.5 -8.184664947912097,0 C-1.8,-1.5 -1.5,-1.8 0,-8.184664947912097Z" fill="#F6E4A8" opacity="0.64"/><path transform="translate(551.8,61.9)" d="M0,-6.135728409513831 C1.1,-1.3 1.3,-1.1 6.135728409513831,0 C1.3,1.1 1.1,1.3 0,6.135728409513831 C-1.1,1.3 -1.3,1.1 -6.135728409513831,0 C-1.3,-1.1 -1.1,-1.3 0,-6.135728409513831Z" fill="#F6E4A8" opacity="0.70"/><path transform="translate(336.6,743.9)" d="M0,-4.445496821310371 C0.8,-1.0 1.0,-0.8 4.445496821310371,0 C1.0,0.8 0.8,1.0 0,4.445496821310371 C-0.8,1.0 -1.0,0.8 -4.445496821310371,0 C-1.0,-0.8 -0.8,-1.0 0,-4.445496821310371Z" fill="#F6E4A8" opacity="0.54"/><path transform="translate(66.3,21.4)" d="M0,-5.183453090954572 C0.9,-1.1 1.1,-0.9 5.183453090954572,0 C1.1,0.9 0.9,1.1 0,5.183453090954572 C-0.9,1.1 -1.1,0.9 -5.183453090954572,0 C-1.1,-0.9 -0.9,-1.1 0,-5.183453090954572Z" fill="#F6E4A8" opacity="0.41"/><path transform="translate(586.9,71.0)" d="M0,-5.919161648489535 C1.1,-1.3 1.3,-1.1 5.919161648489535,0 C1.3,1.1 1.1,1.3 0,5.919161648489535 C-1.1,1.3 -1.3,1.1 -5.919161648489535,0 C-1.3,-1.1 -1.1,-1.3 0,-5.919161648489535Z" fill="#F6E4A8" opacity="0.70"/><path transform="translate(58.5,348.6)" d="M0,-4.409284241963178 C0.8,-1.0 1.0,-0.8 4.409284241963178,0 C1.0,0.8 0.8,1.0 0,4.409284241963178 C-0.8,1.0 -1.0,0.8 -4.409284241963178,0 C-1.0,-0.8 -0.8,-1.0 0,-4.409284241963178Z" fill="#F6E4A8" opacity="0.37"/><path transform="translate(70.7,615.0)" d="M0,-3.044571327511221 C0.5,-0.7 0.7,-0.5 3.044571327511221,0 C0.7,0.5 0.5,0.7 0,3.044571327511221 C-0.5,0.7 -0.7,0.5 -3.044571327511221,0 C-0.7,-0.5 -0.5,-0.7 0,-3.044571327511221Z" fill="#F6E4A8" opacity="0.55"/><path transform="translate(367.4,406.6)" d="M0,-4.592678475659341 C0.8,-1.0 1.0,-0.8 4.592678475659341,0 C1.0,0.8 0.8,1.0 0,4.592678475659341 C-0.8,1.0 -1.0,0.8 -4.592678475659341,0 C-1.0,-0.8 -0.8,-1.0 0,-4.592678475659341Z" fill="#F6E4A8" opacity="0.62"/><path transform="translate(375.9,746.2)" d="M0,-3.804612901993096 C0.7,-0.8 0.8,-0.7 3.804612901993096,0 C0.8,0.7 0.7,0.8 0,3.804612901993096 C-0.7,0.8 -0.8,0.7 -3.804612901993096,0 C-0.8,-0.7 -0.7,-0.8 0,-3.804612901993096Z" fill="#F6E4A8" opacity="0.43"/><path transform="translate(316.9,59.7)" d="M0,-8.163308473303914 C1.5,-1.8 1.8,-1.5 8.163308473303914,0 C1.8,1.5 1.5,1.8 0,8.163308473303914 C-1.5,1.8 -1.8,1.5 -8.163308473303914,0 C-1.8,-1.5 -1.5,-1.8 0,-8.163308473303914Z" fill="#F6E4A8" opacity="0.54"/><path transform="translate(501.6,320.1)" d="M0,-7.908210582565516 C1.4,-1.7 1.7,-1.4 7.908210582565516,0 C1.7,1.4 1.4,1.7 0,7.908210582565516 C-1.4,1.7 -1.7,1.4 -7.908210582565516,0 C-1.7,-1.4 -1.4,-1.7 0,-7.908210582565516Z" fill="#F6E4A8" opacity="0.44"/><path transform="translate(135.9,865.0)" d="M0,-3.6666206284426153 C0.7,-0.8 0.8,-0.7 3.6666206284426153,0 C0.8,0.7 0.7,0.8 0,3.6666206284426153 C-0.7,0.8 -0.8,0.7 -3.6666206284426153,0 C-0.8,-0.7 -0.7,-0.8 0,-3.6666206284426153Z" fill="#F6E4A8" opacity="0.63"/><path transform="translate(242.5,571.7)" d="M0,-6.781528389081359 C1.2,-1.5 1.5,-1.2 6.781528389081359,0 C1.5,1.2 1.2,1.5 0,6.781528389081359 C-1.2,1.5 -1.5,1.2 -6.781528389081359,0 C-1.5,-1.2 -1.2,-1.5 0,-6.781528389081359Z" fill="#F6E4A8" opacity="0.63"/><path transform="translate(350.1,140.9)" d="M0,-8.111005252227187 C1.5,-1.8 1.8,-1.5 8.111005252227187,0 C1.8,1.5 1.5,1.8 0,8.111005252227187 C-1.5,1.8 -1.8,1.5 -8.111005252227187,0 C-1.8,-1.5 -1.5,-1.8 0,-8.111005252227187Z" fill="#F6E4A8" opacity="0.55"/><path transform="translate(383.1,92.2)" d="M0,-7.22642622096464 C1.3,-1.6 1.6,-1.3 7.22642622096464,0 C1.6,1.3 1.3,1.6 0,7.22642622096464 C-1.3,1.6 -1.6,1.3 -7.22642622096464,0 C-1.6,-1.3 -1.3,-1.6 0,-7.22642622096464Z" fill="#F6E4A8" opacity="0.42"/><path transform="translate(329.8,354.1)" d="M0,-7.8868414694443345 C1.4,-1.7 1.7,-1.4 7.8868414694443345,0 C1.7,1.4 1.4,1.7 0,7.8868414694443345 C-1.4,1.7 -1.7,1.4 -7.8868414694443345,0 C-1.7,-1.4 -1.4,-1.7 0,-7.8868414694443345Z" fill="#F6E4A8" opacity="0.68"/><path transform="translate(162.2,756.8)" d="M0,-6.620652620214969 C1.2,-1.5 1.5,-1.2 6.620652620214969,0 C1.5,1.2 1.2,1.5 0,6.620652620214969 C-1.2,1.5 -1.5,1.2 -6.620652620214969,0 C-1.5,-1.2 -1.2,-1.5 0,-6.620652620214969Z" fill="#F6E4A8" opacity="0.53"/><path transform="translate(17.3,527.3)" d="M0,-6.679511559661478 C1.2,-1.5 1.5,-1.2 6.679511559661478,0 C1.5,1.2 1.2,1.5 0,6.679511559661478 C-1.2,1.5 -1.5,1.2 -6.679511559661478,0 C-1.5,-1.2 -1.2,-1.5 0,-6.679511559661478Z" fill="#F6E4A8" opacity="0.70"/><path transform="translate(175.4,188.1)" d="M0,-7.964010884519666 C1.4,-1.8 1.8,-1.4 7.964010884519666,0 C1.8,1.4 1.4,1.8 0,7.964010884519666 C-1.4,1.8 -1.8,1.4 -7.964010884519666,0 C-1.8,-1.4 -1.4,-1.8 0,-7.964010884519666Z" fill="#F6E4A8" opacity="0.44"/><path transform="translate(91.5,430.6)" d="M0,-3.534348358400166 C0.6,-0.8 0.8,-0.6 3.534348358400166,0 C0.8,0.6 0.6,0.8 0,3.534348358400166 C-0.6,0.8 -0.8,0.6 -3.534348358400166,0 C-0.8,-0.6 -0.6,-0.8 0,-3.534348358400166Z" fill="#F6E4A8" opacity="0.60"/></g>
  <g fill="none" stroke="url(#bgold)" stroke-width="1" opacity="0.35">
    <rect x="18" y="18" width="564" height="1764" rx="6"/>
  </g>
</svg>
