<svg xmlns="http://www.w3.org/2000/svg" width="600" height="1800">
  <defs>
    <linearGradient id="bgGrad" x1="0%" y1="0%" x2="100%" y2="100%">
      <stop offset="0%" style="stop-color:#1a0a1a"/>
      <stop offset="50%" style="stop-color:#2d1b2d"/>
      <stop offset="100%" style="stop-color:#1a0a1a"/>
    </linearGradient>
    <radialGradient id="glowGrad">
      <stop offset="0%" style="stop-color:#d4af37;stop-opacity:0.15"/>
      <stop offset="100%" style="stop-color:#d4af37;stop-opacity:0"/>
    </radialGradient>
  </defs>

  <rect width="600" height="1800" fill="url(#bgGrad)"/>

  <ellipse cx="300" cy="900" rx="300" ry="500" fill="url(#glowGrad)"/>

  <g fill="#d4af37" opacity="0.8">
    <polygon points="100,50 103,60 113,60 105,66 108,76 100,70 92,76 95,66 87,60 97,60"/>
    <polygon points="500,200 503,210 513,210 505,216 508,226 500,220 492,226 495,216 487,210 497,210"/>
    <polygon points="50,400 53,410 63,410 55,416 58,426 50,420 42,426 45,416 37,410 47,410"/>
    <polygon points="550,600 553,610 563,610 555,616 558,626 550,620 542,626 545,616 537,610 547,610"/>
    <polygon points="100,900 103,910 113,910 105,916 108,926 100,920 92,926 95,916 87,910 97,910"/>
    <polygon points="500,1200 503,1210 513,1210 505,1216 508,1226 500,1220 492,1226 495,1216 487,1210 497,1210"/>
    <polygon points="150,1500 153,1510 163,1510 155,1516 158,1526 150,1520 142,1526 145,1516 137,1510 147,1510"/>
    <polygon points="450,1700 453,1710 463,1710 455,1716 458,1726 450,1720 442,1726 445,1716 437,1710 447,1710"/>
  </g>

  <g fill="#fff0f5" opacity="0.6">
    <circle cx="200" cy="80" r="1.5"/>
    <circle cx="400" cy="150" r="1"/>
    <circle cx="80" cy="250" r="2"/>
    <circle cx="520" cy="350" r="1.5"/>
    <circle cx="300" cy="500" r="1"/>
    <circle cx="550" cy="800" r="2"/>
    <circle cx="50" cy="1100" r="1.5"/>
    <circle cx="450" cy="1300" r="1"/>
    <circle cx="200" cy="1650" r="2"/>
    <circle cx="350" cy="1750" r="1.5"/>
    <circle cx="480" cy="1600" r="1"/>
    <circle cx="120" cy="1750" r="1.5"/>
  </g>

  <g stroke="#d4af37" stroke-width="0.5" opacity="0.2">
    <line x1="0" y1="220" x2="600" y2="220"/>
    <line x1="0" y1="1560" x2="600" y2="1560"/>
  </g>
</svg>
