<svg xmlns="http://www.w3.org/2000/svg" width="460" height="400" viewBox="0 0 460 400">
<defs><radialGradient id="ap10" cx="50%" cy="78%" r="78%"><stop offset="0%" stop-color="#FFFFFF"/><stop offset="100%" stop-color="#F5F7F9"/></radialGradient><radialGradient id="ap11" cx="50%" cy="78%" r="78%"><stop offset="0%" stop-color="#F5F7F9"/><stop offset="100%" stop-color="#DFE5EB"/></radialGradient><radialGradient id="ap12" cx="50%" cy="78%" r="78%"><stop offset="0%" stop-color="#DFE5EB"/><stop offset="100%" stop-color="#C3CDD7"/></radialGradient><radialGradient id="ap1g" cx="36%" cy="30%" r="78%"><stop offset="0%" stop-color="#FFFFFF"/><stop offset="42%" stop-color="#F5F7F9"/><stop offset="84%" stop-color="#DFE5EB"/><stop offset="100%" stop-color="#C3CDD7"/></radialGradient><radialGradient id="ap20" cx="50%" cy="78%" r="78%"><stop offset="0%" stop-color="#E6EEF5"/><stop offset="100%" stop-color="#C9D8E6"/></radialGradient><radialGradient id="ap21" cx="50%" cy="78%" r="78%"><stop offset="0%" stop-color="#C9D8E6"/><stop offset="100%" stop-color="#A5BDD3"/></radialGradient><radialGradient id="ap22" cx="50%" cy="78%" r="78%"><stop offset="0%" stop-color="#A5BDD3"/><stop offset="100%" stop-color="#7F9CB8"/></radialGradient><radialGradient id="ap2g" cx="36%" cy="30%" r="78%"><stop offset="0%" stop-color="#E6EEF5"/><stop offset="42%" stop-color="#C9D8E6"/><stop offset="84%" stop-color="#A5BDD3"/><stop offset="100%" stop-color="#7F9CB8"/></radialGradient><radialGradient id="ap30" cx="50%" cy="78%" r="78%"><stop offset="0%" stop-color="#F4F1EC"/><stop offset="100%" stop-color="#E4DDD2"/></radialGradient><radialGradient id="ap31" cx="50%" cy="78%" r="78%"><stop offset="0%" stop-color="#E4DDD2"/><stop offset="100%" stop-color="#CBBFAE"/></radialGradient><radialGradient id="ap32" cx="50%" cy="78%" r="78%"><stop offset="0%" stop-color="#CBBFAE"/><stop offset="100%" stop-color="#A99A86"/></radialGradient><radialGradient id="ap3g" cx="36%" cy="30%" r="78%"><stop offset="0%" stop-color="#F4F1EC"/><stop offset="42%" stop-color="#E4DDD2"/><stop offset="84%" stop-color="#CBBFAE"/><stop offset="100%" stop-color="#A99A86"/></radialGradient><radialGradient id="ap40" cx="50%" cy="78%" r="78%"><stop offset="0%" stop-color="#D9E4EE"/><stop offset="100%" stop-color="#B4C8DA"/></radialGradient><radialGradient id="ap41" cx="50%" cy="78%" r="78%"><stop offset="0%" stop-color="#B4C8DA"/><stop offset="100%" stop-color="#8BA8C2"/></radialGradient><radialGradient id="ap42" cx="50%" cy="78%" r="78%"><stop offset="0%" stop-color="#8BA8C2"/><stop offset="100%" stop-color="#6786A4"/></radialGradient><radialGradient id="ap4g" cx="36%" cy="30%" r="78%"><stop offset="0%" stop-color="#D9E4EE"/><stop offset="42%" stop-color="#B4C8DA"/><stop offset="84%" stop-color="#8BA8C2"/><stop offset="100%" stop-color="#6786A4"/></radialGradient><linearGradient id="ahoja" x1="0" y1="0" x2="1" y2="1"><stop offset="0%" stop-color="#A3BCB8"/><stop offset="100%" stop-color="#5E7A76"/></linearGradient></defs>
<g transform="translate(-20,34) rotate(22) scale(1.50)"><path d="M0,0 C48,-4 80,-8 120,-14" fill="none" stroke="#7F9C98" stroke-width="2" opacity="0.8"/><ellipse cx="7" cy="-8" rx="8.5" ry="7.0" fill="url(#ahoja)" opacity="0.92"/><ellipse cx="7" cy="8" rx="8.5" ry="7.0" fill="url(#ahoja)" opacity="0.78"/><ellipse cx="22" cy="-9" rx="8.0" ry="6.5" fill="url(#ahoja)" opacity="0.92"/><ellipse cx="22" cy="7" rx="8.0" ry="6.5" fill="url(#ahoja)" opacity="0.78"/><ellipse cx="37" cy="-10" rx="7.4" ry="6.1" fill="url(#ahoja)" opacity="0.92"/><ellipse cx="37" cy="6" rx="7.4" ry="6.1" fill="url(#ahoja)" opacity="0.78"/><ellipse cx="52" cy="-12" rx="6.8" ry="5.6" fill="url(#ahoja)" opacity="0.92"/><ellipse cx="52" cy="4" rx="6.8" ry="5.6" fill="url(#ahoja)" opacity="0.78"/><ellipse cx="67" cy="-13" rx="6.3" ry="5.2" fill="url(#ahoja)" opacity="0.92"/><ellipse cx="67" cy="3" rx="6.3" ry="5.2" fill="url(#ahoja)" opacity="0.78"/><ellipse cx="82" cy="-14" rx="5.8" ry="4.7" fill="url(#ahoja)" opacity="0.92"/><ellipse cx="82" cy="2" rx="5.8" ry="4.7" fill="url(#ahoja)" opacity="0.78"/><ellipse cx="97" cy="-15" rx="5.2" ry="4.3" fill="url(#ahoja)" opacity="0.92"/><ellipse cx="97" cy="1" rx="5.2" ry="4.3" fill="url(#ahoja)" opacity="0.78"/><ellipse cx="112" cy="-16" rx="4.6" ry="3.8" fill="url(#ahoja)" opacity="0.92"/><ellipse cx="112" cy="-0" rx="4.6" ry="3.8" fill="url(#ahoja)" opacity="0.78"/></g><g transform="translate(6,6) rotate(55) scale(1.35)"><path d="M0,0 C42,-4 70,-8 105,-14" fill="none" stroke="#7F9C98" stroke-width="2" opacity="0.8"/><ellipse cx="7" cy="-8" rx="8.5" ry="7.0" fill="url(#ahoja)" opacity="0.92"/><ellipse cx="7" cy="8" rx="8.5" ry="7.0" fill="url(#ahoja)" opacity="0.78"/><ellipse cx="22" cy="-9" rx="8.0" ry="6.5" fill="url(#ahoja)" opacity="0.92"/><ellipse cx="22" cy="7" rx="8.0" ry="6.5" fill="url(#ahoja)" opacity="0.78"/><ellipse cx="37" cy="-10" rx="7.4" ry="6.1" fill="url(#ahoja)" opacity="0.92"/><ellipse cx="37" cy="6" rx="7.4" ry="6.1" fill="url(#ahoja)" opacity="0.78"/><ellipse cx="52" cy="-12" rx="6.8" ry="5.6" fill="url(#ahoja)" opacity="0.92"/><ellipse cx="52" cy="4" rx="6.8" ry="5.6" fill="url(#ahoja)" opacity="0.78"/><ellipse cx="67" cy="-13" rx="6.3" ry="5.2" fill="url(#ahoja)" opacity="0.92"/><ellipse cx="67" cy="3" rx="6.3" ry="5.2" fill="url(#ahoja)" opacity="0.78"/><ellipse cx="82" cy="-14" rx="5.8" ry="4.7" fill="url(#ahoja)" opacity="0.92"/><ellipse cx="82" cy="2" rx="5.8" ry="4.7" fill="url(#ahoja)" opacity="0.78"/><ellipse cx="97" cy="-15" rx="5.2" ry="4.3" fill="url(#ahoja)" opacity="0.92"/><ellipse cx="97" cy="1" rx="5.2" ry="4.3" fill="url(#ahoja)" opacity="0.78"/></g><g transform="translate(78,-18) rotate(80) scale(1.35)"><path d="M0,0 C36,-4 60,-8 90,-14" fill="none" stroke="#7F9C98" stroke-width="2" opacity="0.8"/><ellipse cx="7" cy="-8" rx="8.5" ry="7.0" fill="url(#ahoja)" opacity="0.92"/><ellipse cx="7" cy="8" rx="8.5" ry="7.0" fill="url(#ahoja)" opacity="0.78"/><ellipse cx="22" cy="-9" rx="8.0" ry="6.5" fill="url(#ahoja)" opacity="0.92"/><ellipse cx="22" cy="7" rx="8.0" ry="6.5" fill="url(#ahoja)" opacity="0.78"/><ellipse cx="37" cy="-10" rx="7.4" ry="6.1" fill="url(#ahoja)" opacity="0.92"/><ellipse cx="37" cy="6" rx="7.4" ry="6.1" fill="url(#ahoja)" opacity="0.78"/><ellipse cx="52" cy="-12" rx="6.8" ry="5.6" fill="url(#ahoja)" opacity="0.92"/><ellipse cx="52" cy="4" rx="6.8" ry="5.6" fill="url(#ahoja)" opacity="0.78"/><ellipse cx="67" cy="-13" rx="6.3" ry="5.2" fill="url(#ahoja)" opacity="0.92"/><ellipse cx="67" cy="3" rx="6.3" ry="5.2" fill="url(#ahoja)" opacity="0.78"/><ellipse cx="82" cy="-14" rx="5.8" ry="4.7" fill="url(#ahoja)" opacity="0.92"/><ellipse cx="82" cy="2" rx="5.8" ry="4.7" fill="url(#ahoja)" opacity="0.78"/></g><g transform="translate(176,-20) rotate(100) scale(1.15)"><path d="M0,0 C36,-4 60,-8 90,-14" fill="none" stroke="#7F9C98" stroke-width="2" opacity="0.8"/><ellipse cx="7" cy="-8" rx="8.5" ry="7.0" fill="url(#ahoja)" opacity="0.92"/><ellipse cx="7" cy="8" rx="8.5" ry="7.0" fill="url(#ahoja)" opacity="0.78"/><ellipse cx="22" cy="-9" rx="8.0" ry="6.5" fill="url(#ahoja)" opacity="0.92"/><ellipse cx="22" cy="7" rx="8.0" ry="6.5" fill="url(#ahoja)" opacity="0.78"/><ellipse cx="37" cy="-10" rx="7.4" ry="6.1" fill="url(#ahoja)" opacity="0.92"/><ellipse cx="37" cy="6" rx="7.4" ry="6.1" fill="url(#ahoja)" opacity="0.78"/><ellipse cx="52" cy="-12" rx="6.8" ry="5.6" fill="url(#ahoja)" opacity="0.92"/><ellipse cx="52" cy="4" rx="6.8" ry="5.6" fill="url(#ahoja)" opacity="0.78"/><ellipse cx="67" cy="-13" rx="6.3" ry="5.2" fill="url(#ahoja)" opacity="0.92"/><ellipse cx="67" cy="3" rx="6.3" ry="5.2" fill="url(#ahoja)" opacity="0.78"/><ellipse cx="82" cy="-14" rx="5.8" ry="4.7" fill="url(#ahoja)" opacity="0.92"/><ellipse cx="82" cy="2" rx="5.8" ry="4.7" fill="url(#ahoja)" opacity="0.78"/></g><g transform="translate(150,150) rotate(45.0) scale(2.20)"><path d="M0,0 C9,-11 22,-8 24,4 C16,14 4,11 0,0Z" fill="url(#ahoja)"/><path d="M1,1 C9,0 17,3 23,4" fill="none" stroke="#4B6562" stroke-width="0.8" opacity="0.45"/></g><g transform="translate(66,214) rotate(100.0) scale(2.00)"><path d="M0,0 C9,-11 22,-8 24,4 C16,14 4,11 0,0Z" fill="url(#ahoja)"/><path d="M1,1 C9,0 17,3 23,4" fill="none" stroke="#4B6562" stroke-width="0.8" opacity="0.45"/></g><g transform="translate(232,84) rotate(12.0) scale(1.80)"><path d="M0,0 C9,-11 22,-8 24,4 C16,14 4,11 0,0Z" fill="url(#ahoja)"/><path d="M1,1 C9,0 17,3 23,4" fill="none" stroke="#4B6562" stroke-width="0.8" opacity="0.45"/></g><g transform="translate(22,128) rotate(150.0) scale(1.90)"><path d="M0,0 C9,-11 22,-8 24,4 C16,14 4,11 0,0Z" fill="url(#ahoja)"/><path d="M1,1 C9,0 17,3 23,4" fill="none" stroke="#4B6562" stroke-width="0.8" opacity="0.45"/></g><circle cx="182" cy="150" r="2.0" fill="#FFFFFF" opacity="0.80"/><circle cx="220" cy="187" r="2.9" fill="#FFFFFF" opacity="0.73"/><circle cx="205" cy="171" r="3.0" fill="#FFFFFF" opacity="0.85"/><circle cx="196" cy="176" r="2.4" fill="#FFFFFF" opacity="0.67"/><circle cx="207" cy="170" r="3.0" fill="#FFFFFF" opacity="0.84"/><circle cx="196" cy="177" r="3.0" fill="#FFFFFF" opacity="0.63"/><circle cx="195" cy="180" r="2.4" fill="#FFFFFF" opacity="0.95"/><circle cx="196" cy="179" r="3.1" fill="#FFFFFF" opacity="0.68"/><circle cx="156" cy="195" r="2.1" fill="#FFFFFF" opacity="0.70"/><circle cx="205" cy="207" r="2.9" fill="#FFFFFF" opacity="0.90"/><circle cx="157" cy="174" r="2.8" fill="#FFFFFF" opacity="0.61"/><circle cx="178" cy="160" r="2.2" fill="#FFFFFF" opacity="0.86"/><circle cx="196" cy="176" r="3.3" fill="#FFFFFF" opacity="0.69"/><circle cx="171" cy="201" r="2.0" fill="#FFFFFF" opacity="0.62"/><circle cx="203" cy="167" r="3.4" fill="#FFFFFF" opacity="0.56"/><circle cx="174" cy="198" r="2.2" fill="#FFFFFF" opacity="0.81"/><circle cx="199" cy="177" r="2.9" fill="#FFFFFF" opacity="0.76"/><circle cx="195" cy="209" r="1.7" fill="#FFFFFF" opacity="0.84"/><circle cx="209" cy="173" r="2.6" fill="#FFFFFF" opacity="0.89"/><circle cx="212" cy="159" r="3.3" fill="#FFFFFF" opacity="0.83"/><circle cx="191" cy="175" r="2.1" fill="#FFFFFF" opacity="0.76"/><circle cx="203" cy="184" r="3.0" fill="#FFFFFF" opacity="0.61"/><circle cx="210" cy="182" r="3.1" fill="#FFFFFF" opacity="0.81"/><circle cx="192" cy="178" r="2.1" fill="#FFFFFF" opacity="0.93"/><circle cx="180" cy="198" r="2.9" fill="#FFFFFF" opacity="0.59"/><circle cx="205" cy="143" r="2.7" fill="#FFFFFF" opacity="0.59"/><circle cx="40" cy="236" r="2.8" fill="#FFFFFF" opacity="0.63"/><circle cx="38" cy="236" r="1.6" fill="#FFFFFF" opacity="0.92"/><circle cx="47" cy="235" r="3.3" fill="#FFFFFF" opacity="0.70"/><circle cx="42" cy="236" r="2.4" fill="#FFFFFF" opacity="0.86"/><circle cx="28" cy="226" r="2.3" fill="#FFFFFF" opacity="0.63"/><circle cx="74" cy="234" r="2.1" fill="#FFFFFF" opacity="0.93"/><circle cx="61" cy="215" r="2.9" fill="#FFFFFF" opacity="0.93"/><circle cx="73" cy="230" r="2.0" fill="#FFFFFF" opacity="0.77"/><circle cx="43" cy="244" r="2.0" fill="#FFFFFF" opacity="0.88"/><circle cx="23" cy="245" r="2.6" fill="#FFFFFF" opacity="0.90"/><circle cx="12" cy="226" r="2.9" fill="#FFFFFF" opacity="0.78"/><circle cx="36" cy="259" r="3.1" fill="#FFFFFF" opacity="0.63"/><circle cx="29" cy="241" r="2.8" fill="#FFFFFF" opacity="0.56"/><circle cx="35" cy="243" r="2.1" fill="#FFFFFF" opacity="0.67"/><circle cx="39" cy="246" r="1.8" fill="#FFFFFF" opacity="0.69"/><circle cx="69" cy="249" r="2.5" fill="#FFFFFF" opacity="0.60"/><circle cx="23" cy="237" r="1.7" fill="#FFFFFF" opacity="0.73"/><circle cx="35" cy="229" r="2.1" fill="#FFFFFF" opacity="0.92"/><g transform="translate(92.0,108.0) rotate(-12) scale(2.60)"><ellipse cx="0" cy="2" rx="15" ry="13" fill="#5A4636" opacity="0.12"/><path d="M0,0 C-0.58,-0.30 -0.66,-1.02 0,-1.28 C0.66,-1.02 0.58,-0.30 0,0 Z" transform="rotate(2) scale(15.1)" fill="url(#ap10)" stroke="rgba(70,50,40,0.10)" stroke-width="0.06"/><path d="M0,0 C-0.58,-0.30 -0.66,-1.02 0,-1.28 C0.66,-1.02 0.58,-0.30 0,0 Z" transform="rotate(50) scale(15.6)" fill="url(#ap10)" stroke="rgba(70,50,40,0.10)" stroke-width="0.06"/><path d="M0,0 C-0.58,-0.30 -0.66,-1.02 0,-1.28 C0.66,-1.02 0.58,-0.30 0,0 Z" transform="rotate(106) scale(15.8)" fill="url(#ap10)" stroke="rgba(70,50,40,0.10)" stroke-width="0.06"/><path d="M0,0 C-0.58,-0.30 -0.66,-1.02 0,-1.28 C0.66,-1.02 0.58,-0.30 0,0 Z" transform="rotate(154) scale(15.2)" fill="url(#ap10)" stroke="rgba(70,50,40,0.10)" stroke-width="0.06"/><path d="M0,0 C-0.58,-0.30 -0.66,-1.02 0,-1.28 C0.66,-1.02 0.58,-0.30 0,0 Z" transform="rotate(208) scale(14.7)" fill="url(#ap10)" stroke="rgba(70,50,40,0.10)" stroke-width="0.06"/><path d="M0,0 C-0.58,-0.30 -0.66,-1.02 0,-1.28 C0.66,-1.02 0.58,-0.30 0,0 Z" transform="rotate(259) scale(14.9)" fill="url(#ap10)" stroke="rgba(70,50,40,0.10)" stroke-width="0.06"/><path d="M0,0 C-0.58,-0.30 -0.66,-1.02 0,-1.28 C0.66,-1.02 0.58,-0.30 0,0 Z" transform="rotate(308) scale(16.2)" fill="url(#ap10)" stroke="rgba(70,50,40,0.10)" stroke-width="0.06"/><path d="M0,0 C-0.58,-0.30 -0.66,-1.02 0,-1.28 C0.66,-1.02 0.58,-0.30 0,0 Z" transform="rotate(27) scale(10.0)" fill="url(#ap11)" stroke="rgba(70,50,40,0.10)" stroke-width="0.06"/><path d="M0,0 C-0.58,-0.30 -0.66,-1.02 0,-1.28 C0.66,-1.02 0.58,-0.30 0,0 Z" transform="rotate(87) scale(10.3)" fill="url(#ap11)" stroke="rgba(70,50,40,0.10)" stroke-width="0.06"/><path d="M0,0 C-0.58,-0.30 -0.66,-1.02 0,-1.28 C0.66,-1.02 0.58,-0.30 0,0 Z" transform="rotate(150) scale(9.8)" fill="url(#ap11)" stroke="rgba(70,50,40,0.10)" stroke-width="0.06"/><path d="M0,0 C-0.58,-0.30 -0.66,-1.02 0,-1.28 C0.66,-1.02 0.58,-0.30 0,0 Z" transform="rotate(209) scale(9.9)" fill="url(#ap11)" stroke="rgba(70,50,40,0.10)" stroke-width="0.06"/><path d="M0,0 C-0.58,-0.30 -0.66,-1.02 0,-1.28 C0.66,-1.02 0.58,-0.30 0,0 Z" transform="rotate(263) scale(10.0)" fill="url(#ap11)" stroke="rgba(70,50,40,0.10)" stroke-width="0.06"/><path d="M0,0 C-0.58,-0.30 -0.66,-1.02 0,-1.28 C0.66,-1.02 0.58,-0.30 0,0 Z" transform="rotate(322) scale(11.1)" fill="url(#ap11)" stroke="rgba(70,50,40,0.10)" stroke-width="0.06"/><path d="M0,0 C-0.58,-0.30 -0.66,-1.02 0,-1.28 C0.66,-1.02 0.58,-0.30 0,0 Z" transform="rotate(52) scale(6.5)" fill="url(#ap12)" stroke="rgba(70,50,40,0.10)" stroke-width="0.06"/><path d="M0,0 C-0.58,-0.30 -0.66,-1.02 0,-1.28 C0.66,-1.02 0.58,-0.30 0,0 Z" transform="rotate(128) scale(6.2)" fill="url(#ap12)" stroke="rgba(70,50,40,0.10)" stroke-width="0.06"/><path d="M0,0 C-0.58,-0.30 -0.66,-1.02 0,-1.28 C0.66,-1.02 0.58,-0.30 0,0 Z" transform="rotate(196) scale(6.3)" fill="url(#ap12)" stroke="rgba(70,50,40,0.10)" stroke-width="0.06"/><path d="M0,0 C-0.58,-0.30 -0.66,-1.02 0,-1.28 C0.66,-1.02 0.58,-0.30 0,0 Z" transform="rotate(264) scale(6.4)" fill="url(#ap12)" stroke="rgba(70,50,40,0.10)" stroke-width="0.06"/><path d="M0,0 C-0.58,-0.30 -0.66,-1.02 0,-1.28 C0.66,-1.02 0.58,-0.30 0,0 Z" transform="rotate(337) scale(6.0)" fill="url(#ap12)" stroke="rgba(70,50,40,0.10)" stroke-width="0.06"/><circle r="3.6" fill="#DFE5EB"/><path d="M0,2.6 C2.6,-1 3.6,-3.6 0,-5.2 C-3.6,-3.6 -2.6,-1 0,2.6Z" fill="#C3CDD7" opacity="0.85"/><path d="M-4,-6 C-1,-9 2,-9 5,-6" fill="none" stroke="#FFFFFF" stroke-width="0.9" opacity="0.32"/></g><g transform="translate(176.0,66.0) rotate(20) scale(2.10)"><ellipse cx="0" cy="2" rx="15" ry="13" fill="#5A4636" opacity="0.12"/><path d="M0,0 C-0.58,-0.30 -0.66,-1.02 0,-1.28 C0.66,-1.02 0.58,-0.30 0,0 Z" transform="rotate(2) scale(14.5)" fill="url(#ap30)" stroke="rgba(70,50,40,0.10)" stroke-width="0.06"/><path d="M0,0 C-0.58,-0.30 -0.66,-1.02 0,-1.28 C0.66,-1.02 0.58,-0.30 0,0 Z" transform="rotate(51) scale(14.6)" fill="url(#ap30)" stroke="rgba(70,50,40,0.10)" stroke-width="0.06"/><path d="M0,0 C-0.58,-0.30 -0.66,-1.02 0,-1.28 C0.66,-1.02 0.58,-0.30 0,0 Z" transform="rotate(105) scale(15.5)" fill="url(#ap30)" stroke="rgba(70,50,40,0.10)" stroke-width="0.06"/><path d="M0,0 C-0.58,-0.30 -0.66,-1.02 0,-1.28 C0.66,-1.02 0.58,-0.30 0,0 Z" transform="rotate(154) scale(14.8)" fill="url(#ap30)" stroke="rgba(70,50,40,0.10)" stroke-width="0.06"/><path d="M0,0 C-0.58,-0.30 -0.66,-1.02 0,-1.28 C0.66,-1.02 0.58,-0.30 0,0 Z" transform="rotate(204) scale(15.6)" fill="url(#ap30)" stroke="rgba(70,50,40,0.10)" stroke-width="0.06"/><path d="M0,0 C-0.58,-0.30 -0.66,-1.02 0,-1.28 C0.66,-1.02 0.58,-0.30 0,0 Z" transform="rotate(255) scale(14.6)" fill="url(#ap30)" stroke="rgba(70,50,40,0.10)" stroke-width="0.06"/><path d="M0,0 C-0.58,-0.30 -0.66,-1.02 0,-1.28 C0.66,-1.02 0.58,-0.30 0,0 Z" transform="rotate(310) scale(15.4)" fill="url(#ap30)" stroke="rgba(70,50,40,0.10)" stroke-width="0.06"/><path d="M0,0 C-0.58,-0.30 -0.66,-1.02 0,-1.28 C0.66,-1.02 0.58,-0.30 0,0 Z" transform="rotate(28) scale(11.1)" fill="url(#ap31)" stroke="rgba(70,50,40,0.10)" stroke-width="0.06"/><path d="M0,0 C-0.58,-0.30 -0.66,-1.02 0,-1.28 C0.66,-1.02 0.58,-0.30 0,0 Z" transform="rotate(85) scale(10.8)" fill="url(#ap31)" stroke="rgba(70,50,40,0.10)" stroke-width="0.06"/><path d="M0,0 C-0.58,-0.30 -0.66,-1.02 0,-1.28 C0.66,-1.02 0.58,-0.30 0,0 Z" transform="rotate(144) scale(10.8)" fill="url(#ap31)" stroke="rgba(70,50,40,0.10)" stroke-width="0.06"/><path d="M0,0 C-0.58,-0.30 -0.66,-1.02 0,-1.28 C0.66,-1.02 0.58,-0.30 0,0 Z" transform="rotate(206) scale(11.0)" fill="url(#ap31)" stroke="rgba(70,50,40,0.10)" stroke-width="0.06"/><path d="M0,0 C-0.58,-0.30 -0.66,-1.02 0,-1.28 C0.66,-1.02 0.58,-0.30 0,0 Z" transform="rotate(266) scale(9.8)" fill="url(#ap31)" stroke="rgba(70,50,40,0.10)" stroke-width="0.06"/><path d="M0,0 C-0.58,-0.30 -0.66,-1.02 0,-1.28 C0.66,-1.02 0.58,-0.30 0,0 Z" transform="rotate(329) scale(10.2)" fill="url(#ap31)" stroke="rgba(70,50,40,0.10)" stroke-width="0.06"/><path d="M0,0 C-0.58,-0.30 -0.66,-1.02 0,-1.28 C0.66,-1.02 0.58,-0.30 0,0 Z" transform="rotate(55) scale(6.6)" fill="url(#ap32)" stroke="rgba(70,50,40,0.10)" stroke-width="0.06"/><path d="M0,0 C-0.58,-0.30 -0.66,-1.02 0,-1.28 C0.66,-1.02 0.58,-0.30 0,0 Z" transform="rotate(123) scale(6.6)" fill="url(#ap32)" stroke="rgba(70,50,40,0.10)" stroke-width="0.06"/><path d="M0,0 C-0.58,-0.30 -0.66,-1.02 0,-1.28 C0.66,-1.02 0.58,-0.30 0,0 Z" transform="rotate(193) scale(6.3)" fill="url(#ap32)" stroke="rgba(70,50,40,0.10)" stroke-width="0.06"/><path d="M0,0 C-0.58,-0.30 -0.66,-1.02 0,-1.28 C0.66,-1.02 0.58,-0.30 0,0 Z" transform="rotate(270) scale(6.0)" fill="url(#ap32)" stroke="rgba(70,50,40,0.10)" stroke-width="0.06"/><path d="M0,0 C-0.58,-0.30 -0.66,-1.02 0,-1.28 C0.66,-1.02 0.58,-0.30 0,0 Z" transform="rotate(336) scale(6.4)" fill="url(#ap32)" stroke="rgba(70,50,40,0.10)" stroke-width="0.06"/><circle r="3.6" fill="#CBBFAE"/><path d="M0,2.6 C2.6,-1 3.6,-3.6 0,-5.2 C-3.6,-3.6 -2.6,-1 0,2.6Z" fill="#A99A86" opacity="0.85"/><path d="M-4,-6 C-1,-9 2,-9 5,-6" fill="none" stroke="#FFFFFF" stroke-width="0.9" opacity="0.32"/></g><g transform="translate(48.0,190.0) rotate(8) scale(1.90)"><ellipse cx="0" cy="2" rx="15" ry="13" fill="#5A4636" opacity="0.12"/><path d="M0,0 C-0.58,-0.30 -0.66,-1.02 0,-1.28 C0.66,-1.02 0.58,-0.30 0,0 Z" transform="rotate(3) scale(15.1)" fill="url(#ap20)" stroke="rgba(70,50,40,0.10)" stroke-width="0.06"/><path d="M0,0 C-0.58,-0.30 -0.66,-1.02 0,-1.28 C0.66,-1.02 0.58,-0.30 0,0 Z" transform="rotate(49) scale(14.6)" fill="url(#ap20)" stroke="rgba(70,50,40,0.10)" stroke-width="0.06"/><path d="M0,0 C-0.58,-0.30 -0.66,-1.02 0,-1.28 C0.66,-1.02 0.58,-0.30 0,0 Z" transform="rotate(101) scale(15.5)" fill="url(#ap20)" stroke="rgba(70,50,40,0.10)" stroke-width="0.06"/><path d="M0,0 C-0.58,-0.30 -0.66,-1.02 0,-1.28 C0.66,-1.02 0.58,-0.30 0,0 Z" transform="rotate(151) scale(16.5)" fill="url(#ap20)" stroke="rgba(70,50,40,0.10)" stroke-width="0.06"/><path d="M0,0 C-0.58,-0.30 -0.66,-1.02 0,-1.28 C0.66,-1.02 0.58,-0.30 0,0 Z" transform="rotate(207) scale(15.9)" fill="url(#ap20)" stroke="rgba(70,50,40,0.10)" stroke-width="0.06"/><path d="M0,0 C-0.58,-0.30 -0.66,-1.02 0,-1.28 C0.66,-1.02 0.58,-0.30 0,0 Z" transform="rotate(259) scale(15.2)" fill="url(#ap20)" stroke="rgba(70,50,40,0.10)" stroke-width="0.06"/><path d="M0,0 C-0.58,-0.30 -0.66,-1.02 0,-1.28 C0.66,-1.02 0.58,-0.30 0,0 Z" transform="rotate(310) scale(16.3)" fill="url(#ap20)" stroke="rgba(70,50,40,0.10)" stroke-width="0.06"/><path d="M0,0 C-0.58,-0.30 -0.66,-1.02 0,-1.28 C0.66,-1.02 0.58,-0.30 0,0 Z" transform="rotate(26) scale(10.9)" fill="url(#ap21)" stroke="rgba(70,50,40,0.10)" stroke-width="0.06"/><path d="M0,0 C-0.58,-0.30 -0.66,-1.02 0,-1.28 C0.66,-1.02 0.58,-0.30 0,0 Z" transform="rotate(85) scale(10.5)" fill="url(#ap21)" stroke="rgba(70,50,40,0.10)" stroke-width="0.06"/><path d="M0,0 C-0.58,-0.30 -0.66,-1.02 0,-1.28 C0.66,-1.02 0.58,-0.30 0,0 Z" transform="rotate(148) scale(11.1)" fill="url(#ap21)" stroke="rgba(70,50,40,0.10)" stroke-width="0.06"/><path d="M0,0 C-0.58,-0.30 -0.66,-1.02 0,-1.28 C0.66,-1.02 0.58,-0.30 0,0 Z" transform="rotate(210) scale(10.5)" fill="url(#ap21)" stroke="rgba(70,50,40,0.10)" stroke-width="0.06"/><path d="M0,0 C-0.58,-0.30 -0.66,-1.02 0,-1.28 C0.66,-1.02 0.58,-0.30 0,0 Z" transform="rotate(265) scale(10.9)" fill="url(#ap21)" stroke="rgba(70,50,40,0.10)" stroke-width="0.06"/><path d="M0,0 C-0.58,-0.30 -0.66,-1.02 0,-1.28 C0.66,-1.02 0.58,-0.30 0,0 Z" transform="rotate(324) scale(10.9)" fill="url(#ap21)" stroke="rgba(70,50,40,0.10)" stroke-width="0.06"/><path d="M0,0 C-0.58,-0.30 -0.66,-1.02 0,-1.28 C0.66,-1.02 0.58,-0.30 0,0 Z" transform="rotate(52) scale(6.3)" fill="url(#ap22)" stroke="rgba(70,50,40,0.10)" stroke-width="0.06"/><path d="M0,0 C-0.58,-0.30 -0.66,-1.02 0,-1.28 C0.66,-1.02 0.58,-0.30 0,0 Z" transform="rotate(124) scale(6.0)" fill="url(#ap22)" stroke="rgba(70,50,40,0.10)" stroke-width="0.06"/><path d="M0,0 C-0.58,-0.30 -0.66,-1.02 0,-1.28 C0.66,-1.02 0.58,-0.30 0,0 Z" transform="rotate(196) scale(6.4)" fill="url(#ap22)" stroke="rgba(70,50,40,0.10)" stroke-width="0.06"/><path d="M0,0 C-0.58,-0.30 -0.66,-1.02 0,-1.28 C0.66,-1.02 0.58,-0.30 0,0 Z" transform="rotate(270) scale(6.0)" fill="url(#ap22)" stroke="rgba(70,50,40,0.10)" stroke-width="0.06"/><path d="M0,0 C-0.58,-0.30 -0.66,-1.02 0,-1.28 C0.66,-1.02 0.58,-0.30 0,0 Z" transform="rotate(342) scale(6.3)" fill="url(#ap22)" stroke="rgba(70,50,40,0.10)" stroke-width="0.06"/><circle r="3.6" fill="#A5BDD3"/><path d="M0,2.6 C2.6,-1 3.6,-3.6 0,-5.2 C-3.6,-3.6 -2.6,-1 0,2.6Z" fill="#7F9CB8" opacity="0.85"/><path d="M-4,-6 C-1,-9 2,-9 5,-6" fill="none" stroke="#FFFFFF" stroke-width="0.9" opacity="0.32"/></g><g transform="translate(138.0,196.0) rotate(-25) scale(1.60)"><ellipse cx="0" cy="2" rx="15" ry="13" fill="#5A4636" opacity="0.12"/><path d="M0,0 C-0.58,-0.30 -0.66,-1.02 0,-1.28 C0.66,-1.02 0.58,-0.30 0,0 Z" transform="rotate(2) scale(16.1)" fill="url(#ap40)" stroke="rgba(70,50,40,0.10)" stroke-width="0.06"/><path d="M0,0 C-0.58,-0.30 -0.66,-1.02 0,-1.28 C0.66,-1.02 0.58,-0.30 0,0 Z" transform="rotate(49) scale(15.8)" fill="url(#ap40)" stroke="rgba(70,50,40,0.10)" stroke-width="0.06"/><path d="M0,0 C-0.58,-0.30 -0.66,-1.02 0,-1.28 C0.66,-1.02 0.58,-0.30 0,0 Z" transform="rotate(100) scale(15.7)" fill="url(#ap40)" stroke="rgba(70,50,40,0.10)" stroke-width="0.06"/><path d="M0,0 C-0.58,-0.30 -0.66,-1.02 0,-1.28 C0.66,-1.02 0.58,-0.30 0,0 Z" transform="rotate(156) scale(15.4)" fill="url(#ap40)" stroke="rgba(70,50,40,0.10)" stroke-width="0.06"/><path d="M0,0 C-0.58,-0.30 -0.66,-1.02 0,-1.28 C0.66,-1.02 0.58,-0.30 0,0 Z" transform="rotate(209) scale(14.9)" fill="url(#ap40)" stroke="rgba(70,50,40,0.10)" stroke-width="0.06"/><path d="M0,0 C-0.58,-0.30 -0.66,-1.02 0,-1.28 C0.66,-1.02 0.58,-0.30 0,0 Z" transform="rotate(259) scale(16.0)" fill="url(#ap40)" stroke="rgba(70,50,40,0.10)" stroke-width="0.06"/><path d="M0,0 C-0.58,-0.30 -0.66,-1.02 0,-1.28 C0.66,-1.02 0.58,-0.30 0,0 Z" transform="rotate(310) scale(14.4)" fill="url(#ap40)" stroke="rgba(70,50,40,0.10)" stroke-width="0.06"/><path d="M0,0 C-0.58,-0.30 -0.66,-1.02 0,-1.28 C0.66,-1.02 0.58,-0.30 0,0 Z" transform="rotate(26) scale(10.2)" fill="url(#ap41)" stroke="rgba(70,50,40,0.10)" stroke-width="0.06"/><path d="M0,0 C-0.58,-0.30 -0.66,-1.02 0,-1.28 C0.66,-1.02 0.58,-0.30 0,0 Z" transform="rotate(89) scale(10.2)" fill="url(#ap41)" stroke="rgba(70,50,40,0.10)" stroke-width="0.06"/><path d="M0,0 C-0.58,-0.30 -0.66,-1.02 0,-1.28 C0.66,-1.02 0.58,-0.30 0,0 Z" transform="rotate(148) scale(10.8)" fill="url(#ap41)" stroke="rgba(70,50,40,0.10)" stroke-width="0.06"/><path d="M0,0 C-0.58,-0.30 -0.66,-1.02 0,-1.28 C0.66,-1.02 0.58,-0.30 0,0 Z" transform="rotate(204) scale(9.8)" fill="url(#ap41)" stroke="rgba(70,50,40,0.10)" stroke-width="0.06"/><path d="M0,0 C-0.58,-0.30 -0.66,-1.02 0,-1.28 C0.66,-1.02 0.58,-0.30 0,0 Z" transform="rotate(268) scale(10.1)" fill="url(#ap41)" stroke="rgba(70,50,40,0.10)" stroke-width="0.06"/><path d="M0,0 C-0.58,-0.30 -0.66,-1.02 0,-1.28 C0.66,-1.02 0.58,-0.30 0,0 Z" transform="rotate(324) scale(9.9)" fill="url(#ap41)" stroke="rgba(70,50,40,0.10)" stroke-width="0.06"/><path d="M0,0 C-0.58,-0.30 -0.66,-1.02 0,-1.28 C0.66,-1.02 0.58,-0.30 0,0 Z" transform="rotate(52) scale(6.8)" fill="url(#ap42)" stroke="rgba(70,50,40,0.10)" stroke-width="0.06"/><path d="M0,0 C-0.58,-0.30 -0.66,-1.02 0,-1.28 C0.66,-1.02 0.58,-0.30 0,0 Z" transform="rotate(122) scale(6.0)" fill="url(#ap42)" stroke="rgba(70,50,40,0.10)" stroke-width="0.06"/><path d="M0,0 C-0.58,-0.30 -0.66,-1.02 0,-1.28 C0.66,-1.02 0.58,-0.30 0,0 Z" transform="rotate(199) scale(6.2)" fill="url(#ap42)" stroke="rgba(70,50,40,0.10)" stroke-width="0.06"/><path d="M0,0 C-0.58,-0.30 -0.66,-1.02 0,-1.28 C0.66,-1.02 0.58,-0.30 0,0 Z" transform="rotate(267) scale(6.8)" fill="url(#ap42)" stroke="rgba(70,50,40,0.10)" stroke-width="0.06"/><path d="M0,0 C-0.58,-0.30 -0.66,-1.02 0,-1.28 C0.66,-1.02 0.58,-0.30 0,0 Z" transform="rotate(338) scale(6.3)" fill="url(#ap42)" stroke="rgba(70,50,40,0.10)" stroke-width="0.06"/><circle r="3.6" fill="#8BA8C2"/><path d="M0,2.6 C2.6,-1 3.6,-3.6 0,-5.2 C-3.6,-3.6 -2.6,-1 0,2.6Z" fill="#6786A4" opacity="0.85"/><path d="M-4,-6 C-1,-9 2,-9 5,-6" fill="none" stroke="#FFFFFF" stroke-width="0.9" opacity="0.32"/></g><g transform="translate(226.0,148.0) rotate(15) scale(1.45)"><ellipse cx="0" cy="2" rx="15" ry="13" fill="#5A4636" opacity="0.12"/><path d="M0,0 C-0.58,-0.30 -0.66,-1.02 0,-1.28 C0.66,-1.02 0.58,-0.30 0,0 Z" transform="rotate(0) scale(14.4)" fill="url(#ap10)" stroke="rgba(70,50,40,0.10)" stroke-width="0.06"/><path d="M0,0 C-0.58,-0.30 -0.66,-1.02 0,-1.28 C0.66,-1.02 0.58,-0.30 0,0 Z" transform="rotate(53) scale(14.9)" fill="url(#ap10)" stroke="rgba(70,50,40,0.10)" stroke-width="0.06"/><path d="M0,0 C-0.58,-0.30 -0.66,-1.02 0,-1.28 C0.66,-1.02 0.58,-0.30 0,0 Z" transform="rotate(103) scale(14.6)" fill="url(#ap10)" stroke="rgba(70,50,40,0.10)" stroke-width="0.06"/><path d="M0,0 C-0.58,-0.30 -0.66,-1.02 0,-1.28 C0.66,-1.02 0.58,-0.30 0,0 Z" transform="rotate(150) scale(16.4)" fill="url(#ap10)" stroke="rgba(70,50,40,0.10)" stroke-width="0.06"/><path d="M0,0 C-0.58,-0.30 -0.66,-1.02 0,-1.28 C0.66,-1.02 0.58,-0.30 0,0 Z" transform="rotate(209) scale(14.9)" fill="url(#ap10)" stroke="rgba(70,50,40,0.10)" stroke-width="0.06"/><path d="M0,0 C-0.58,-0.30 -0.66,-1.02 0,-1.28 C0.66,-1.02 0.58,-0.30 0,0 Z" transform="rotate(261) scale(15.2)" fill="url(#ap10)" stroke="rgba(70,50,40,0.10)" stroke-width="0.06"/><path d="M0,0 C-0.58,-0.30 -0.66,-1.02 0,-1.28 C0.66,-1.02 0.58,-0.30 0,0 Z" transform="rotate(305) scale(14.5)" fill="url(#ap10)" stroke="rgba(70,50,40,0.10)" stroke-width="0.06"/><path d="M0,0 C-0.58,-0.30 -0.66,-1.02 0,-1.28 C0.66,-1.02 0.58,-0.30 0,0 Z" transform="rotate(26) scale(10.9)" fill="url(#ap11)" stroke="rgba(70,50,40,0.10)" stroke-width="0.06"/><path d="M0,0 C-0.58,-0.30 -0.66,-1.02 0,-1.28 C0.66,-1.02 0.58,-0.30 0,0 Z" transform="rotate(87) scale(10.5)" fill="url(#ap11)" stroke="rgba(70,50,40,0.10)" stroke-width="0.06"/><path d="M0,0 C-0.58,-0.30 -0.66,-1.02 0,-1.28 C0.66,-1.02 0.58,-0.30 0,0 Z" transform="rotate(145) scale(10.1)" fill="url(#ap11)" stroke="rgba(70,50,40,0.10)" stroke-width="0.06"/><path d="M0,0 C-0.58,-0.30 -0.66,-1.02 0,-1.28 C0.66,-1.02 0.58,-0.30 0,0 Z" transform="rotate(210) scale(11.2)" fill="url(#ap11)" stroke="rgba(70,50,40,0.10)" stroke-width="0.06"/><path d="M0,0 C-0.58,-0.30 -0.66,-1.02 0,-1.28 C0.66,-1.02 0.58,-0.30 0,0 Z" transform="rotate(264) scale(11.2)" fill="url(#ap11)" stroke="rgba(70,50,40,0.10)" stroke-width="0.06"/><path d="M0,0 C-0.58,-0.30 -0.66,-1.02 0,-1.28 C0.66,-1.02 0.58,-0.30 0,0 Z" transform="rotate(329) scale(11.2)" fill="url(#ap11)" stroke="rgba(70,50,40,0.10)" stroke-width="0.06"/><path d="M0,0 C-0.58,-0.30 -0.66,-1.02 0,-1.28 C0.66,-1.02 0.58,-0.30 0,0 Z" transform="rotate(54) scale(6.8)" fill="url(#ap12)" stroke="rgba(70,50,40,0.10)" stroke-width="0.06"/><path d="M0,0 C-0.58,-0.30 -0.66,-1.02 0,-1.28 C0.66,-1.02 0.58,-0.30 0,0 Z" transform="rotate(128) scale(6.8)" fill="url(#ap12)" stroke="rgba(70,50,40,0.10)" stroke-width="0.06"/><path d="M0,0 C-0.58,-0.30 -0.66,-1.02 0,-1.28 C0.66,-1.02 0.58,-0.30 0,0 Z" transform="rotate(194) scale(6.4)" fill="url(#ap12)" stroke="rgba(70,50,40,0.10)" stroke-width="0.06"/><path d="M0,0 C-0.58,-0.30 -0.66,-1.02 0,-1.28 C0.66,-1.02 0.58,-0.30 0,0 Z" transform="rotate(266) scale(6.2)" fill="url(#ap12)" stroke="rgba(70,50,40,0.10)" stroke-width="0.06"/><path d="M0,0 C-0.58,-0.30 -0.66,-1.02 0,-1.28 C0.66,-1.02 0.58,-0.30 0,0 Z" transform="rotate(338) scale(6.7)" fill="url(#ap12)" stroke="rgba(70,50,40,0.10)" stroke-width="0.06"/><circle r="3.6" fill="#DFE5EB"/><path d="M0,2.6 C2.6,-1 3.6,-3.6 0,-5.2 C-3.6,-3.6 -2.6,-1 0,2.6Z" fill="#C3CDD7" opacity="0.85"/><path d="M-4,-6 C-1,-9 2,-9 5,-6" fill="none" stroke="#FFFFFF" stroke-width="0.9" opacity="0.32"/></g><g transform="translate(20,58) rotate(-30) scale(1.50)"><path d="M0,10 C-7,4 -7,-8 0,-12 C7,-8 7,4 0,10Z" fill="url(#ap30)"/><path d="M0,9 C-3,3 -3,-7 0,-11" fill="none" stroke="#CBBFAE" stroke-width="1.1" opacity="0.7"/><path d="M-5,9 C-2,14 2,14 5,9 L0,13Z" fill="#7F9C98"/></g><g transform="translate(252,40) rotate(40) scale(1.30)"><path d="M0,10 C-7,4 -7,-8 0,-12 C7,-8 7,4 0,10Z" fill="url(#ap20)"/><path d="M0,9 C-3,3 -3,-7 0,-11" fill="none" stroke="#A5BDD3" stroke-width="1.1" opacity="0.7"/><path d="M-5,9 C-2,14 2,14 5,9 L0,13Z" fill="#7F9C98"/></g><g transform="translate(100,262) rotate(200) scale(1.30)"><path d="M0,10 C-7,4 -7,-8 0,-12 C7,-8 7,4 0,10Z" fill="url(#ap40)"/><path d="M0,9 C-3,3 -3,-7 0,-11" fill="none" stroke="#8BA8C2" stroke-width="1.1" opacity="0.7"/><path d="M-5,9 C-2,14 2,14 5,9 L0,13Z" fill="#7F9C98"/></g><g><circle cx="91" cy="340" r="1.4" fill="#B9A36A" opacity="0.58"/><circle cx="333" cy="276" r="1.6" fill="#B9A36A" opacity="0.62"/><circle cx="60" cy="253" r="2.4" fill="#B9A36A" opacity="0.48"/><circle cx="130" cy="375" r="1.6" fill="#B9A36A" opacity="0.54"/><circle cx="295" cy="147" r="2.1" fill="#B9A36A" opacity="0.61"/><circle cx="398" cy="182" r="2.8" fill="#B9A36A" opacity="0.33"/><circle cx="312" cy="133" r="1.2" fill="#B9A36A" opacity="0.60"/><circle cx="94" cy="211" r="2.0" fill="#B9A36A" opacity="0.28"/><circle cx="384" cy="281" r="1.5" fill="#B9A36A" opacity="0.28"/><circle cx="225" cy="124" r="2.4" fill="#B9A36A" opacity="0.37"/><circle cx="255" cy="383" r="2.2" fill="#B9A36A" opacity="0.31"/><circle cx="238" cy="130" r="2.1" fill="#B9A36A" opacity="0.57"/><circle cx="265" cy="245" r="2.1" fill="#B9A36A" opacity="0.51"/><circle cx="229" cy="72" r="2.9" fill="#B9A36A" opacity="0.49"/><circle cx="295" cy="221" r="2.3" fill="#B9A36A" opacity="0.64"/><circle cx="422" cy="9" r="2.5" fill="#B9A36A" opacity="0.29"/><circle cx="306" cy="256" r="3.0" fill="#B9A36A" opacity="0.54"/><circle cx="416" cy="318" r="1.5" fill="#B9A36A" opacity="0.52"/><circle cx="440" cy="49" r="2.9" fill="#B9A36A" opacity="0.52"/><circle cx="365" cy="138" r="2.6" fill="#B9A36A" opacity="0.38"/><circle cx="329" cy="343" r="1.2" fill="#B9A36A" opacity="0.48"/><circle cx="256" cy="128" r="2.1" fill="#B9A36A" opacity="0.36"/><circle cx="224" cy="74" r="2.7" fill="#B9A36A" opacity="0.53"/><circle cx="263" cy="377" r="2.7" fill="#B9A36A" opacity="0.26"/></g>
</svg>
