<svg xmlns="http://www.w3.org/2000/svg" width="1600" height="170" viewBox="0 0 1600 170">
<defs><radialGradient id="cp10" cx="50%" cy="78%" r="78%"><stop offset="0%" stop-color="#6A6A6A"/><stop offset="100%" stop-color="#2A2A2A"/></radialGradient><radialGradient id="cp11" cx="50%" cy="78%" r="78%"><stop offset="0%" stop-color="#2A2A2A"/><stop offset="100%" stop-color="#121212"/></radialGradient><radialGradient id="cp12" cx="50%" cy="78%" r="78%"><stop offset="0%" stop-color="#121212"/><stop offset="100%" stop-color="#000000"/></radialGradient><radialGradient id="cp1g" cx="36%" cy="30%" r="78%"><stop offset="0%" stop-color="#6A6A6A"/><stop offset="42%" stop-color="#2A2A2A"/><stop offset="84%" stop-color="#121212"/><stop offset="100%" stop-color="#000000"/></radialGradient><radialGradient id="cp20" cx="50%" cy="78%" r="78%"><stop offset="0%" stop-color="#FFF4C2"/><stop offset="100%" stop-color="#EFCF6A"/></radialGradient><radialGradient id="cp21" cx="50%" cy="78%" r="78%"><stop offset="0%" stop-color="#EFCF6A"/><stop offset="100%" stop-color="#C9A227"/></radialGradient><radialGradient id="cp22" cx="50%" cy="78%" r="78%"><stop offset="0%" stop-color="#C9A227"/><stop offset="100%" stop-color="#8A6A10"/></radialGradient><radialGradient id="cp2g" cx="36%" cy="30%" r="78%"><stop offset="0%" stop-color="#FFF4C2"/><stop offset="42%" stop-color="#EFCF6A"/><stop offset="84%" stop-color="#C9A227"/><stop offset="100%" stop-color="#8A6A10"/></radialGradient><radialGradient id="cp30" cx="50%" cy="78%" r="78%"><stop offset="0%" stop-color="#FFF8EA"/><stop offset="100%" stop-color="#F2E2C2"/></radialGradient><radialGradient id="cp31" cx="50%" cy="78%" r="78%"><stop offset="0%" stop-color="#F2E2C2"/><stop offset="100%" stop-color="#D9C08E"/></radialGradient><radialGradient id="cp32" cx="50%" cy="78%" r="78%"><stop offset="0%" stop-color="#D9C08E"/><stop offset="100%" stop-color="#B39A62"/></radialGradient><radialGradient id="cp3g" cx="36%" cy="30%" r="78%"><stop offset="0%" stop-color="#FFF8EA"/><stop offset="42%" stop-color="#F2E2C2"/><stop offset="84%" stop-color="#D9C08E"/><stop offset="100%" stop-color="#B39A62"/></radialGradient><radialGradient id="cp40" cx="50%" cy="78%" r="78%"><stop offset="0%" stop-color="#FFFFFF"/><stop offset="100%" stop-color="#EFEFEF"/></radialGradient><radialGradient id="cp41" cx="50%" cy="78%" r="78%"><stop offset="0%" stop-color="#EFEFEF"/><stop offset="100%" stop-color="#D2D2D2"/></radialGradient><radialGradient id="cp42" cx="50%" cy="78%" r="78%"><stop offset="0%" stop-color="#D2D2D2"/><stop offset="100%" stop-color="#A8A8A8"/></radialGradient><radialGradient id="cp4g" cx="36%" cy="30%" r="78%"><stop offset="0%" stop-color="#FFFFFF"/><stop offset="42%" stop-color="#EFEFEF"/><stop offset="84%" stop-color="#D2D2D2"/><stop offset="100%" stop-color="#A8A8A8"/></radialGradient><linearGradient id="choja" x1="0" y1="0" x2="1" y2="1"><stop offset="0%" stop-color="#F1D77A"/><stop offset="100%" stop-color="#8A6A10"/></linearGradient></defs>
<g transform="translate(457.0,60.0)"><circle r="19.6" fill="url(#cp4g)" stroke="rgba(0,0,0,0.07)" stroke-width="0.8"/><ellipse cx="-7.1" cy="-7.9" rx="3.9" ry="2.2" transform="rotate(-38 -7.1 -7.9)" fill="#FFFFFF" opacity="0.6"/></g><g transform="translate(284.4,67.3)"><circle r="24.5" fill="url(#cp2g)" stroke="rgba(0,0,0,0.07)" stroke-width="0.8"/><ellipse cx="-8.8" cy="-9.8" rx="4.9" ry="2.7" transform="rotate(-38 -8.8 -9.8)" fill="#FFFFFF" opacity="0.6"/></g><g transform="translate(58.1,35.2)"><circle r="22.7" fill="url(#cp2g)" stroke="rgba(0,0,0,0.07)" stroke-width="0.8"/><ellipse cx="-8.2" cy="-9.1" rx="4.5" ry="2.5" transform="rotate(-38 -8.2 -9.1)" fill="#FFFFFF" opacity="0.6"/></g><g transform="translate(110.9,47.2)"><circle r="26.0" fill="url(#cp1g)" stroke="rgba(0,0,0,0.07)" stroke-width="0.8"/><ellipse cx="-9.4" cy="-10.4" rx="5.2" ry="2.9" transform="rotate(-38 -9.4 -10.4)" fill="#FFFFFF" opacity="0.6"/></g><g transform="translate(420.1,64.0)"><circle r="29.4" fill="url(#cp2g)" stroke="rgba(0,0,0,0.07)" stroke-width="0.8"/><ellipse cx="-10.6" cy="-11.8" rx="5.9" ry="3.2" transform="rotate(-38 -10.6 -11.8)" fill="#FFFFFF" opacity="0.6"/></g><g transform="translate(222.6,40.0)"><circle r="24.4" fill="url(#cp2g)" stroke="rgba(0,0,0,0.07)" stroke-width="0.8"/><ellipse cx="-8.8" cy="-9.8" rx="4.9" ry="2.7" transform="rotate(-38 -8.8 -9.8)" fill="#FFFFFF" opacity="0.6"/></g><g transform="translate(66.3,16.4)"><circle r="27.9" fill="url(#cp1g)" stroke="rgba(0,0,0,0.07)" stroke-width="0.8"/><ellipse cx="-10.0" cy="-11.2" rx="5.6" ry="3.1" transform="rotate(-38 -10.0 -11.2)" fill="#FFFFFF" opacity="0.6"/></g><g transform="translate(246.9,60.8)"><circle r="25.7" fill="url(#cp3g)" stroke="rgba(0,0,0,0.07)" stroke-width="0.8"/><ellipse cx="-9.3" cy="-10.3" rx="5.1" ry="2.8" transform="rotate(-38 -9.3 -10.3)" fill="#FFFFFF" opacity="0.6"/></g><g transform="translate(384.5,58.1)"><circle r="27.6" fill="url(#cp1g)" stroke="rgba(0,0,0,0.07)" stroke-width="0.8"/><ellipse cx="-9.9" cy="-11.0" rx="5.5" ry="3.0" transform="rotate(-38 -9.9 -11.0)" fill="#FFFFFF" opacity="0.6"/></g><g transform="translate(32.5,34.2)"><circle r="20.3" fill="url(#cp2g)" stroke="rgba(0,0,0,0.07)" stroke-width="0.8"/><ellipse cx="-7.3" cy="-8.1" rx="4.1" ry="2.2" transform="rotate(-38 -7.3 -8.1)" fill="#FFFFFF" opacity="0.6"/></g><g transform="translate(509.1,38.8)"><circle r="20.8" fill="url(#cp3g)" stroke="rgba(0,0,0,0.07)" stroke-width="0.8"/><ellipse cx="-7.5" cy="-8.3" rx="4.2" ry="2.3" transform="rotate(-38 -7.5 -8.3)" fill="#FFFFFF" opacity="0.6"/></g><g transform="translate(397.2,73.2)"><circle r="18.6" fill="url(#cp1g)" stroke="rgba(0,0,0,0.07)" stroke-width="0.8"/><ellipse cx="-6.7" cy="-7.4" rx="3.7" ry="2.0" transform="rotate(-38 -6.7 -7.4)" fill="#FFFFFF" opacity="0.6"/></g><g transform="translate(434.4,62.1)"><circle r="25.2" fill="url(#cp4g)" stroke="rgba(0,0,0,0.07)" stroke-width="0.8"/><ellipse cx="-9.1" cy="-10.1" rx="5.0" ry="2.8" transform="rotate(-38 -9.1 -10.1)" fill="#FFFFFF" opacity="0.6"/></g><g transform="translate(547.8,31.3)"><circle r="24.2" fill="url(#cp1g)" stroke="rgba(0,0,0,0.07)" stroke-width="0.8"/><ellipse cx="-8.7" cy="-9.7" rx="4.8" ry="2.7" transform="rotate(-38 -8.7 -9.7)" fill="#FFFFFF" opacity="0.6"/></g><g transform="translate(-9.4,19.8)"><circle r="28.8" fill="url(#cp2g)" stroke="rgba(0,0,0,0.07)" stroke-width="0.8"/><ellipse cx="-10.4" cy="-11.5" rx="5.8" ry="3.2" transform="rotate(-38 -10.4 -11.5)" fill="#FFFFFF" opacity="0.6"/></g><g transform="translate(211.9,40.1)"><circle r="19.7" fill="url(#cp4g)" stroke="rgba(0,0,0,0.07)" stroke-width="0.8"/><ellipse cx="-7.1" cy="-7.9" rx="3.9" ry="2.2" transform="rotate(-38 -7.1 -7.9)" fill="#FFFFFF" opacity="0.6"/></g><g transform="translate(260.2,40.4)"><circle r="21.4" fill="url(#cp3g)" stroke="rgba(0,0,0,0.07)" stroke-width="0.8"/><ellipse cx="-7.7" cy="-8.6" rx="4.3" ry="2.4" transform="rotate(-38 -7.7 -8.6)" fill="#FFFFFF" opacity="0.6"/></g><g transform="translate(165.5,30.1)"><circle r="21.5" fill="url(#cp4g)" stroke="rgba(0,0,0,0.07)" stroke-width="0.8"/><ellipse cx="-7.8" cy="-8.6" rx="4.3" ry="2.4" transform="rotate(-38 -7.8 -8.6)" fill="#FFFFFF" opacity="0.6"/></g><g transform="translate(548.7,37.1)"><circle r="18.6" fill="url(#cp2g)" stroke="rgba(0,0,0,0.07)" stroke-width="0.8"/><ellipse cx="-6.7" cy="-7.5" rx="3.7" ry="2.0" transform="rotate(-38 -6.7 -7.5)" fill="#FFFFFF" opacity="0.6"/></g><g transform="translate(39.8,22.1)"><circle r="19.0" fill="url(#cp2g)" stroke="rgba(0,0,0,0.07)" stroke-width="0.8"/><ellipse cx="-6.8" cy="-7.6" rx="3.8" ry="2.1" transform="rotate(-38 -6.8 -7.6)" fill="#FFFFFF" opacity="0.6"/></g><g transform="translate(283.8,67.7)"><circle r="19.8" fill="url(#cp3g)" stroke="rgba(0,0,0,0.07)" stroke-width="0.8"/><ellipse cx="-7.1" cy="-7.9" rx="4.0" ry="2.2" transform="rotate(-38 -7.1 -7.9)" fill="#FFFFFF" opacity="0.6"/></g><g transform="translate(355.1,57.2)"><circle r="28.3" fill="url(#cp4g)" stroke="rgba(0,0,0,0.07)" stroke-width="0.8"/><ellipse cx="-10.2" cy="-11.3" rx="5.7" ry="3.1" transform="rotate(-38 -10.2 -11.3)" fill="#FFFFFF" opacity="0.6"/></g><g transform="translate(171.7,38.1)"><circle r="27.6" fill="url(#cp1g)" stroke="rgba(0,0,0,0.07)" stroke-width="0.8"/><ellipse cx="-9.9" cy="-11.0" rx="5.5" ry="3.0" transform="rotate(-38 -9.9 -11.0)" fill="#FFFFFF" opacity="0.6"/></g><g transform="translate(-9.5,20.3)"><circle r="24.9" fill="url(#cp3g)" stroke="rgba(0,0,0,0.07)" stroke-width="0.8"/><ellipse cx="-9.0" cy="-10.0" rx="5.0" ry="2.7" transform="rotate(-38 -9.0 -10.0)" fill="#FFFFFF" opacity="0.6"/></g><g transform="translate(333.8,67.9)"><circle r="20.5" fill="url(#cp1g)" stroke="rgba(0,0,0,0.07)" stroke-width="0.8"/><ellipse cx="-7.4" cy="-8.2" rx="4.1" ry="2.3" transform="rotate(-38 -7.4 -8.2)" fill="#FFFFFF" opacity="0.6"/></g><g transform="translate(108.4,26.6)"><circle r="26.0" fill="url(#cp3g)" stroke="rgba(0,0,0,0.07)" stroke-width="0.8"/><ellipse cx="-9.4" cy="-10.4" rx="5.2" ry="2.9" transform="rotate(-38 -9.4 -10.4)" fill="#FFFFFF" opacity="0.6"/></g><g transform="translate(478.3,69.2)"><circle r="18.1" fill="url(#cp3g)" stroke="rgba(0,0,0,0.07)" stroke-width="0.8"/><ellipse cx="-6.5" cy="-7.2" rx="3.6" ry="2.0" transform="rotate(-38 -6.5 -7.2)" fill="#FFFFFF" opacity="0.6"/></g><g transform="translate(491.1,48.9)"><circle r="16.3" fill="url(#cp1g)" stroke="rgba(0,0,0,0.07)" stroke-width="0.8"/><ellipse cx="-5.9" cy="-6.5" rx="3.3" ry="1.8" transform="rotate(-38 -5.9 -6.5)" fill="#FFFFFF" opacity="0.6"/></g><g transform="translate(-7.4,39.9)"><circle r="6.9" fill="url(#cp2g)" stroke="rgba(0,0,0,0.07)" stroke-width="0.8"/><ellipse cx="-2.5" cy="-2.8" rx="1.4" ry="0.8" transform="rotate(-38 -2.5 -2.8)" fill="#FFFFFF" opacity="0.6"/></g><g transform="translate(9.1,17.8)"><circle r="6.2" fill="url(#cp2g)" stroke="rgba(0,0,0,0.07)" stroke-width="0.8"/><ellipse cx="-2.2" cy="-2.5" rx="1.2" ry="0.7" transform="rotate(-38 -2.2 -2.5)" fill="#FFFFFF" opacity="0.6"/></g><g transform="translate(55.2,43.4)"><circle r="7.4" fill="url(#cp3g)" stroke="rgba(0,0,0,0.07)" stroke-width="0.8"/><ellipse cx="-2.7" cy="-3.0" rx="1.5" ry="0.8" transform="rotate(-38 -2.7 -3.0)" fill="#FFFFFF" opacity="0.6"/></g><g transform="translate(102.1,5.9)"><circle r="7.5" fill="url(#cp1g)" stroke="rgba(0,0,0,0.07)" stroke-width="0.8"/><ellipse cx="-2.7" cy="-3.0" rx="1.5" ry="0.8" transform="rotate(-38 -2.7 -3.0)" fill="#FFFFFF" opacity="0.6"/></g><g transform="translate(167.4,65.9)"><circle r="9.2" fill="url(#cp3g)" stroke="rgba(0,0,0,0.07)" stroke-width="0.8"/><ellipse cx="-3.3" cy="-3.7" rx="1.8" ry="1.0" transform="rotate(-38 -3.3 -3.7)" fill="#FFFFFF" opacity="0.6"/></g><g transform="translate(195.2,28.9)"><circle r="9.5" fill="url(#cp2g)" stroke="rgba(0,0,0,0.07)" stroke-width="0.8"/><ellipse cx="-3.4" cy="-3.8" rx="1.9" ry="1.0" transform="rotate(-38 -3.4 -3.8)" fill="#FFFFFF" opacity="0.6"/></g><g transform="translate(284.5,62.2)"><circle r="7.8" fill="url(#cp1g)" stroke="rgba(0,0,0,0.07)" stroke-width="0.8"/><ellipse cx="-2.8" cy="-3.1" rx="1.6" ry="0.9" transform="rotate(-38 -2.8 -3.1)" fill="#FFFFFF" opacity="0.6"/></g><g transform="translate(354.5,37.4)"><circle r="6.5" fill="url(#cp2g)" stroke="rgba(0,0,0,0.07)" stroke-width="0.8"/><ellipse cx="-2.3" cy="-2.6" rx="1.3" ry="0.7" transform="rotate(-38 -2.3 -2.6)" fill="#FFFFFF" opacity="0.6"/></g><g transform="translate(404.4,50.9)"><circle r="6.4" fill="url(#cp1g)" stroke="rgba(0,0,0,0.07)" stroke-width="0.8"/><ellipse cx="-2.3" cy="-2.6" rx="1.3" ry="0.7" transform="rotate(-38 -2.3 -2.6)" fill="#FFFFFF" opacity="0.6"/></g><g transform="translate(400.3,34.4)"><circle r="9.0" fill="url(#cp4g)" stroke="rgba(0,0,0,0.07)" stroke-width="0.8"/><ellipse cx="-3.2" cy="-3.6" rx="1.8" ry="1.0" transform="rotate(-38 -3.2 -3.6)" fill="#FFFFFF" opacity="0.6"/></g><g transform="translate(526.7,55.7)"><circle r="8.6" fill="url(#cp3g)" stroke="rgba(0,0,0,0.07)" stroke-width="0.8"/><ellipse cx="-3.1" cy="-3.4" rx="1.7" ry="0.9" transform="rotate(-38 -3.1 -3.4)" fill="#FFFFFF" opacity="0.6"/></g><g transform="translate(523.4,44.6)"><circle r="6.6" fill="url(#cp2g)" stroke="rgba(0,0,0,0.07)" stroke-width="0.8"/><ellipse cx="-2.4" cy="-2.6" rx="1.3" ry="0.7" transform="rotate(-38 -2.4 -2.6)" fill="#FFFFFF" opacity="0.6"/></g><g transform="translate(1059.0,42.4)"><circle r="27.9" fill="url(#cp3g)" stroke="rgba(0,0,0,0.07)" stroke-width="0.8"/><ellipse cx="-10.1" cy="-11.2" rx="5.6" ry="3.1" transform="rotate(-38 -10.1 -11.2)" fill="#FFFFFF" opacity="0.6"/></g><g transform="translate(1222.0,64.2)"><circle r="29.0" fill="url(#cp1g)" stroke="rgba(0,0,0,0.07)" stroke-width="0.8"/><ellipse cx="-10.4" cy="-11.6" rx="5.8" ry="3.2" transform="rotate(-38 -10.4 -11.6)" fill="#FFFFFF" opacity="0.6"/></g><g transform="translate(1136.9,41.5)"><circle r="19.7" fill="url(#cp1g)" stroke="rgba(0,0,0,0.07)" stroke-width="0.8"/><ellipse cx="-7.1" cy="-7.9" rx="3.9" ry="2.2" transform="rotate(-38 -7.1 -7.9)" fill="#FFFFFF" opacity="0.6"/></g><g transform="translate(1257.1,70.5)"><circle r="17.9" fill="url(#cp1g)" stroke="rgba(0,0,0,0.07)" stroke-width="0.8"/><ellipse cx="-6.5" cy="-7.2" rx="3.6" ry="2.0" transform="rotate(-38 -6.5 -7.2)" fill="#FFFFFF" opacity="0.6"/></g><g transform="translate(1399.9,58.6)"><circle r="17.3" fill="url(#cp2g)" stroke="rgba(0,0,0,0.07)" stroke-width="0.8"/><ellipse cx="-6.2" cy="-6.9" rx="3.5" ry="1.9" transform="rotate(-38 -6.2 -6.9)" fill="#FFFFFF" opacity="0.6"/></g><g transform="translate(1308.7,45.1)"><circle r="23.3" fill="url(#cp4g)" stroke="rgba(0,0,0,0.07)" stroke-width="0.8"/><ellipse cx="-8.4" cy="-9.3" rx="4.7" ry="2.6" transform="rotate(-38 -8.4 -9.3)" fill="#FFFFFF" opacity="0.6"/></g><g transform="translate(1177.7,50.3)"><circle r="25.0" fill="url(#cp1g)" stroke="rgba(0,0,0,0.07)" stroke-width="0.8"/><ellipse cx="-9.0" cy="-10.0" rx="5.0" ry="2.8" transform="rotate(-38 -9.0 -10.0)" fill="#FFFFFF" opacity="0.6"/></g><g transform="translate(1088.7,41.9)"><circle r="23.0" fill="url(#cp3g)" stroke="rgba(0,0,0,0.07)" stroke-width="0.8"/><ellipse cx="-8.3" cy="-9.2" rx="4.6" ry="2.5" transform="rotate(-38 -8.3 -9.2)" fill="#FFFFFF" opacity="0.6"/></g><g transform="translate(1534.1,24.0)"><circle r="19.9" fill="url(#cp2g)" stroke="rgba(0,0,0,0.07)" stroke-width="0.8"/><ellipse cx="-7.1" cy="-7.9" rx="4.0" ry="2.2" transform="rotate(-38 -7.1 -7.9)" fill="#FFFFFF" opacity="0.6"/></g><g transform="translate(1492.9,32.0)"><circle r="16.1" fill="url(#cp3g)" stroke="rgba(0,0,0,0.07)" stroke-width="0.8"/><ellipse cx="-5.8" cy="-6.5" rx="3.2" ry="1.8" transform="rotate(-38 -5.8 -6.5)" fill="#FFFFFF" opacity="0.6"/></g><g transform="translate(1173.3,44.1)"><circle r="16.7" fill="url(#cp3g)" stroke="rgba(0,0,0,0.07)" stroke-width="0.8"/><ellipse cx="-6.0" cy="-6.7" rx="3.3" ry="1.8" transform="rotate(-38 -6.0 -6.7)" fill="#FFFFFF" opacity="0.6"/></g><g transform="translate(1623.3,21.4)"><circle r="24.3" fill="url(#cp1g)" stroke="rgba(0,0,0,0.07)" stroke-width="0.8"/><ellipse cx="-8.7" cy="-9.7" rx="4.9" ry="2.7" transform="rotate(-38 -8.7 -9.7)" fill="#FFFFFF" opacity="0.6"/></g><g transform="translate(1563.8,15.1)"><circle r="23.9" fill="url(#cp2g)" stroke="rgba(0,0,0,0.07)" stroke-width="0.8"/><ellipse cx="-8.6" cy="-9.5" rx="4.8" ry="2.6" transform="rotate(-38 -8.6 -9.5)" fill="#FFFFFF" opacity="0.6"/></g><g transform="translate(1476.8,44.6)"><circle r="21.5" fill="url(#cp1g)" stroke="rgba(0,0,0,0.07)" stroke-width="0.8"/><ellipse cx="-7.7" cy="-8.6" rx="4.3" ry="2.4" transform="rotate(-38 -7.7 -8.6)" fill="#FFFFFF" opacity="0.6"/></g><g transform="translate(1289.9,61.3)"><circle r="29.1" fill="url(#cp2g)" stroke="rgba(0,0,0,0.07)" stroke-width="0.8"/><ellipse cx="-10.5" cy="-11.6" rx="5.8" ry="3.2" transform="rotate(-38 -10.5 -11.6)" fill="#FFFFFF" opacity="0.6"/></g><g transform="translate(1425.3,55.5)"><circle r="18.5" fill="url(#cp3g)" stroke="rgba(0,0,0,0.07)" stroke-width="0.8"/><ellipse cx="-6.7" cy="-7.4" rx="3.7" ry="2.0" transform="rotate(-38 -6.7 -7.4)" fill="#FFFFFF" opacity="0.6"/></g><g transform="translate(1349.0,46.1)"><circle r="24.3" fill="url(#cp2g)" stroke="rgba(0,0,0,0.07)" stroke-width="0.8"/><ellipse cx="-8.8" cy="-9.7" rx="4.9" ry="2.7" transform="rotate(-38 -8.8 -9.7)" fill="#FFFFFF" opacity="0.6"/></g><g transform="translate(1093.6,43.5)"><circle r="28.3" fill="url(#cp3g)" stroke="rgba(0,0,0,0.07)" stroke-width="0.8"/><ellipse cx="-10.2" cy="-11.3" rx="5.7" ry="3.1" transform="rotate(-38 -10.2 -11.3)" fill="#FFFFFF" opacity="0.6"/></g><g transform="translate(1527.5,20.8)"><circle r="16.7" fill="url(#cp3g)" stroke="rgba(0,0,0,0.07)" stroke-width="0.8"/><ellipse cx="-6.0" cy="-6.7" rx="3.3" ry="1.8" transform="rotate(-38 -6.0 -6.7)" fill="#FFFFFF" opacity="0.6"/></g><g transform="translate(1385.2,34.5)"><circle r="25.8" fill="url(#cp2g)" stroke="rgba(0,0,0,0.07)" stroke-width="0.8"/><ellipse cx="-9.3" cy="-10.3" rx="5.2" ry="2.8" transform="rotate(-38 -9.3 -10.3)" fill="#FFFFFF" opacity="0.6"/></g><g transform="translate(1442.4,33.0)"><circle r="21.8" fill="url(#cp1g)" stroke="rgba(0,0,0,0.07)" stroke-width="0.8"/><ellipse cx="-7.8" cy="-8.7" rx="4.4" ry="2.4" transform="rotate(-38 -7.8 -8.7)" fill="#FFFFFF" opacity="0.6"/></g><g transform="translate(1570.7,23.0)"><circle r="21.9" fill="url(#cp3g)" stroke="rgba(0,0,0,0.07)" stroke-width="0.8"/><ellipse cx="-7.9" cy="-8.7" rx="4.4" ry="2.4" transform="rotate(-38 -7.9 -8.7)" fill="#FFFFFF" opacity="0.6"/></g><g transform="translate(1614.8,14.0)"><circle r="20.5" fill="url(#cp3g)" stroke="rgba(0,0,0,0.07)" stroke-width="0.8"/><ellipse cx="-7.4" cy="-8.2" rx="4.1" ry="2.3" transform="rotate(-38 -7.4 -8.2)" fill="#FFFFFF" opacity="0.6"/></g><g transform="translate(1244.6,53.1)"><circle r="22.7" fill="url(#cp3g)" stroke="rgba(0,0,0,0.07)" stroke-width="0.8"/><ellipse cx="-8.2" cy="-9.1" rx="4.5" ry="2.5" transform="rotate(-38 -8.2 -9.1)" fill="#FFFFFF" opacity="0.6"/></g><g transform="translate(1124.7,64.1)"><circle r="23.4" fill="url(#cp1g)" stroke="rgba(0,0,0,0.07)" stroke-width="0.8"/><ellipse cx="-8.4" cy="-9.4" rx="4.7" ry="2.6" transform="rotate(-38 -8.4 -9.4)" fill="#FFFFFF" opacity="0.6"/></g><g transform="translate(1353.5,44.9)"><circle r="22.3" fill="url(#cp4g)" stroke="rgba(0,0,0,0.07)" stroke-width="0.8"/><ellipse cx="-8.0" cy="-8.9" rx="4.5" ry="2.5" transform="rotate(-38 -8.0 -8.9)" fill="#FFFFFF" opacity="0.6"/></g><g transform="translate(1046.2,44.8)"><circle r="19.8" fill="url(#cp3g)" stroke="rgba(0,0,0,0.07)" stroke-width="0.8"/><ellipse cx="-7.1" cy="-7.9" rx="4.0" ry="2.2" transform="rotate(-38 -7.1 -7.9)" fill="#FFFFFF" opacity="0.6"/></g><g transform="translate(1210.1,52.2)"><circle r="17.0" fill="url(#cp3g)" stroke="rgba(0,0,0,0.07)" stroke-width="0.8"/><ellipse cx="-6.1" cy="-6.8" rx="3.4" ry="1.9" transform="rotate(-38 -6.1 -6.8)" fill="#FFFFFF" opacity="0.6"/></g><g transform="translate(1064.7,49.2)"><circle r="8.9" fill="url(#cp1g)" stroke="rgba(0,0,0,0.07)" stroke-width="0.8"/><ellipse cx="-3.2" cy="-3.6" rx="1.8" ry="1.0" transform="rotate(-38 -3.2 -3.6)" fill="#FFFFFF" opacity="0.6"/></g><g transform="translate(1154.7,54.8)"><circle r="8.8" fill="url(#cp2g)" stroke="rgba(0,0,0,0.07)" stroke-width="0.8"/><ellipse cx="-3.2" cy="-3.5" rx="1.8" ry="1.0" transform="rotate(-38 -3.2 -3.5)" fill="#FFFFFF" opacity="0.6"/></g><g transform="translate(1189.2,79.5)"><circle r="7.6" fill="url(#cp1g)" stroke="rgba(0,0,0,0.07)" stroke-width="0.8"/><ellipse cx="-2.7" cy="-3.1" rx="1.5" ry="0.8" transform="rotate(-38 -2.7 -3.1)" fill="#FFFFFF" opacity="0.6"/></g><g transform="translate(1332.3,58.5)"><circle r="9.3" fill="url(#cp2g)" stroke="rgba(0,0,0,0.07)" stroke-width="0.8"/><ellipse cx="-3.3" cy="-3.7" rx="1.9" ry="1.0" transform="rotate(-38 -3.3 -3.7)" fill="#FFFFFF" opacity="0.6"/></g><g transform="translate(1376.3,74.4)"><circle r="7.3" fill="url(#cp3g)" stroke="rgba(0,0,0,0.07)" stroke-width="0.8"/><ellipse cx="-2.6" cy="-2.9" rx="1.5" ry="0.8" transform="rotate(-38 -2.6 -2.9)" fill="#FFFFFF" opacity="0.6"/></g><g transform="translate(1426.6,23.8)"><circle r="8.1" fill="url(#cp4g)" stroke="rgba(0,0,0,0.07)" stroke-width="0.8"/><ellipse cx="-2.9" cy="-3.2" rx="1.6" ry="0.9" transform="rotate(-38 -2.9 -3.2)" fill="#FFFFFF" opacity="0.6"/></g><g transform="translate(1504.5,60.4)"><circle r="6.4" fill="url(#cp3g)" stroke="rgba(0,0,0,0.07)" stroke-width="0.8"/><ellipse cx="-2.3" cy="-2.6" rx="1.3" ry="0.7" transform="rotate(-38 -2.3 -2.6)" fill="#FFFFFF" opacity="0.6"/></g><g transform="translate(1511.1,59.9)"><circle r="7.9" fill="url(#cp4g)" stroke="rgba(0,0,0,0.07)" stroke-width="0.8"/><ellipse cx="-2.8" cy="-3.2" rx="1.6" ry="0.9" transform="rotate(-38 -2.8 -3.2)" fill="#FFFFFF" opacity="0.6"/></g><g transform="translate(1564.0,48.7)"><circle r="6.9" fill="url(#cp2g)" stroke="rgba(0,0,0,0.07)" stroke-width="0.8"/><ellipse cx="-2.5" cy="-2.8" rx="1.4" ry="0.8" transform="rotate(-38 -2.5 -2.8)" fill="#FFFFFF" opacity="0.6"/></g><g transform="translate(1600.2,31.7)"><circle r="6.9" fill="url(#cp1g)" stroke="rgba(0,0,0,0.07)" stroke-width="0.8"/><ellipse cx="-2.5" cy="-2.7" rx="1.4" ry="0.8" transform="rotate(-38 -2.5 -2.7)" fill="#FFFFFF" opacity="0.6"/></g><g><rect x="480" y="47" width="6.6" height="2.1" rx="1" fill="#2A2A2A" opacity="0.80" transform="rotate(8 480 47)"/><rect x="30" y="150" width="4.9" height="2.5" rx="1" fill="#F0C64E" opacity="0.87" transform="rotate(10 30 150)"/><rect x="219" y="46" width="5.8" height="3.4" rx="1" fill="#EFEFEF" opacity="0.87" transform="rotate(43 219 46)"/><rect x="28" y="159" width="5.9" height="3.3" rx="1" fill="#F2E2C2" opacity="0.83" transform="rotate(122 28 159)"/><rect x="298" y="169" width="5.3" height="3.2" rx="1" fill="#EFCF6A" opacity="0.51" transform="rotate(149 298 169)"/><rect x="409" y="87" width="8.5" height="3.5" rx="1" fill="#EFEFEF" opacity="0.90" transform="rotate(98 409 87)"/><rect x="343" y="51" width="5.3" height="3.6" rx="1" fill="#2A2A2A" opacity="0.63" transform="rotate(92 343 51)"/><rect x="359" y="136" width="5.0" height="3.5" rx="1" fill="#2A2A2A" opacity="0.88" transform="rotate(159 359 136)"/><rect x="37" y="166" width="5.7" height="2.8" rx="1" fill="#2A2A2A" opacity="0.67" transform="rotate(172 37 166)"/><rect x="395" y="154" width="8.6" height="3.3" rx="1" fill="#2A2A2A" opacity="0.53" transform="rotate(142 395 154)"/><rect x="363" y="57" width="7.6" height="3.7" rx="1" fill="#F0C64E" opacity="0.88" transform="rotate(170 363 57)"/><rect x="132" y="64" width="5.6" height="3.2" rx="1" fill="#2A2A2A" opacity="0.66" transform="rotate(165 132 64)"/><rect x="216" y="121" width="4.7" height="2.3" rx="1" fill="#F2E2C2" opacity="0.57" transform="rotate(136 216 121)"/><rect x="410" y="32" width="5.5" height="3.5" rx="1" fill="#EFCF6A" opacity="0.62" transform="rotate(91 410 32)"/><rect x="401" y="150" width="7.3" height="2.1" rx="1" fill="#EFCF6A" opacity="0.79" transform="rotate(46 401 150)"/><rect x="218" y="45" width="4.1" height="2.8" rx="1" fill="#F2E2C2" opacity="0.70" transform="rotate(121 218 45)"/><rect x="163" y="21" width="4.9" height="2.2" rx="1" fill="#F2E2C2" opacity="0.70" transform="rotate(155 163 21)"/><rect x="23" y="131" width="8.1" height="3.9" rx="1" fill="#EFEFEF" opacity="0.77" transform="rotate(27 23 131)"/><rect x="470" y="42" width="5.2" height="3.2" rx="1" fill="#F2E2C2" opacity="0.53" transform="rotate(44 470 42)"/><rect x="346" y="112" width="6.8" height="4.0" rx="1" fill="#EFCF6A" opacity="0.59" transform="rotate(69 346 112)"/><rect x="162" y="162" width="8.2" height="4.0" rx="1" fill="#F0C64E" opacity="0.86" transform="rotate(87 162 162)"/><rect x="468" y="86" width="6.5" height="3.0" rx="1" fill="#EFCF6A" opacity="0.76" transform="rotate(168 468 86)"/><rect x="461" y="16" width="8.2" height="2.8" rx="1" fill="#EFEFEF" opacity="0.70" transform="rotate(74 461 16)"/><rect x="309" y="84" width="4.8" height="3.4" rx="1" fill="#EFEFEF" opacity="0.90" transform="rotate(101 309 84)"/><rect x="355" y="26" width="7.7" height="3.6" rx="1" fill="#2A2A2A" opacity="0.62" transform="rotate(138 355 26)"/><rect x="298" y="29" width="8.2" height="2.3" rx="1" fill="#EFEFEF" opacity="0.79" transform="rotate(39 298 29)"/><rect x="73" y="20" width="7.3" height="2.8" rx="1" fill="#F0C64E" opacity="0.68" transform="rotate(97 73 20)"/><rect x="109" y="159" width="6.6" height="3.9" rx="1" fill="#F0C64E" opacity="0.63" transform="rotate(4 109 159)"/><rect x="139" y="7" width="5.4" height="3.1" rx="1" fill="#2A2A2A" opacity="0.65" transform="rotate(34 139 7)"/><rect x="384" y="29" width="4.8" height="3.8" rx="1" fill="#EFCF6A" opacity="0.83" transform="rotate(44 384 29)"/></g><g transform="translate(1120,0)"><rect x="401" y="27" width="4.4" height="3.6" rx="1" fill="#EFEFEF" opacity="0.70" transform="rotate(95 401 27)"/><rect x="180" y="103" width="7.8" height="2.6" rx="1" fill="#2A2A2A" opacity="0.89" transform="rotate(151 180 103)"/><rect x="400" y="2" width="6.1" height="3.2" rx="1" fill="#F2E2C2" opacity="0.71" transform="rotate(90 400 2)"/><rect x="156" y="159" width="4.4" height="2.7" rx="1" fill="#F0C64E" opacity="0.67" transform="rotate(178 156 159)"/><rect x="209" y="102" width="5.3" height="2.4" rx="1" fill="#F2E2C2" opacity="0.63" transform="rotate(64 209 102)"/><rect x="4" y="141" width="5.9" height="3.1" rx="1" fill="#EFCF6A" opacity="0.52" transform="rotate(112 4 141)"/><rect x="140" y="120" width="8.4" height="3.9" rx="1" fill="#F2E2C2" opacity="0.69" transform="rotate(135 140 120)"/><rect x="221" y="126" width="5.3" height="3.3" rx="1" fill="#EFEFEF" opacity="0.64" transform="rotate(10 221 126)"/><rect x="408" y="37" width="5.0" height="2.4" rx="1" fill="#F0C64E" opacity="0.63" transform="rotate(6 408 37)"/><rect x="114" y="164" width="8.9" height="2.4" rx="1" fill="#F0C64E" opacity="0.75" transform="rotate(44 114 164)"/><rect x="305" y="125" width="8.4" height="2.3" rx="1" fill="#F0C64E" opacity="0.75" transform="rotate(92 305 125)"/><rect x="72" y="26" width="7.5" height="3.1" rx="1" fill="#2A2A2A" opacity="0.58" transform="rotate(159 72 26)"/><rect x="93" y="49" width="7.3" height="3.7" rx="1" fill="#EFEFEF" opacity="0.58" transform="rotate(141 93 49)"/><rect x="149" y="17" width="7.2" height="3.9" rx="1" fill="#2A2A2A" opacity="0.76" transform="rotate(146 149 17)"/><rect x="253" y="12" width="7.5" height="2.3" rx="1" fill="#F2E2C2" opacity="0.82" transform="rotate(26 253 12)"/><rect x="68" y="77" width="5.3" height="2.7" rx="1" fill="#2A2A2A" opacity="0.61" transform="rotate(83 68 77)"/><rect x="384" y="144" width="8.2" height="2.6" rx="1" fill="#EFCF6A" opacity="0.77" transform="rotate(110 384 144)"/><rect x="382" y="17" width="6.9" height="3.6" rx="1" fill="#F0C64E" opacity="0.82" transform="rotate(86 382 17)"/><rect x="297" y="27" width="9.0" height="2.2" rx="1" fill="#F2E2C2" opacity="0.70" transform="rotate(77 297 27)"/><rect x="35" y="129" width="6.5" height="2.4" rx="1" fill="#EFEFEF" opacity="0.69" transform="rotate(90 35 129)"/><rect x="392" y="90" width="4.3" height="3.2" rx="1" fill="#EFEFEF" opacity="0.67" transform="rotate(89 392 90)"/><rect x="352" y="81" width="8.2" height="2.9" rx="1" fill="#EFEFEF" opacity="0.85" transform="rotate(139 352 81)"/><rect x="343" y="37" width="7.6" height="2.1" rx="1" fill="#F2E2C2" opacity="0.55" transform="rotate(134 343 37)"/><rect x="385" y="51" width="7.1" height="2.4" rx="1" fill="#F0C64E" opacity="0.62" transform="rotate(13 385 51)"/><rect x="72" y="155" width="4.2" height="2.4" rx="1" fill="#EFEFEF" opacity="0.64" transform="rotate(53 72 155)"/><rect x="379" y="134" width="8.2" height="2.3" rx="1" fill="#2A2A2A" opacity="0.54" transform="rotate(15 379 134)"/><rect x="470" y="138" width="6.8" height="2.8" rx="1" fill="#EFCF6A" opacity="0.59" transform="rotate(63 470 138)"/><rect x="148" y="168" width="5.7" height="3.7" rx="1" fill="#2A2A2A" opacity="0.76" transform="rotate(139 148 168)"/><rect x="446" y="123" width="5.9" height="2.9" rx="1" fill="#EFEFEF" opacity="0.71" transform="rotate(96 446 123)"/><rect x="214" y="159" width="6.9" height="2.4" rx="1" fill="#EFCF6A" opacity="0.68" transform="rotate(149 214 159)"/></g>
</svg>
