<svg xmlns="http://www.w3.org/2000/svg" width="420" height="340" viewBox="0 0 420 340">
<defs><radialGradient id="bp10" cx="50%" cy="78%" r="78%"><stop offset="0%" stop-color="#FFFFFF"/><stop offset="100%" stop-color="#F3F7FB"/></radialGradient><radialGradient id="bp11" cx="50%" cy="78%" r="78%"><stop offset="0%" stop-color="#F3F7FB"/><stop offset="100%" stop-color="#DCE6F0"/></radialGradient><radialGradient id="bp12" cx="50%" cy="78%" r="78%"><stop offset="0%" stop-color="#DCE6F0"/><stop offset="100%" stop-color="#BCCBDB"/></radialGradient><radialGradient id="bp1g" cx="36%" cy="30%" r="78%"><stop offset="0%" stop-color="#FFFFFF"/><stop offset="42%" stop-color="#F3F7FB"/><stop offset="84%" stop-color="#DCE6F0"/><stop offset="100%" stop-color="#BCCBDB"/></radialGradient><radialGradient id="bp20" cx="50%" cy="78%" r="78%"><stop offset="0%" stop-color="#E3F0FB"/><stop offset="100%" stop-color="#C2DDF3"/></radialGradient><radialGradient id="bp21" cx="50%" cy="78%" r="78%"><stop offset="0%" stop-color="#C2DDF3"/><stop offset="100%" stop-color="#98C2E6"/></radialGradient><radialGradient id="bp22" cx="50%" cy="78%" r="78%"><stop offset="0%" stop-color="#98C2E6"/><stop offset="100%" stop-color="#6F9FCC"/></radialGradient><radialGradient id="bp2g" cx="36%" cy="30%" r="78%"><stop offset="0%" stop-color="#E3F0FB"/><stop offset="42%" stop-color="#C2DDF3"/><stop offset="84%" stop-color="#98C2E6"/><stop offset="100%" stop-color="#6F9FCC"/></radialGradient><radialGradient id="bp30" cx="50%" cy="78%" r="78%"><stop offset="0%" stop-color="#EEF1FA"/><stop offset="100%" stop-color="#D5DCF2"/></radialGradient><radialGradient id="bp31" cx="50%" cy="78%" r="78%"><stop offset="0%" stop-color="#D5DCF2"/><stop offset="100%" stop-color="#B2BDE3"/></radialGradient><radialGradient id="bp32" cx="50%" cy="78%" r="78%"><stop offset="0%" stop-color="#B2BDE3"/><stop offset="100%" stop-color="#8C99C8"/></radialGradient><radialGradient id="bp3g" cx="36%" cy="30%" r="78%"><stop offset="0%" stop-color="#EEF1FA"/><stop offset="42%" stop-color="#D5DCF2"/><stop offset="84%" stop-color="#B2BDE3"/><stop offset="100%" stop-color="#8C99C8"/></radialGradient><radialGradient id="bp40" cx="50%" cy="78%" r="78%"><stop offset="0%" stop-color="#DDF1F6"/><stop offset="100%" stop-color="#B5E0EB"/></radialGradient><radialGradient id="bp41" cx="50%" cy="78%" r="78%"><stop offset="0%" stop-color="#B5E0EB"/><stop offset="100%" stop-color="#86C6D8"/></radialGradient><radialGradient id="bp42" cx="50%" cy="78%" r="78%"><stop offset="0%" stop-color="#86C6D8"/><stop offset="100%" stop-color="#5DA4BA"/></radialGradient><radialGradient id="bp4g" cx="36%" cy="30%" r="78%"><stop offset="0%" stop-color="#DDF1F6"/><stop offset="42%" stop-color="#B5E0EB"/><stop offset="84%" stop-color="#86C6D8"/><stop offset="100%" stop-color="#5DA4BA"/></radialGradient><linearGradient id="bhoja" x1="0" y1="0" x2="1" y2="1"><stop offset="0%" stop-color="#B0C4C2"/><stop offset="100%" stop-color="#6F8987"/></linearGradient></defs>
<g transform="translate(0,340) scale(1,-1)"><g transform="translate(-16,26) rotate(20) scale(1.40)"><path d="M0,0 C42,-4 70,-8 105,-14" fill="none" stroke="#8FA7A6" stroke-width="2" opacity="0.8"/><ellipse cx="7" cy="-8" rx="8.5" ry="7.0" fill="url(#bhoja)" opacity="0.92"/><ellipse cx="7" cy="8" rx="8.5" ry="7.0" fill="url(#bhoja)" opacity="0.78"/><ellipse cx="22" cy="-9" rx="8.0" ry="6.5" fill="url(#bhoja)" opacity="0.92"/><ellipse cx="22" cy="7" rx="8.0" ry="6.5" fill="url(#bhoja)" opacity="0.78"/><ellipse cx="37" cy="-10" rx="7.4" ry="6.1" fill="url(#bhoja)" opacity="0.92"/><ellipse cx="37" cy="6" rx="7.4" ry="6.1" fill="url(#bhoja)" opacity="0.78"/><ellipse cx="52" cy="-12" rx="6.8" ry="5.6" fill="url(#bhoja)" opacity="0.92"/><ellipse cx="52" cy="4" rx="6.8" ry="5.6" fill="url(#bhoja)" opacity="0.78"/><ellipse cx="67" cy="-13" rx="6.3" ry="5.2" fill="url(#bhoja)" opacity="0.92"/><ellipse cx="67" cy="3" rx="6.3" ry="5.2" fill="url(#bhoja)" opacity="0.78"/><ellipse cx="82" cy="-14" rx="5.8" ry="4.7" fill="url(#bhoja)" opacity="0.92"/><ellipse cx="82" cy="2" rx="5.8" ry="4.7" fill="url(#bhoja)" opacity="0.78"/><ellipse cx="97" cy="-15" rx="5.2" ry="4.3" fill="url(#bhoja)" opacity="0.92"/><ellipse cx="97" cy="1" rx="5.2" ry="4.3" fill="url(#bhoja)" opacity="0.78"/></g><g transform="translate(34,0) rotate(58) scale(1.25)"><path d="M0,0 C36,-4 60,-8 90,-14" fill="none" stroke="#8FA7A6" stroke-width="2" opacity="0.8"/><ellipse cx="7" cy="-8" rx="8.5" ry="7.0" fill="url(#bhoja)" opacity="0.92"/><ellipse cx="7" cy="8" rx="8.5" ry="7.0" fill="url(#bhoja)" opacity="0.78"/><ellipse cx="22" cy="-9" rx="8.0" ry="6.5" fill="url(#bhoja)" opacity="0.92"/><ellipse cx="22" cy="7" rx="8.0" ry="6.5" fill="url(#bhoja)" opacity="0.78"/><ellipse cx="37" cy="-10" rx="7.4" ry="6.1" fill="url(#bhoja)" opacity="0.92"/><ellipse cx="37" cy="6" rx="7.4" ry="6.1" fill="url(#bhoja)" opacity="0.78"/><ellipse cx="52" cy="-12" rx="6.8" ry="5.6" fill="url(#bhoja)" opacity="0.92"/><ellipse cx="52" cy="4" rx="6.8" ry="5.6" fill="url(#bhoja)" opacity="0.78"/><ellipse cx="67" cy="-13" rx="6.3" ry="5.2" fill="url(#bhoja)" opacity="0.92"/><ellipse cx="67" cy="3" rx="6.3" ry="5.2" fill="url(#bhoja)" opacity="0.78"/><ellipse cx="82" cy="-14" rx="5.8" ry="4.7" fill="url(#bhoja)" opacity="0.92"/><ellipse cx="82" cy="2" rx="5.8" ry="4.7" fill="url(#bhoja)" opacity="0.78"/></g><g transform="translate(132,-12) rotate(86) scale(1.10)"><path d="M0,0 C36,-4 60,-8 90,-14" fill="none" stroke="#8FA7A6" stroke-width="2" opacity="0.8"/><ellipse cx="7" cy="-8" rx="8.5" ry="7.0" fill="url(#bhoja)" opacity="0.92"/><ellipse cx="7" cy="8" rx="8.5" ry="7.0" fill="url(#bhoja)" opacity="0.78"/><ellipse cx="22" cy="-9" rx="8.0" ry="6.5" fill="url(#bhoja)" opacity="0.92"/><ellipse cx="22" cy="7" rx="8.0" ry="6.5" fill="url(#bhoja)" opacity="0.78"/><ellipse cx="37" cy="-10" rx="7.4" ry="6.1" fill="url(#bhoja)" opacity="0.92"/><ellipse cx="37" cy="6" rx="7.4" ry="6.1" fill="url(#bhoja)" opacity="0.78"/><ellipse cx="52" cy="-12" rx="6.8" ry="5.6" fill="url(#bhoja)" opacity="0.92"/><ellipse cx="52" cy="4" rx="6.8" ry="5.6" fill="url(#bhoja)" opacity="0.78"/><ellipse cx="67" cy="-13" rx="6.3" ry="5.2" fill="url(#bhoja)" opacity="0.92"/><ellipse cx="67" cy="3" rx="6.3" ry="5.2" fill="url(#bhoja)" opacity="0.78"/><ellipse cx="82" cy="-14" rx="5.8" ry="4.7" fill="url(#bhoja)" opacity="0.92"/><ellipse cx="82" cy="2" rx="5.8" ry="4.7" fill="url(#bhoja)" opacity="0.78"/></g></g><g transform="translate(110,214) rotate(215.0) scale(2.10)"><path d="M0,0 C9,-11 22,-8 24,4 C16,14 4,11 0,0Z" fill="url(#bhoja)"/><path d="M1,1 C9,0 17,3 23,4" fill="none" stroke="#5A7270" stroke-width="0.8" opacity="0.45"/></g><g transform="translate(34,258) rotate(300.0) scale(1.90)"><path d="M0,0 C9,-11 22,-8 24,4 C16,14 4,11 0,0Z" fill="url(#bhoja)"/><path d="M1,1 C9,0 17,3 23,4" fill="none" stroke="#5A7270" stroke-width="0.8" opacity="0.45"/></g><g transform="translate(186,262) rotate(250.0) scale(1.70)"><path d="M0,0 C9,-11 22,-8 24,4 C16,14 4,11 0,0Z" fill="url(#bhoja)"/><path d="M1,1 C9,0 17,3 23,4" fill="none" stroke="#5A7270" stroke-width="0.8" opacity="0.45"/></g><circle cx="151" cy="249" r="2.3" fill="#FFFFFF" opacity="0.73"/><circle cx="155" cy="257" r="3.3" fill="#FFFFFF" opacity="0.67"/><circle cx="165" cy="241" r="2.3" fill="#FFFFFF" opacity="0.67"/><circle cx="180" cy="239" r="2.0" fill="#FFFFFF" opacity="0.66"/><circle cx="183" cy="253" r="3.3" fill="#FFFFFF" opacity="0.89"/><circle cx="149" cy="237" r="2.5" fill="#FFFFFF" opacity="0.56"/><circle cx="145" cy="239" r="3.0" fill="#FFFFFF" opacity="0.59"/><circle cx="138" cy="229" r="2.7" fill="#FFFFFF" opacity="0.78"/><circle cx="176" cy="245" r="2.8" fill="#FFFFFF" opacity="0.61"/><circle cx="152" cy="238" r="3.2" fill="#FFFFFF" opacity="0.84"/><circle cx="129" cy="223" r="3.2" fill="#FFFFFF" opacity="0.56"/><circle cx="153" cy="230" r="1.7" fill="#FFFFFF" opacity="0.84"/><circle cx="147" cy="230" r="3.0" fill="#FFFFFF" opacity="0.86"/><circle cx="143" cy="243" r="2.7" fill="#FFFFFF" opacity="0.91"/><circle cx="150" cy="237" r="3.2" fill="#FFFFFF" opacity="0.75"/><circle cx="156" cy="242" r="3.4" fill="#FFFFFF" opacity="0.94"/><circle cx="142" cy="234" r="2.8" fill="#FFFFFF" opacity="0.65"/><circle cx="176" cy="219" r="2.8" fill="#FFFFFF" opacity="0.78"/><circle cx="124" cy="258" r="2.4" fill="#FFFFFF" opacity="0.76"/><circle cx="154" cy="216" r="2.4" fill="#FFFFFF" opacity="0.87"/><circle cx="168" cy="231" r="2.0" fill="#FFFFFF" opacity="0.83"/><circle cx="175" cy="248" r="3.3" fill="#FFFFFF" opacity="0.60"/><g transform="translate(74.0,240.0) rotate(14) scale(2.40)"><ellipse cx="0" cy="2" rx="15" ry="13" fill="#5A4636" opacity="0.12"/><path d="M0,0 C-0.58,-0.30 -0.66,-1.02 0,-1.28 C0.66,-1.02 0.58,-0.30 0,0 Z" transform="rotate(-2) scale(14.6)" fill="url(#bp10)" stroke="rgba(70,50,40,0.10)" stroke-width="0.06"/><path d="M0,0 C-0.58,-0.30 -0.66,-1.02 0,-1.28 C0.66,-1.02 0.58,-0.30 0,0 Z" transform="rotate(52) scale(16.5)" fill="url(#bp10)" stroke="rgba(70,50,40,0.10)" stroke-width="0.06"/><path d="M0,0 C-0.58,-0.30 -0.66,-1.02 0,-1.28 C0.66,-1.02 0.58,-0.30 0,0 Z" transform="rotate(100) scale(14.4)" fill="url(#bp10)" stroke="rgba(70,50,40,0.10)" stroke-width="0.06"/><path d="M0,0 C-0.58,-0.30 -0.66,-1.02 0,-1.28 C0.66,-1.02 0.58,-0.30 0,0 Z" transform="rotate(156) scale(15.8)" fill="url(#bp10)" stroke="rgba(70,50,40,0.10)" stroke-width="0.06"/><path d="M0,0 C-0.58,-0.30 -0.66,-1.02 0,-1.28 C0.66,-1.02 0.58,-0.30 0,0 Z" transform="rotate(206) scale(16.0)" fill="url(#bp10)" stroke="rgba(70,50,40,0.10)" stroke-width="0.06"/><path d="M0,0 C-0.58,-0.30 -0.66,-1.02 0,-1.28 C0.66,-1.02 0.58,-0.30 0,0 Z" transform="rotate(253) scale(16.4)" fill="url(#bp10)" stroke="rgba(70,50,40,0.10)" stroke-width="0.06"/><path d="M0,0 C-0.58,-0.30 -0.66,-1.02 0,-1.28 C0.66,-1.02 0.58,-0.30 0,0 Z" transform="rotate(307) scale(15.5)" fill="url(#bp10)" stroke="rgba(70,50,40,0.10)" stroke-width="0.06"/><path d="M0,0 C-0.58,-0.30 -0.66,-1.02 0,-1.28 C0.66,-1.02 0.58,-0.30 0,0 Z" transform="rotate(28) scale(10.7)" fill="url(#bp11)" stroke="rgba(70,50,40,0.10)" stroke-width="0.06"/><path d="M0,0 C-0.58,-0.30 -0.66,-1.02 0,-1.28 C0.66,-1.02 0.58,-0.30 0,0 Z" transform="rotate(86) scale(10.9)" fill="url(#bp11)" stroke="rgba(70,50,40,0.10)" stroke-width="0.06"/><path d="M0,0 C-0.58,-0.30 -0.66,-1.02 0,-1.28 C0.66,-1.02 0.58,-0.30 0,0 Z" transform="rotate(150) scale(10.1)" fill="url(#bp11)" stroke="rgba(70,50,40,0.10)" stroke-width="0.06"/><path d="M0,0 C-0.58,-0.30 -0.66,-1.02 0,-1.28 C0.66,-1.02 0.58,-0.30 0,0 Z" transform="rotate(204) scale(11.1)" fill="url(#bp11)" stroke="rgba(70,50,40,0.10)" stroke-width="0.06"/><path d="M0,0 C-0.58,-0.30 -0.66,-1.02 0,-1.28 C0.66,-1.02 0.58,-0.30 0,0 Z" transform="rotate(265) scale(10.4)" fill="url(#bp11)" stroke="rgba(70,50,40,0.10)" stroke-width="0.06"/><path d="M0,0 C-0.58,-0.30 -0.66,-1.02 0,-1.28 C0.66,-1.02 0.58,-0.30 0,0 Z" transform="rotate(324) scale(10.0)" fill="url(#bp11)" stroke="rgba(70,50,40,0.10)" stroke-width="0.06"/><path d="M0,0 C-0.58,-0.30 -0.66,-1.02 0,-1.28 C0.66,-1.02 0.58,-0.30 0,0 Z" transform="rotate(51) scale(6.0)" fill="url(#bp12)" stroke="rgba(70,50,40,0.10)" stroke-width="0.06"/><path d="M0,0 C-0.58,-0.30 -0.66,-1.02 0,-1.28 C0.66,-1.02 0.58,-0.30 0,0 Z" transform="rotate(122) scale(6.2)" fill="url(#bp12)" stroke="rgba(70,50,40,0.10)" stroke-width="0.06"/><path d="M0,0 C-0.58,-0.30 -0.66,-1.02 0,-1.28 C0.66,-1.02 0.58,-0.30 0,0 Z" transform="rotate(195) scale(6.1)" fill="url(#bp12)" stroke="rgba(70,50,40,0.10)" stroke-width="0.06"/><path d="M0,0 C-0.58,-0.30 -0.66,-1.02 0,-1.28 C0.66,-1.02 0.58,-0.30 0,0 Z" transform="rotate(269) scale(6.5)" fill="url(#bp12)" stroke="rgba(70,50,40,0.10)" stroke-width="0.06"/><path d="M0,0 C-0.58,-0.30 -0.66,-1.02 0,-1.28 C0.66,-1.02 0.58,-0.30 0,0 Z" transform="rotate(338) scale(6.4)" fill="url(#bp12)" stroke="rgba(70,50,40,0.10)" stroke-width="0.06"/><circle r="3.6" fill="#DCE6F0"/><path d="M0,2.6 C2.6,-1 3.6,-3.6 0,-5.2 C-3.6,-3.6 -2.6,-1 0,2.6Z" fill="#BCCBDB" opacity="0.85"/><path d="M-4,-6 C-1,-9 2,-9 5,-6" fill="none" stroke="#FFFFFF" stroke-width="0.9" opacity="0.32"/></g><g transform="translate(152.0,282.0) rotate(-18) scale(2.00)"><ellipse cx="0" cy="2" rx="15" ry="13" fill="#5A4636" opacity="0.12"/><path d="M0,0 C-0.58,-0.30 -0.66,-1.02 0,-1.28 C0.66,-1.02 0.58,-0.30 0,0 Z" transform="rotate(1) scale(15.2)" fill="url(#bp30)" stroke="rgba(70,50,40,0.10)" stroke-width="0.06"/><path d="M0,0 C-0.58,-0.30 -0.66,-1.02 0,-1.28 C0.66,-1.02 0.58,-0.30 0,0 Z" transform="rotate(48) scale(14.5)" fill="url(#bp30)" stroke="rgba(70,50,40,0.10)" stroke-width="0.06"/><path d="M0,0 C-0.58,-0.30 -0.66,-1.02 0,-1.28 C0.66,-1.02 0.58,-0.30 0,0 Z" transform="rotate(99) scale(14.4)" fill="url(#bp30)" stroke="rgba(70,50,40,0.10)" stroke-width="0.06"/><path d="M0,0 C-0.58,-0.30 -0.66,-1.02 0,-1.28 C0.66,-1.02 0.58,-0.30 0,0 Z" transform="rotate(151) scale(15.2)" fill="url(#bp30)" stroke="rgba(70,50,40,0.10)" stroke-width="0.06"/><path d="M0,0 C-0.58,-0.30 -0.66,-1.02 0,-1.28 C0.66,-1.02 0.58,-0.30 0,0 Z" transform="rotate(206) scale(16.3)" fill="url(#bp30)" stroke="rgba(70,50,40,0.10)" stroke-width="0.06"/><path d="M0,0 C-0.58,-0.30 -0.66,-1.02 0,-1.28 C0.66,-1.02 0.58,-0.30 0,0 Z" transform="rotate(258) scale(16.1)" fill="url(#bp30)" stroke="rgba(70,50,40,0.10)" stroke-width="0.06"/><path d="M0,0 C-0.58,-0.30 -0.66,-1.02 0,-1.28 C0.66,-1.02 0.58,-0.30 0,0 Z" transform="rotate(307) scale(14.8)" fill="url(#bp30)" stroke="rgba(70,50,40,0.10)" stroke-width="0.06"/><path d="M0,0 C-0.58,-0.30 -0.66,-1.02 0,-1.28 C0.66,-1.02 0.58,-0.30 0,0 Z" transform="rotate(26) scale(10.3)" fill="url(#bp31)" stroke="rgba(70,50,40,0.10)" stroke-width="0.06"/><path d="M0,0 C-0.58,-0.30 -0.66,-1.02 0,-1.28 C0.66,-1.02 0.58,-0.30 0,0 Z" transform="rotate(87) scale(10.7)" fill="url(#bp31)" stroke="rgba(70,50,40,0.10)" stroke-width="0.06"/><path d="M0,0 C-0.58,-0.30 -0.66,-1.02 0,-1.28 C0.66,-1.02 0.58,-0.30 0,0 Z" transform="rotate(143) scale(10.7)" fill="url(#bp31)" stroke="rgba(70,50,40,0.10)" stroke-width="0.06"/><path d="M0,0 C-0.58,-0.30 -0.66,-1.02 0,-1.28 C0.66,-1.02 0.58,-0.30 0,0 Z" transform="rotate(205) scale(10.7)" fill="url(#bp31)" stroke="rgba(70,50,40,0.10)" stroke-width="0.06"/><path d="M0,0 C-0.58,-0.30 -0.66,-1.02 0,-1.28 C0.66,-1.02 0.58,-0.30 0,0 Z" transform="rotate(265) scale(9.9)" fill="url(#bp31)" stroke="rgba(70,50,40,0.10)" stroke-width="0.06"/><path d="M0,0 C-0.58,-0.30 -0.66,-1.02 0,-1.28 C0.66,-1.02 0.58,-0.30 0,0 Z" transform="rotate(328) scale(10.4)" fill="url(#bp31)" stroke="rgba(70,50,40,0.10)" stroke-width="0.06"/><path d="M0,0 C-0.58,-0.30 -0.66,-1.02 0,-1.28 C0.66,-1.02 0.58,-0.30 0,0 Z" transform="rotate(49) scale(6.2)" fill="url(#bp32)" stroke="rgba(70,50,40,0.10)" stroke-width="0.06"/><path d="M0,0 C-0.58,-0.30 -0.66,-1.02 0,-1.28 C0.66,-1.02 0.58,-0.30 0,0 Z" transform="rotate(120) scale(6.0)" fill="url(#bp32)" stroke="rgba(70,50,40,0.10)" stroke-width="0.06"/><path d="M0,0 C-0.58,-0.30 -0.66,-1.02 0,-1.28 C0.66,-1.02 0.58,-0.30 0,0 Z" transform="rotate(194) scale(6.8)" fill="url(#bp32)" stroke="rgba(70,50,40,0.10)" stroke-width="0.06"/><path d="M0,0 C-0.58,-0.30 -0.66,-1.02 0,-1.28 C0.66,-1.02 0.58,-0.30 0,0 Z" transform="rotate(267) scale(6.6)" fill="url(#bp32)" stroke="rgba(70,50,40,0.10)" stroke-width="0.06"/><path d="M0,0 C-0.58,-0.30 -0.66,-1.02 0,-1.28 C0.66,-1.02 0.58,-0.30 0,0 Z" transform="rotate(338) scale(6.3)" fill="url(#bp32)" stroke="rgba(70,50,40,0.10)" stroke-width="0.06"/><circle r="3.6" fill="#B2BDE3"/><path d="M0,2.6 C2.6,-1 3.6,-3.6 0,-5.2 C-3.6,-3.6 -2.6,-1 0,2.6Z" fill="#8C99C8" opacity="0.85"/><path d="M-4,-6 C-1,-9 2,-9 5,-6" fill="none" stroke="#FFFFFF" stroke-width="0.9" opacity="0.32"/></g><g transform="translate(26.0,296.0) rotate(30) scale(1.70)"><ellipse cx="0" cy="2" rx="15" ry="13" fill="#5A4636" opacity="0.12"/><path d="M0,0 C-0.58,-0.30 -0.66,-1.02 0,-1.28 C0.66,-1.02 0.58,-0.30 0,0 Z" transform="rotate(-0) scale(15.3)" fill="url(#bp20)" stroke="rgba(70,50,40,0.10)" stroke-width="0.06"/><path d="M0,0 C-0.58,-0.30 -0.66,-1.02 0,-1.28 C0.66,-1.02 0.58,-0.30 0,0 Z" transform="rotate(52) scale(15.2)" fill="url(#bp20)" stroke="rgba(70,50,40,0.10)" stroke-width="0.06"/><path d="M0,0 C-0.58,-0.30 -0.66,-1.02 0,-1.28 C0.66,-1.02 0.58,-0.30 0,0 Z" transform="rotate(100) scale(15.3)" fill="url(#bp20)" stroke="rgba(70,50,40,0.10)" stroke-width="0.06"/><path d="M0,0 C-0.58,-0.30 -0.66,-1.02 0,-1.28 C0.66,-1.02 0.58,-0.30 0,0 Z" transform="rotate(156) scale(14.4)" fill="url(#bp20)" stroke="rgba(70,50,40,0.10)" stroke-width="0.06"/><path d="M0,0 C-0.58,-0.30 -0.66,-1.02 0,-1.28 C0.66,-1.02 0.58,-0.30 0,0 Z" transform="rotate(209) scale(16.3)" fill="url(#bp20)" stroke="rgba(70,50,40,0.10)" stroke-width="0.06"/><path d="M0,0 C-0.58,-0.30 -0.66,-1.02 0,-1.28 C0.66,-1.02 0.58,-0.30 0,0 Z" transform="rotate(256) scale(14.6)" fill="url(#bp20)" stroke="rgba(70,50,40,0.10)" stroke-width="0.06"/><path d="M0,0 C-0.58,-0.30 -0.66,-1.02 0,-1.28 C0.66,-1.02 0.58,-0.30 0,0 Z" transform="rotate(311) scale(14.4)" fill="url(#bp20)" stroke="rgba(70,50,40,0.10)" stroke-width="0.06"/><path d="M0,0 C-0.58,-0.30 -0.66,-1.02 0,-1.28 C0.66,-1.02 0.58,-0.30 0,0 Z" transform="rotate(23) scale(10.3)" fill="url(#bp21)" stroke="rgba(70,50,40,0.10)" stroke-width="0.06"/><path d="M0,0 C-0.58,-0.30 -0.66,-1.02 0,-1.28 C0.66,-1.02 0.58,-0.30 0,0 Z" transform="rotate(85) scale(11.1)" fill="url(#bp21)" stroke="rgba(70,50,40,0.10)" stroke-width="0.06"/><path d="M0,0 C-0.58,-0.30 -0.66,-1.02 0,-1.28 C0.66,-1.02 0.58,-0.30 0,0 Z" transform="rotate(143) scale(10.7)" fill="url(#bp21)" stroke="rgba(70,50,40,0.10)" stroke-width="0.06"/><path d="M0,0 C-0.58,-0.30 -0.66,-1.02 0,-1.28 C0.66,-1.02 0.58,-0.30 0,0 Z" transform="rotate(204) scale(10.9)" fill="url(#bp21)" stroke="rgba(70,50,40,0.10)" stroke-width="0.06"/><path d="M0,0 C-0.58,-0.30 -0.66,-1.02 0,-1.28 C0.66,-1.02 0.58,-0.30 0,0 Z" transform="rotate(265) scale(11.2)" fill="url(#bp21)" stroke="rgba(70,50,40,0.10)" stroke-width="0.06"/><path d="M0,0 C-0.58,-0.30 -0.66,-1.02 0,-1.28 C0.66,-1.02 0.58,-0.30 0,0 Z" transform="rotate(327) scale(11.1)" fill="url(#bp21)" stroke="rgba(70,50,40,0.10)" stroke-width="0.06"/><path d="M0,0 C-0.58,-0.30 -0.66,-1.02 0,-1.28 C0.66,-1.02 0.58,-0.30 0,0 Z" transform="rotate(50) scale(6.1)" fill="url(#bp22)" stroke="rgba(70,50,40,0.10)" stroke-width="0.06"/><path d="M0,0 C-0.58,-0.30 -0.66,-1.02 0,-1.28 C0.66,-1.02 0.58,-0.30 0,0 Z" transform="rotate(120) scale(6.5)" fill="url(#bp22)" stroke="rgba(70,50,40,0.10)" stroke-width="0.06"/><path d="M0,0 C-0.58,-0.30 -0.66,-1.02 0,-1.28 C0.66,-1.02 0.58,-0.30 0,0 Z" transform="rotate(194) scale(6.1)" fill="url(#bp22)" stroke="rgba(70,50,40,0.10)" stroke-width="0.06"/><path d="M0,0 C-0.58,-0.30 -0.66,-1.02 0,-1.28 C0.66,-1.02 0.58,-0.30 0,0 Z" transform="rotate(269) scale(6.2)" fill="url(#bp22)" stroke="rgba(70,50,40,0.10)" stroke-width="0.06"/><path d="M0,0 C-0.58,-0.30 -0.66,-1.02 0,-1.28 C0.66,-1.02 0.58,-0.30 0,0 Z" transform="rotate(336) scale(6.8)" fill="url(#bp22)" stroke="rgba(70,50,40,0.10)" stroke-width="0.06"/><circle r="3.6" fill="#98C2E6"/><path d="M0,2.6 C2.6,-1 3.6,-3.6 0,-5.2 C-3.6,-3.6 -2.6,-1 0,2.6Z" fill="#6F9FCC" opacity="0.85"/><path d="M-4,-6 C-1,-9 2,-9 5,-6" fill="none" stroke="#FFFFFF" stroke-width="0.9" opacity="0.32"/></g><g transform="translate(112.0,190.0) rotate(-6) scale(1.40)"><ellipse cx="0" cy="2" rx="15" ry="13" fill="#5A4636" opacity="0.12"/><path d="M0,0 C-0.58,-0.30 -0.66,-1.02 0,-1.28 C0.66,-1.02 0.58,-0.30 0,0 Z" transform="rotate(-2) scale(15.3)" fill="url(#bp40)" stroke="rgba(70,50,40,0.10)" stroke-width="0.06"/><path d="M0,0 C-0.58,-0.30 -0.66,-1.02 0,-1.28 C0.66,-1.02 0.58,-0.30 0,0 Z" transform="rotate(51) scale(15.4)" fill="url(#bp40)" stroke="rgba(70,50,40,0.10)" stroke-width="0.06"/><path d="M0,0 C-0.58,-0.30 -0.66,-1.02 0,-1.28 C0.66,-1.02 0.58,-0.30 0,0 Z" transform="rotate(101) scale(15.8)" fill="url(#bp40)" stroke="rgba(70,50,40,0.10)" stroke-width="0.06"/><path d="M0,0 C-0.58,-0.30 -0.66,-1.02 0,-1.28 C0.66,-1.02 0.58,-0.30 0,0 Z" transform="rotate(158) scale(15.1)" fill="url(#bp40)" stroke="rgba(70,50,40,0.10)" stroke-width="0.06"/><path d="M0,0 C-0.58,-0.30 -0.66,-1.02 0,-1.28 C0.66,-1.02 0.58,-0.30 0,0 Z" transform="rotate(202) scale(15.2)" fill="url(#bp40)" stroke="rgba(70,50,40,0.10)" stroke-width="0.06"/><path d="M0,0 C-0.58,-0.30 -0.66,-1.02 0,-1.28 C0.66,-1.02 0.58,-0.30 0,0 Z" transform="rotate(256) scale(15.1)" fill="url(#bp40)" stroke="rgba(70,50,40,0.10)" stroke-width="0.06"/><path d="M0,0 C-0.58,-0.30 -0.66,-1.02 0,-1.28 C0.66,-1.02 0.58,-0.30 0,0 Z" transform="rotate(305) scale(16.0)" fill="url(#bp40)" stroke="rgba(70,50,40,0.10)" stroke-width="0.06"/><path d="M0,0 C-0.58,-0.30 -0.66,-1.02 0,-1.28 C0.66,-1.02 0.58,-0.30 0,0 Z" transform="rotate(24) scale(10.2)" fill="url(#bp41)" stroke="rgba(70,50,40,0.10)" stroke-width="0.06"/><path d="M0,0 C-0.58,-0.30 -0.66,-1.02 0,-1.28 C0.66,-1.02 0.58,-0.30 0,0 Z" transform="rotate(83) scale(11.2)" fill="url(#bp41)" stroke="rgba(70,50,40,0.10)" stroke-width="0.06"/><path d="M0,0 C-0.58,-0.30 -0.66,-1.02 0,-1.28 C0.66,-1.02 0.58,-0.30 0,0 Z" transform="rotate(150) scale(11.0)" fill="url(#bp41)" stroke="rgba(70,50,40,0.10)" stroke-width="0.06"/><path d="M0,0 C-0.58,-0.30 -0.66,-1.02 0,-1.28 C0.66,-1.02 0.58,-0.30 0,0 Z" transform="rotate(205) scale(9.8)" fill="url(#bp41)" stroke="rgba(70,50,40,0.10)" stroke-width="0.06"/><path d="M0,0 C-0.58,-0.30 -0.66,-1.02 0,-1.28 C0.66,-1.02 0.58,-0.30 0,0 Z" transform="rotate(266) scale(9.8)" fill="url(#bp41)" stroke="rgba(70,50,40,0.10)" stroke-width="0.06"/><path d="M0,0 C-0.58,-0.30 -0.66,-1.02 0,-1.28 C0.66,-1.02 0.58,-0.30 0,0 Z" transform="rotate(325) scale(10.0)" fill="url(#bp41)" stroke="rgba(70,50,40,0.10)" stroke-width="0.06"/><path d="M0,0 C-0.58,-0.30 -0.66,-1.02 0,-1.28 C0.66,-1.02 0.58,-0.30 0,0 Z" transform="rotate(54) scale(6.0)" fill="url(#bp42)" stroke="rgba(70,50,40,0.10)" stroke-width="0.06"/><path d="M0,0 C-0.58,-0.30 -0.66,-1.02 0,-1.28 C0.66,-1.02 0.58,-0.30 0,0 Z" transform="rotate(125) scale(6.3)" fill="url(#bp42)" stroke="rgba(70,50,40,0.10)" stroke-width="0.06"/><path d="M0,0 C-0.58,-0.30 -0.66,-1.02 0,-1.28 C0.66,-1.02 0.58,-0.30 0,0 Z" transform="rotate(197) scale(6.5)" fill="url(#bp42)" stroke="rgba(70,50,40,0.10)" stroke-width="0.06"/><path d="M0,0 C-0.58,-0.30 -0.66,-1.02 0,-1.28 C0.66,-1.02 0.58,-0.30 0,0 Z" transform="rotate(265) scale(6.6)" fill="url(#bp42)" stroke="rgba(70,50,40,0.10)" stroke-width="0.06"/><path d="M0,0 C-0.58,-0.30 -0.66,-1.02 0,-1.28 C0.66,-1.02 0.58,-0.30 0,0 Z" transform="rotate(341) scale(6.1)" fill="url(#bp42)" stroke="rgba(70,50,40,0.10)" stroke-width="0.06"/><circle r="3.6" fill="#86C6D8"/><path d="M0,2.6 C2.6,-1 3.6,-3.6 0,-5.2 C-3.6,-3.6 -2.6,-1 0,2.6Z" fill="#5DA4BA" opacity="0.85"/><path d="M-4,-6 C-1,-9 2,-9 5,-6" fill="none" stroke="#FFFFFF" stroke-width="0.9" opacity="0.32"/></g><g transform="translate(200,224) rotate(150) scale(1.30)"><path d="M0,10 C-7,4 -7,-8 0,-12 C7,-8 7,4 0,10Z" fill="url(#bp30)"/><path d="M0,9 C-3,3 -3,-7 0,-11" fill="none" stroke="#B2BDE3" stroke-width="1.1" opacity="0.7"/><path d="M-5,9 C-2,14 2,14 5,9 L0,13Z" fill="#8FA7A6"/></g><g><circle cx="25" cy="111" r="2.0" fill="#B9C3CE" opacity="0.55"/><circle cx="414" cy="110" r="2.3" fill="#B9C3CE" opacity="0.46"/><circle cx="222" cy="280" r="1.3" fill="#B9C3CE" opacity="0.44"/><circle cx="242" cy="135" r="2.2" fill="#B9C3CE" opacity="0.28"/><circle cx="40" cy="171" r="2.5" fill="#B9C3CE" opacity="0.58"/><circle cx="196" cy="66" r="1.2" fill="#B9C3CE" opacity="0.31"/><circle cx="255" cy="98" r="1.4" fill="#B9C3CE" opacity="0.60"/><circle cx="114" cy="327" r="2.9" fill="#B9C3CE" opacity="0.44"/><circle cx="65" cy="90" r="2.8" fill="#B9C3CE" opacity="0.60"/><circle cx="1" cy="105" r="2.9" fill="#B9C3CE" opacity="0.63"/><circle cx="207" cy="133" r="1.5" fill="#B9C3CE" opacity="0.37"/><circle cx="356" cy="22" r="1.8" fill="#B9C3CE" opacity="0.45"/><circle cx="219" cy="316" r="2.1" fill="#B9C3CE" opacity="0.34"/><circle cx="43" cy="235" r="2.3" fill="#B9C3CE" opacity="0.56"/><circle cx="373" cy="0" r="1.7" fill="#B9C3CE" opacity="0.44"/><circle cx="61" cy="122" r="2.6" fill="#B9C3CE" opacity="0.32"/></g>
</svg>
