<svg xmlns="http://www.w3.org/2000/svg" width="1600" height="170" viewBox="0 0 1600 170">
<defs><radialGradient id="cp10" cx="50%" cy="78%" r="78%"><stop offset="0%" stop-color="#FFFFFF"/><stop offset="100%" stop-color="#F7F3F8"/></radialGradient><radialGradient id="cp11" cx="50%" cy="78%" r="78%"><stop offset="0%" stop-color="#F7F3F8"/><stop offset="100%" stop-color="#E4DBE8"/></radialGradient><radialGradient id="cp12" cx="50%" cy="78%" r="78%"><stop offset="0%" stop-color="#E4DBE8"/><stop offset="100%" stop-color="#C6B8CF"/></radialGradient><radialGradient id="cp1g" cx="36%" cy="30%" r="78%"><stop offset="0%" stop-color="#FFFFFF"/><stop offset="42%" stop-color="#F7F3F8"/><stop offset="84%" stop-color="#E4DBE8"/><stop offset="100%" stop-color="#C6B8CF"/></radialGradient><radialGradient id="cp20" cx="50%" cy="78%" r="78%"><stop offset="0%" stop-color="#F1E8FA"/><stop offset="100%" stop-color="#DCCDEE"/></radialGradient><radialGradient id="cp21" cx="50%" cy="78%" r="78%"><stop offset="0%" stop-color="#DCCDEE"/><stop offset="100%" stop-color="#BFA9DC"/></radialGradient><radialGradient id="cp22" cx="50%" cy="78%" r="78%"><stop offset="0%" stop-color="#BFA9DC"/><stop offset="100%" stop-color="#9C84C0"/></radialGradient><radialGradient id="cp2g" cx="36%" cy="30%" r="78%"><stop offset="0%" stop-color="#F1E8FA"/><stop offset="42%" stop-color="#DCCDEE"/><stop offset="84%" stop-color="#BFA9DC"/><stop offset="100%" stop-color="#9C84C0"/></radialGradient><radialGradient id="cp30" cx="50%" cy="78%" r="78%"><stop offset="0%" stop-color="#FBF1EC"/><stop offset="100%" stop-color="#F0DCD4"/></radialGradient><radialGradient id="cp31" cx="50%" cy="78%" r="78%"><stop offset="0%" stop-color="#F0DCD4"/><stop offset="100%" stop-color="#DCBFB4"/></radialGradient><radialGradient id="cp32" cx="50%" cy="78%" r="78%"><stop offset="0%" stop-color="#DCBFB4"/><stop offset="100%" stop-color="#BB9C90"/></radialGradient><radialGradient id="cp3g" cx="36%" cy="30%" r="78%"><stop offset="0%" stop-color="#FBF1EC"/><stop offset="42%" stop-color="#F0DCD4"/><stop offset="84%" stop-color="#DCBFB4"/><stop offset="100%" stop-color="#BB9C90"/></radialGradient><radialGradient id="cp40" cx="50%" cy="78%" r="78%"><stop offset="0%" stop-color="#FFF7E6"/><stop offset="100%" stop-color="#F6E6C2"/></radialGradient><radialGradient id="cp41" cx="50%" cy="78%" r="78%"><stop offset="0%" stop-color="#F6E6C2"/><stop offset="100%" stop-color="#E3C995"/></radialGradient><radialGradient id="cp42" cx="50%" cy="78%" r="78%"><stop offset="0%" stop-color="#E3C995"/><stop offset="100%" stop-color="#C2A568"/></radialGradient><radialGradient id="cp4g" cx="36%" cy="30%" r="78%"><stop offset="0%" stop-color="#FFF7E6"/><stop offset="42%" stop-color="#F6E6C2"/><stop offset="84%" stop-color="#E3C995"/><stop offset="100%" stop-color="#C2A568"/></radialGradient><linearGradient id="choja" x1="0" y1="0" x2="1" y2="1"><stop offset="0%" stop-color="#6D8A80"/><stop offset="100%" stop-color="#34504A"/></linearGradient><linearGradient id="coro" x1="0" y1="0" x2="1" y2="1"><stop offset="0%" stop-color="#FFF1C4"/><stop offset="50%" stop-color="#E9C46A"/><stop offset="100%" stop-color="#B8903A"/></linearGradient><linearGradient id="clin" x1="0" y1="0" x2="0" y2="1"><stop offset="0%" stop-color="#FFF0C2"/><stop offset="55%" stop-color="#F6C065"/><stop offset="100%" stop-color="#D98A3A"/></linearGradient><radialGradient id="chalo"><stop offset="0%" stop-color="#FFBE6A" stop-opacity="0.55"/><stop offset="45%" stop-color="#FFBE6A" stop-opacity="0.18"/><stop offset="100%" stop-color="#FFBE6A" stop-opacity="0"/></radialGradient><linearGradient id="ctorre" x1="0" y1="0" x2="0" y2="1"><stop offset="0%" stop-color="#4A3178"/><stop offset="100%" stop-color="#231339"/></linearGradient></defs>
<g><path d="M0,-6 L1.1,-1.1 L6,0 L1.1,1.1 L0,6 L-1.1,1.1 L-6,0 L-1.1,-1.1Z" transform="translate(447,120) scale(0.64)" fill="#F6DB94" opacity="0.48"/><path d="M0,-6 L1.1,-1.1 L6,0 L1.1,1.1 L0,6 L-1.1,1.1 L-6,0 L-1.1,-1.1Z" transform="translate(258,57) scale(0.49)" fill="#F6DB94" opacity="0.49"/><path d="M0,-6 L1.1,-1.1 L6,0 L1.1,1.1 L0,6 L-1.1,1.1 L-6,0 L-1.1,-1.1Z" transform="translate(197,58) scale(0.74)" fill="#FFFFFF" opacity="0.77"/><path d="M0,-6 L1.1,-1.1 L6,0 L1.1,1.1 L0,6 L-1.1,1.1 L-6,0 L-1.1,-1.1Z" transform="translate(152,13) scale(0.64)" fill="#FFFFFF" opacity="0.52"/><path d="M0,-6 L1.1,-1.1 L6,0 L1.1,1.1 L0,6 L-1.1,1.1 L-6,0 L-1.1,-1.1Z" transform="translate(436,15) scale(0.57)" fill="#F6DB94" opacity="0.66"/><path d="M0,-6 L1.1,-1.1 L6,0 L1.1,1.1 L0,6 L-1.1,1.1 L-6,0 L-1.1,-1.1Z" transform="translate(121,19) scale(0.80)" fill="#FFFFFF" opacity="0.46"/><path d="M0,-6 L1.1,-1.1 L6,0 L1.1,1.1 L0,6 L-1.1,1.1 L-6,0 L-1.1,-1.1Z" transform="translate(330,70) scale(0.82)" fill="#FFFFFF" opacity="0.62"/><path d="M0,-6 L1.1,-1.1 L6,0 L1.1,1.1 L0,6 L-1.1,1.1 L-6,0 L-1.1,-1.1Z" transform="translate(342,34) scale(0.96)" fill="#F6DB94" opacity="0.74"/><path d="M0,-6 L1.1,-1.1 L6,0 L1.1,1.1 L0,6 L-1.1,1.1 L-6,0 L-1.1,-1.1Z" transform="translate(510,77) scale(0.60)" fill="#F6DB94" opacity="0.90"/><path d="M0,-6 L1.1,-1.1 L6,0 L1.1,1.1 L0,6 L-1.1,1.1 L-6,0 L-1.1,-1.1Z" transform="translate(147,129) scale(0.66)" fill="#FFFFFF" opacity="0.93"/><path d="M0,-6 L1.1,-1.1 L6,0 L1.1,1.1 L0,6 L-1.1,1.1 L-6,0 L-1.1,-1.1Z" transform="translate(127,54) scale(0.83)" fill="#FFFFFF" opacity="0.65"/><path d="M0,-6 L1.1,-1.1 L6,0 L1.1,1.1 L0,6 L-1.1,1.1 L-6,0 L-1.1,-1.1Z" transform="translate(232,64) scale(0.99)" fill="#FFFFFF" opacity="0.48"/><path d="M0,-6 L1.1,-1.1 L6,0 L1.1,1.1 L0,6 L-1.1,1.1 L-6,0 L-1.1,-1.1Z" transform="translate(348,78) scale(0.77)" fill="#FFFFFF" opacity="0.52"/><path d="M0,-6 L1.1,-1.1 L6,0 L1.1,1.1 L0,6 L-1.1,1.1 L-6,0 L-1.1,-1.1Z" transform="translate(29,85) scale(0.59)" fill="#F6DB94" opacity="0.54"/><path d="M0,-6 L1.1,-1.1 L6,0 L1.1,1.1 L0,6 L-1.1,1.1 L-6,0 L-1.1,-1.1Z" transform="translate(351,103) scale(0.88)" fill="#FFFFFF" opacity="0.66"/><path d="M0,-6 L1.1,-1.1 L6,0 L1.1,1.1 L0,6 L-1.1,1.1 L-6,0 L-1.1,-1.1Z" transform="translate(387,141) scale(0.79)" fill="#FFFFFF" opacity="0.57"/><path d="M0,-6 L1.1,-1.1 L6,0 L1.1,1.1 L0,6 L-1.1,1.1 L-6,0 L-1.1,-1.1Z" transform="translate(223,60) scale(0.53)" fill="#F6DB94" opacity="0.91"/><path d="M0,-6 L1.1,-1.1 L6,0 L1.1,1.1 L0,6 L-1.1,1.1 L-6,0 L-1.1,-1.1Z" transform="translate(457,154) scale(0.47)" fill="#FFFFFF" opacity="0.81"/><path d="M0,-6 L1.1,-1.1 L6,0 L1.1,1.1 L0,6 L-1.1,1.1 L-6,0 L-1.1,-1.1Z" transform="translate(174,127) scale(0.37)" fill="#F6DB94" opacity="0.77"/><path d="M0,-6 L1.1,-1.1 L6,0 L1.1,1.1 L0,6 L-1.1,1.1 L-6,0 L-1.1,-1.1Z" transform="translate(53,40) scale(0.90)" fill="#F6DB94" opacity="0.82"/><path d="M0,-6 L1.1,-1.1 L6,0 L1.1,1.1 L0,6 L-1.1,1.1 L-6,0 L-1.1,-1.1Z" transform="translate(383,135) scale(0.73)" fill="#F6DB94" opacity="0.47"/><path d="M0,-6 L1.1,-1.1 L6,0 L1.1,1.1 L0,6 L-1.1,1.1 L-6,0 L-1.1,-1.1Z" transform="translate(310,59) scale(0.37)" fill="#F6DB94" opacity="0.89"/></g><g transform="translate(1088,0)"><path d="M0,-6 L1.1,-1.1 L6,0 L1.1,1.1 L0,6 L-1.1,1.1 L-6,0 L-1.1,-1.1Z" transform="translate(238,123) scale(0.45)" fill="#FFFFFF" opacity="0.67"/><path d="M0,-6 L1.1,-1.1 L6,0 L1.1,1.1 L0,6 L-1.1,1.1 L-6,0 L-1.1,-1.1Z" transform="translate(461,74) scale(0.73)" fill="#F6DB94" opacity="0.69"/><path d="M0,-6 L1.1,-1.1 L6,0 L1.1,1.1 L0,6 L-1.1,1.1 L-6,0 L-1.1,-1.1Z" transform="translate(163,90) scale(0.37)" fill="#FFFFFF" opacity="0.52"/><path d="M0,-6 L1.1,-1.1 L6,0 L1.1,1.1 L0,6 L-1.1,1.1 L-6,0 L-1.1,-1.1Z" transform="translate(486,83) scale(0.50)" fill="#FFFFFF" opacity="0.51"/><path d="M0,-6 L1.1,-1.1 L6,0 L1.1,1.1 L0,6 L-1.1,1.1 L-6,0 L-1.1,-1.1Z" transform="translate(357,162) scale(0.94)" fill="#F6DB94" opacity="0.69"/><path d="M0,-6 L1.1,-1.1 L6,0 L1.1,1.1 L0,6 L-1.1,1.1 L-6,0 L-1.1,-1.1Z" transform="translate(330,126) scale(0.52)" fill="#FFFFFF" opacity="0.63"/><path d="M0,-6 L1.1,-1.1 L6,0 L1.1,1.1 L0,6 L-1.1,1.1 L-6,0 L-1.1,-1.1Z" transform="translate(36,91) scale(0.40)" fill="#F6DB94" opacity="0.81"/><path d="M0,-6 L1.1,-1.1 L6,0 L1.1,1.1 L0,6 L-1.1,1.1 L-6,0 L-1.1,-1.1Z" transform="translate(352,6) scale(0.99)" fill="#F6DB94" opacity="0.51"/><path d="M0,-6 L1.1,-1.1 L6,0 L1.1,1.1 L0,6 L-1.1,1.1 L-6,0 L-1.1,-1.1Z" transform="translate(471,33) scale(0.66)" fill="#F6DB94" opacity="0.73"/><path d="M0,-6 L1.1,-1.1 L6,0 L1.1,1.1 L0,6 L-1.1,1.1 L-6,0 L-1.1,-1.1Z" transform="translate(214,147) scale(0.39)" fill="#FFFFFF" opacity="0.62"/><path d="M0,-6 L1.1,-1.1 L6,0 L1.1,1.1 L0,6 L-1.1,1.1 L-6,0 L-1.1,-1.1Z" transform="translate(163,57) scale(0.90)" fill="#FFFFFF" opacity="0.73"/><path d="M0,-6 L1.1,-1.1 L6,0 L1.1,1.1 L0,6 L-1.1,1.1 L-6,0 L-1.1,-1.1Z" transform="translate(315,88) scale(0.96)" fill="#FFFFFF" opacity="0.48"/><path d="M0,-6 L1.1,-1.1 L6,0 L1.1,1.1 L0,6 L-1.1,1.1 L-6,0 L-1.1,-1.1Z" transform="translate(489,163) scale(0.82)" fill="#F6DB94" opacity="0.69"/><path d="M0,-6 L1.1,-1.1 L6,0 L1.1,1.1 L0,6 L-1.1,1.1 L-6,0 L-1.1,-1.1Z" transform="translate(451,54) scale(0.87)" fill="#F6DB94" opacity="0.89"/><path d="M0,-6 L1.1,-1.1 L6,0 L1.1,1.1 L0,6 L-1.1,1.1 L-6,0 L-1.1,-1.1Z" transform="translate(217,28) scale(0.39)" fill="#F6DB94" opacity="0.82"/><path d="M0,-6 L1.1,-1.1 L6,0 L1.1,1.1 L0,6 L-1.1,1.1 L-6,0 L-1.1,-1.1Z" transform="translate(170,157) scale(0.58)" fill="#FFFFFF" opacity="0.55"/><path d="M0,-6 L1.1,-1.1 L6,0 L1.1,1.1 L0,6 L-1.1,1.1 L-6,0 L-1.1,-1.1Z" transform="translate(495,19) scale(0.78)" fill="#F6DB94" opacity="0.47"/><path d="M0,-6 L1.1,-1.1 L6,0 L1.1,1.1 L0,6 L-1.1,1.1 L-6,0 L-1.1,-1.1Z" transform="translate(490,84) scale(0.90)" fill="#FFFFFF" opacity="0.71"/><path d="M0,-6 L1.1,-1.1 L6,0 L1.1,1.1 L0,6 L-1.1,1.1 L-6,0 L-1.1,-1.1Z" transform="translate(97,130) scale(0.48)" fill="#F6DB94" opacity="0.76"/><path d="M0,-6 L1.1,-1.1 L6,0 L1.1,1.1 L0,6 L-1.1,1.1 L-6,0 L-1.1,-1.1Z" transform="translate(307,168) scale(0.84)" fill="#FFFFFF" opacity="0.66"/><path d="M0,-6 L1.1,-1.1 L6,0 L1.1,1.1 L0,6 L-1.1,1.1 L-6,0 L-1.1,-1.1Z" transform="translate(388,140) scale(0.81)" fill="#FFFFFF" opacity="0.71"/><path d="M0,-6 L1.1,-1.1 L6,0 L1.1,1.1 L0,6 L-1.1,1.1 L-6,0 L-1.1,-1.1Z" transform="translate(272,163) scale(0.35)" fill="#F6DB94" opacity="0.88"/></g><ellipse cx="-19.5" cy="20.3" rx="7.5" ry="3.2" transform="rotate(-24 -19.5 20.3)" fill="url(#coro)" stroke="#9C7630" stroke-width="0.5"/><ellipse cx="-13.1" cy="25.8" rx="7.5" ry="3.2" transform="rotate(55 -13.1 25.8)" fill="url(#coro)" stroke="#9C7630" stroke-width="0.5"/><ellipse cx="-4.7" cy="24.2" rx="7.5" ry="3.2" transform="rotate(-26 -4.7 24.2)" fill="url(#coro)" stroke="#9C7630" stroke-width="0.5"/><ellipse cx="1.8" cy="29.6" rx="7.5" ry="3.2" transform="rotate(54 1.8 29.6)" fill="url(#coro)" stroke="#9C7630" stroke-width="0.5"/><ellipse cx="10.1" cy="27.9" rx="7.5" ry="3.2" transform="rotate(-27 10.1 27.9)" fill="url(#coro)" stroke="#9C7630" stroke-width="0.5"/><ellipse cx="16.7" cy="33.1" rx="7.5" ry="3.2" transform="rotate(52 16.7 33.1)" fill="url(#coro)" stroke="#9C7630" stroke-width="0.5"/><ellipse cx="24.8" cy="31.1" rx="7.5" ry="3.2" transform="rotate(-28 24.8 31.1)" fill="url(#coro)" stroke="#9C7630" stroke-width="0.5"/><ellipse cx="31.5" cy="36.2" rx="7.5" ry="3.2" transform="rotate(51 31.5 36.2)" fill="url(#coro)" stroke="#9C7630" stroke-width="0.5"/><ellipse cx="39.6" cy="34.1" rx="7.5" ry="3.2" transform="rotate(-29 39.6 34.1)" fill="url(#coro)" stroke="#9C7630" stroke-width="0.5"/><ellipse cx="46.3" cy="38.9" rx="7.5" ry="3.2" transform="rotate(50 46.3 38.9)" fill="url(#coro)" stroke="#9C7630" stroke-width="0.5"/><ellipse cx="54.3" cy="36.7" rx="7.5" ry="3.2" transform="rotate(-31 54.3 36.7)" fill="url(#coro)" stroke="#9C7630" stroke-width="0.5"/><ellipse cx="61.1" cy="41.4" rx="7.5" ry="3.2" transform="rotate(49 61.1 41.4)" fill="url(#coro)" stroke="#9C7630" stroke-width="0.5"/><ellipse cx="69.0" cy="39.0" rx="7.5" ry="3.2" transform="rotate(-32 69.0 39.0)" fill="url(#coro)" stroke="#9C7630" stroke-width="0.5"/><ellipse cx="75.8" cy="43.6" rx="7.5" ry="3.2" transform="rotate(48 75.8 43.6)" fill="url(#coro)" stroke="#9C7630" stroke-width="0.5"/><ellipse cx="83.6" cy="41.0" rx="7.5" ry="3.2" transform="rotate(-33 83.6 41.0)" fill="url(#coro)" stroke="#9C7630" stroke-width="0.5"/><ellipse cx="90.5" cy="45.5" rx="7.5" ry="3.2" transform="rotate(47 90.5 45.5)" fill="url(#coro)" stroke="#9C7630" stroke-width="0.5"/><ellipse cx="98.2" cy="42.7" rx="7.5" ry="3.2" transform="rotate(-34 98.2 42.7)" fill="url(#coro)" stroke="#9C7630" stroke-width="0.5"/><ellipse cx="105.1" cy="47.1" rx="7.5" ry="3.2" transform="rotate(46 105.1 47.1)" fill="url(#coro)" stroke="#9C7630" stroke-width="0.5"/><ellipse cx="112.7" cy="44.2" rx="7.5" ry="3.2" transform="rotate(-35 112.7 44.2)" fill="url(#coro)" stroke="#9C7630" stroke-width="0.5"/><ellipse cx="119.7" cy="48.4" rx="7.5" ry="3.2" transform="rotate(45 119.7 48.4)" fill="url(#coro)" stroke="#9C7630" stroke-width="0.5"/><ellipse cx="127.2" cy="45.4" rx="7.5" ry="3.2" transform="rotate(-36 127.2 45.4)" fill="url(#coro)" stroke="#9C7630" stroke-width="0.5"/><ellipse cx="134.1" cy="49.6" rx="7.5" ry="3.2" transform="rotate(44 134.1 49.6)" fill="url(#coro)" stroke="#9C7630" stroke-width="0.5"/><ellipse cx="141.6" cy="46.4" rx="7.5" ry="3.2" transform="rotate(-36 141.6 46.4)" fill="url(#coro)" stroke="#9C7630" stroke-width="0.5"/><ellipse cx="148.5" cy="50.5" rx="7.5" ry="3.2" transform="rotate(43 148.5 50.5)" fill="url(#coro)" stroke="#9C7630" stroke-width="0.5"/><ellipse cx="155.9" cy="47.2" rx="7.5" ry="3.2" transform="rotate(-37 155.9 47.2)" fill="url(#coro)" stroke="#9C7630" stroke-width="0.5"/><ellipse cx="162.8" cy="51.1" rx="7.5" ry="3.2" transform="rotate(42 162.8 51.1)" fill="url(#coro)" stroke="#9C7630" stroke-width="0.5"/><ellipse cx="170.1" cy="47.8" rx="7.5" ry="3.2" transform="rotate(-38 170.1 47.8)" fill="url(#coro)" stroke="#9C7630" stroke-width="0.5"/><ellipse cx="177.0" cy="51.6" rx="7.5" ry="3.2" transform="rotate(42 177.0 51.6)" fill="url(#coro)" stroke="#9C7630" stroke-width="0.5"/><ellipse cx="184.2" cy="48.2" rx="7.5" ry="3.2" transform="rotate(-39 184.2 48.2)" fill="url(#coro)" stroke="#9C7630" stroke-width="0.5"/><ellipse cx="191.2" cy="52.0" rx="7.5" ry="3.2" transform="rotate(41 191.2 52.0)" fill="url(#coro)" stroke="#9C7630" stroke-width="0.5"/><ellipse cx="198.2" cy="48.5" rx="7.5" ry="3.2" transform="rotate(-39 198.2 48.5)" fill="url(#coro)" stroke="#9C7630" stroke-width="0.5"/><ellipse cx="205.1" cy="52.1" rx="7.5" ry="3.2" transform="rotate(40 205.1 52.1)" fill="url(#coro)" stroke="#9C7630" stroke-width="0.5"/><ellipse cx="212.1" cy="48.5" rx="7.5" ry="3.2" transform="rotate(-40 212.1 48.5)" fill="url(#coro)" stroke="#9C7630" stroke-width="0.5"/><ellipse cx="219.0" cy="52.1" rx="7.5" ry="3.2" transform="rotate(40 219.0 52.1)" fill="url(#coro)" stroke="#9C7630" stroke-width="0.5"/><ellipse cx="225.9" cy="48.5" rx="7.5" ry="3.2" transform="rotate(-41 225.9 48.5)" fill="url(#coro)" stroke="#9C7630" stroke-width="0.5"/><ellipse cx="232.8" cy="52.0" rx="7.5" ry="3.2" transform="rotate(39 232.8 52.0)" fill="url(#coro)" stroke="#9C7630" stroke-width="0.5"/><ellipse cx="239.5" cy="48.3" rx="7.5" ry="3.2" transform="rotate(-41 239.5 48.3)" fill="url(#coro)" stroke="#9C7630" stroke-width="0.5"/><ellipse cx="246.4" cy="51.7" rx="7.5" ry="3.2" transform="rotate(39 246.4 51.7)" fill="url(#coro)" stroke="#9C7630" stroke-width="0.5"/><ellipse cx="253.0" cy="48.0" rx="7.5" ry="3.2" transform="rotate(-41 253.0 48.0)" fill="url(#coro)" stroke="#9C7630" stroke-width="0.5"/><ellipse cx="259.8" cy="51.4" rx="7.5" ry="3.2" transform="rotate(38 259.8 51.4)" fill="url(#coro)" stroke="#9C7630" stroke-width="0.5"/><ellipse cx="266.4" cy="47.6" rx="7.5" ry="3.2" transform="rotate(-42 266.4 47.6)" fill="url(#coro)" stroke="#9C7630" stroke-width="0.5"/><ellipse cx="273.2" cy="51.0" rx="7.5" ry="3.2" transform="rotate(38 273.2 51.0)" fill="url(#coro)" stroke="#9C7630" stroke-width="0.5"/><ellipse cx="279.6" cy="47.1" rx="7.5" ry="3.2" transform="rotate(-42 279.6 47.1)" fill="url(#coro)" stroke="#9C7630" stroke-width="0.5"/><ellipse cx="286.3" cy="50.5" rx="7.5" ry="3.2" transform="rotate(38 286.3 50.5)" fill="url(#coro)" stroke="#9C7630" stroke-width="0.5"/><ellipse cx="292.7" cy="46.6" rx="7.5" ry="3.2" transform="rotate(-42 292.7 46.6)" fill="url(#coro)" stroke="#9C7630" stroke-width="0.5"/><ellipse cx="299.3" cy="49.9" rx="7.5" ry="3.2" transform="rotate(37 299.3 49.9)" fill="url(#coro)" stroke="#9C7630" stroke-width="0.5"/><ellipse cx="305.6" cy="46.0" rx="7.5" ry="3.2" transform="rotate(-43 305.6 46.0)" fill="url(#coro)" stroke="#9C7630" stroke-width="0.5"/><ellipse cx="312.1" cy="49.3" rx="7.5" ry="3.2" transform="rotate(37 312.1 49.3)" fill="url(#coro)" stroke="#9C7630" stroke-width="0.5"/><ellipse cx="318.3" cy="45.4" rx="7.5" ry="3.2" transform="rotate(-43 318.3 45.4)" fill="url(#coro)" stroke="#9C7630" stroke-width="0.5"/><ellipse cx="324.8" cy="48.7" rx="7.5" ry="3.2" transform="rotate(37 324.8 48.7)" fill="url(#coro)" stroke="#9C7630" stroke-width="0.5"/><ellipse cx="330.8" cy="44.8" rx="7.5" ry="3.2" transform="rotate(-43 330.8 44.8)" fill="url(#coro)" stroke="#9C7630" stroke-width="0.5"/><ellipse cx="337.2" cy="48.0" rx="7.5" ry="3.2" transform="rotate(37 337.2 48.0)" fill="url(#coro)" stroke="#9C7630" stroke-width="0.5"/><ellipse cx="343.2" cy="44.1" rx="7.5" ry="3.2" transform="rotate(-43 343.2 44.1)" fill="url(#coro)" stroke="#9C7630" stroke-width="0.5"/><ellipse cx="349.5" cy="47.4" rx="7.5" ry="3.2" transform="rotate(37 349.5 47.4)" fill="url(#coro)" stroke="#9C7630" stroke-width="0.5"/><ellipse cx="355.3" cy="43.5" rx="7.5" ry="3.2" transform="rotate(-43 355.3 43.5)" fill="url(#coro)" stroke="#9C7630" stroke-width="0.5"/><ellipse cx="361.5" cy="46.8" rx="7.5" ry="3.2" transform="rotate(37 361.5 46.8)" fill="url(#coro)" stroke="#9C7630" stroke-width="0.5"/><ellipse cx="367.3" cy="42.9" rx="7.5" ry="3.2" transform="rotate(-43 367.3 42.9)" fill="url(#coro)" stroke="#9C7630" stroke-width="0.5"/><ellipse cx="373.4" cy="46.2" rx="7.5" ry="3.2" transform="rotate(37 373.4 46.2)" fill="url(#coro)" stroke="#9C7630" stroke-width="0.5"/><ellipse cx="379.0" cy="42.3" rx="7.5" ry="3.2" transform="rotate(-43 379.0 42.3)" fill="url(#coro)" stroke="#9C7630" stroke-width="0.5"/><ellipse cx="385.0" cy="45.7" rx="7.5" ry="3.2" transform="rotate(37 385.0 45.7)" fill="url(#coro)" stroke="#9C7630" stroke-width="0.5"/><ellipse cx="390.6" cy="41.8" rx="7.5" ry="3.2" transform="rotate(-42 390.6 41.8)" fill="url(#coro)" stroke="#9C7630" stroke-width="0.5"/><ellipse cx="396.4" cy="45.2" rx="7.5" ry="3.2" transform="rotate(38 396.4 45.2)" fill="url(#coro)" stroke="#9C7630" stroke-width="0.5"/><ellipse cx="401.8" cy="41.4" rx="7.5" ry="3.2" transform="rotate(-42 401.8 41.4)" fill="url(#coro)" stroke="#9C7630" stroke-width="0.5"/><ellipse cx="407.5" cy="44.8" rx="7.5" ry="3.2" transform="rotate(38 407.5 44.8)" fill="url(#coro)" stroke="#9C7630" stroke-width="0.5"/><ellipse cx="412.9" cy="41.0" rx="7.5" ry="3.2" transform="rotate(-42 412.9 41.0)" fill="url(#coro)" stroke="#9C7630" stroke-width="0.5"/><ellipse cx="418.4" cy="44.5" rx="7.5" ry="3.2" transform="rotate(39 418.4 44.5)" fill="url(#coro)" stroke="#9C7630" stroke-width="0.5"/><ellipse cx="423.7" cy="40.8" rx="7.5" ry="3.2" transform="rotate(-41 423.7 40.8)" fill="url(#coro)" stroke="#9C7630" stroke-width="0.5"/><ellipse cx="429.1" cy="44.3" rx="7.5" ry="3.2" transform="rotate(39 429.1 44.3)" fill="url(#coro)" stroke="#9C7630" stroke-width="0.5"/><ellipse cx="434.3" cy="40.7" rx="7.5" ry="3.2" transform="rotate(-40 434.3 40.7)" fill="url(#coro)" stroke="#9C7630" stroke-width="0.5"/><ellipse cx="439.5" cy="44.3" rx="7.5" ry="3.2" transform="rotate(40 439.5 44.3)" fill="url(#coro)" stroke="#9C7630" stroke-width="0.5"/><ellipse cx="444.6" cy="40.7" rx="7.5" ry="3.2" transform="rotate(-40 444.6 40.7)" fill="url(#coro)" stroke="#9C7630" stroke-width="0.5"/><ellipse cx="449.6" cy="44.3" rx="7.5" ry="3.2" transform="rotate(41 449.6 44.3)" fill="url(#coro)" stroke="#9C7630" stroke-width="0.5"/><ellipse cx="454.7" cy="40.8" rx="7.5" ry="3.2" transform="rotate(-39 454.7 40.8)" fill="url(#coro)" stroke="#9C7630" stroke-width="0.5"/><ellipse cx="459.5" cy="44.6" rx="7.5" ry="3.2" transform="rotate(42 459.5 44.6)" fill="url(#coro)" stroke="#9C7630" stroke-width="0.5"/><ellipse cx="464.5" cy="41.1" rx="7.5" ry="3.2" transform="rotate(-38 464.5 41.1)" fill="url(#coro)" stroke="#9C7630" stroke-width="0.5"/><ellipse cx="469.1" cy="45.0" rx="7.5" ry="3.2" transform="rotate(43 469.1 45.0)" fill="url(#coro)" stroke="#9C7630" stroke-width="0.5"/><ellipse cx="474.0" cy="41.6" rx="7.5" ry="3.2" transform="rotate(-36 474.0 41.6)" fill="url(#coro)" stroke="#9C7630" stroke-width="0.5"/><ellipse cx="478.3" cy="45.5" rx="7.5" ry="3.2" transform="rotate(44 478.3 45.5)" fill="url(#coro)" stroke="#9C7630" stroke-width="0.5"/><ellipse cx="483.2" cy="42.3" rx="7.5" ry="3.2" transform="rotate(-35 483.2 42.3)" fill="url(#coro)" stroke="#9C7630" stroke-width="0.5"/><ellipse cx="487.3" cy="46.3" rx="7.5" ry="3.2" transform="rotate(46 487.3 46.3)" fill="url(#coro)" stroke="#9C7630" stroke-width="0.5"/><ellipse cx="492.1" cy="43.2" rx="7.5" ry="3.2" transform="rotate(-33 492.1 43.2)" fill="url(#coro)" stroke="#9C7630" stroke-width="0.5"/><ellipse cx="496.0" cy="47.3" rx="7.5" ry="3.2" transform="rotate(47 496.0 47.3)" fill="url(#coro)" stroke="#9C7630" stroke-width="0.5"/><ellipse cx="500.8" cy="44.3" rx="7.5" ry="3.2" transform="rotate(-32 500.8 44.3)" fill="url(#coro)" stroke="#9C7630" stroke-width="0.5"/><ellipse cx="504.4" cy="48.5" rx="7.5" ry="3.2" transform="rotate(49 504.4 48.5)" fill="url(#coro)" stroke="#9C7630" stroke-width="0.5"/><ellipse cx="509.1" cy="45.7" rx="7.5" ry="3.2" transform="rotate(-30 509.1 45.7)" fill="url(#coro)" stroke="#9C7630" stroke-width="0.5"/><ellipse cx="512.4" cy="50.0" rx="7.5" ry="3.2" transform="rotate(51 512.4 50.0)" fill="url(#coro)" stroke="#9C7630" stroke-width="0.5"/><ellipse cx="517.1" cy="47.3" rx="7.5" ry="3.2" transform="rotate(-27 517.1 47.3)" fill="url(#coro)" stroke="#9C7630" stroke-width="0.5"/><ellipse cx="520.1" cy="51.7" rx="7.5" ry="3.2" transform="rotate(54 520.1 51.7)" fill="url(#coro)" stroke="#9C7630" stroke-width="0.5"/><ellipse cx="524.8" cy="49.2" rx="7.5" ry="3.2" transform="rotate(-25 524.8 49.2)" fill="url(#coro)" stroke="#9C7630" stroke-width="0.5"/><ellipse cx="527.5" cy="53.7" rx="7.5" ry="3.2" transform="rotate(57 527.5 53.7)" fill="url(#coro)" stroke="#9C7630" stroke-width="0.5"/><ellipse cx="1071.5" cy="50.3" rx="7.5" ry="3.2" transform="rotate(-57 1071.5 50.3)" fill="url(#coro)" stroke="#9C7630" stroke-width="0.5"/><ellipse cx="1076.2" cy="52.7" rx="7.5" ry="3.2" transform="rotate(25 1076.2 52.7)" fill="url(#coro)" stroke="#9C7630" stroke-width="0.5"/><ellipse cx="1079.0" cy="48.2" rx="7.5" ry="3.2" transform="rotate(-54 1079.0 48.2)" fill="url(#coro)" stroke="#9C7630" stroke-width="0.5"/><ellipse cx="1083.7" cy="50.8" rx="7.5" ry="3.2" transform="rotate(27 1083.7 50.8)" fill="url(#coro)" stroke="#9C7630" stroke-width="0.5"/><ellipse cx="1086.9" cy="46.5" rx="7.5" ry="3.2" transform="rotate(-51 1086.9 46.5)" fill="url(#coro)" stroke="#9C7630" stroke-width="0.5"/><ellipse cx="1091.6" cy="49.2" rx="7.5" ry="3.2" transform="rotate(30 1091.6 49.2)" fill="url(#coro)" stroke="#9C7630" stroke-width="0.5"/><ellipse cx="1095.0" cy="45.0" rx="7.5" ry="3.2" transform="rotate(-49 1095.0 45.0)" fill="url(#coro)" stroke="#9C7630" stroke-width="0.5"/><ellipse cx="1099.8" cy="47.9" rx="7.5" ry="3.2" transform="rotate(32 1099.8 47.9)" fill="url(#coro)" stroke="#9C7630" stroke-width="0.5"/><ellipse cx="1103.5" cy="43.8" rx="7.5" ry="3.2" transform="rotate(-47 1103.5 43.8)" fill="url(#coro)" stroke="#9C7630" stroke-width="0.5"/><ellipse cx="1108.3" cy="46.8" rx="7.5" ry="3.2" transform="rotate(33 1108.3 46.8)" fill="url(#coro)" stroke="#9C7630" stroke-width="0.5"/><ellipse cx="1112.3" cy="42.7" rx="7.5" ry="3.2" transform="rotate(-46 1112.3 42.7)" fill="url(#coro)" stroke="#9C7630" stroke-width="0.5"/><ellipse cx="1117.1" cy="45.9" rx="7.5" ry="3.2" transform="rotate(35 1117.1 45.9)" fill="url(#coro)" stroke="#9C7630" stroke-width="0.5"/><ellipse cx="1121.4" cy="42.0" rx="7.5" ry="3.2" transform="rotate(-44 1121.4 42.0)" fill="url(#coro)" stroke="#9C7630" stroke-width="0.5"/><ellipse cx="1126.3" cy="45.2" rx="7.5" ry="3.2" transform="rotate(36 1126.3 45.2)" fill="url(#coro)" stroke="#9C7630" stroke-width="0.5"/><ellipse cx="1130.8" cy="41.4" rx="7.5" ry="3.2" transform="rotate(-43 1130.8 41.4)" fill="url(#coro)" stroke="#9C7630" stroke-width="0.5"/><ellipse cx="1135.7" cy="44.7" rx="7.5" ry="3.2" transform="rotate(38 1135.7 44.7)" fill="url(#coro)" stroke="#9C7630" stroke-width="0.5"/><ellipse cx="1140.4" cy="41.0" rx="7.5" ry="3.2" transform="rotate(-42 1140.4 41.0)" fill="url(#coro)" stroke="#9C7630" stroke-width="0.5"/><ellipse cx="1145.4" cy="44.4" rx="7.5" ry="3.2" transform="rotate(39 1145.4 44.4)" fill="url(#coro)" stroke="#9C7630" stroke-width="0.5"/><ellipse cx="1150.3" cy="40.7" rx="7.5" ry="3.2" transform="rotate(-41 1150.3 40.7)" fill="url(#coro)" stroke="#9C7630" stroke-width="0.5"/><ellipse cx="1155.4" cy="44.3" rx="7.5" ry="3.2" transform="rotate(40 1155.4 44.3)" fill="url(#coro)" stroke="#9C7630" stroke-width="0.5"/><ellipse cx="1160.5" cy="40.7" rx="7.5" ry="3.2" transform="rotate(-40 1160.5 40.7)" fill="url(#coro)" stroke="#9C7630" stroke-width="0.5"/><ellipse cx="1165.7" cy="44.3" rx="7.5" ry="3.2" transform="rotate(40 1165.7 44.3)" fill="url(#coro)" stroke="#9C7630" stroke-width="0.5"/><ellipse cx="1171.0" cy="40.7" rx="7.5" ry="3.2" transform="rotate(-39 1171.0 40.7)" fill="url(#coro)" stroke="#9C7630" stroke-width="0.5"/><ellipse cx="1176.2" cy="44.4" rx="7.5" ry="3.2" transform="rotate(41 1176.2 44.4)" fill="url(#coro)" stroke="#9C7630" stroke-width="0.5"/><ellipse cx="1181.6" cy="40.9" rx="7.5" ry="3.2" transform="rotate(-39 1181.6 40.9)" fill="url(#coro)" stroke="#9C7630" stroke-width="0.5"/><ellipse cx="1187.0" cy="44.6" rx="7.5" ry="3.2" transform="rotate(42 1187.0 44.6)" fill="url(#coro)" stroke="#9C7630" stroke-width="0.5"/><ellipse cx="1192.6" cy="41.2" rx="7.5" ry="3.2" transform="rotate(-38 1192.6 41.2)" fill="url(#coro)" stroke="#9C7630" stroke-width="0.5"/><ellipse cx="1198.0" cy="45.0" rx="7.5" ry="3.2" transform="rotate(42 1198.0 45.0)" fill="url(#coro)" stroke="#9C7630" stroke-width="0.5"/><ellipse cx="1203.8" cy="41.6" rx="7.5" ry="3.2" transform="rotate(-38 1203.8 41.6)" fill="url(#coro)" stroke="#9C7630" stroke-width="0.5"/><ellipse cx="1209.3" cy="45.4" rx="7.5" ry="3.2" transform="rotate(42 1209.3 45.4)" fill="url(#coro)" stroke="#9C7630" stroke-width="0.5"/><ellipse cx="1215.2" cy="42.1" rx="7.5" ry="3.2" transform="rotate(-37 1215.2 42.1)" fill="url(#coro)" stroke="#9C7630" stroke-width="0.5"/><ellipse cx="1220.8" cy="45.9" rx="7.5" ry="3.2" transform="rotate(43 1220.8 45.9)" fill="url(#coro)" stroke="#9C7630" stroke-width="0.5"/><ellipse cx="1226.8" cy="42.6" rx="7.5" ry="3.2" transform="rotate(-37 1226.8 42.6)" fill="url(#coro)" stroke="#9C7630" stroke-width="0.5"/><ellipse cx="1232.5" cy="46.5" rx="7.5" ry="3.2" transform="rotate(43 1232.5 46.5)" fill="url(#coro)" stroke="#9C7630" stroke-width="0.5"/><ellipse cx="1238.7" cy="43.2" rx="7.5" ry="3.2" transform="rotate(-37 1238.7 43.2)" fill="url(#coro)" stroke="#9C7630" stroke-width="0.5"/><ellipse cx="1244.5" cy="47.1" rx="7.5" ry="3.2" transform="rotate(43 1244.5 47.1)" fill="url(#coro)" stroke="#9C7630" stroke-width="0.5"/><ellipse cx="1250.7" cy="43.8" rx="7.5" ry="3.2" transform="rotate(-37 1250.7 43.8)" fill="url(#coro)" stroke="#9C7630" stroke-width="0.5"/><ellipse cx="1256.6" cy="47.7" rx="7.5" ry="3.2" transform="rotate(43 1256.6 47.7)" fill="url(#coro)" stroke="#9C7630" stroke-width="0.5"/><ellipse cx="1263.0" cy="44.4" rx="7.5" ry="3.2" transform="rotate(-37 1263.0 44.4)" fill="url(#coro)" stroke="#9C7630" stroke-width="0.5"/><ellipse cx="1269.0" cy="48.4" rx="7.5" ry="3.2" transform="rotate(43 1269.0 48.4)" fill="url(#coro)" stroke="#9C7630" stroke-width="0.5"/><ellipse cx="1275.4" cy="45.1" rx="7.5" ry="3.2" transform="rotate(-37 1275.4 45.1)" fill="url(#coro)" stroke="#9C7630" stroke-width="0.5"/><ellipse cx="1281.5" cy="49.0" rx="7.5" ry="3.2" transform="rotate(43 1281.5 49.0)" fill="url(#coro)" stroke="#9C7630" stroke-width="0.5"/><ellipse cx="1288.0" cy="45.7" rx="7.5" ry="3.2" transform="rotate(-37 1288.0 45.7)" fill="url(#coro)" stroke="#9C7630" stroke-width="0.5"/><ellipse cx="1294.3" cy="49.6" rx="7.5" ry="3.2" transform="rotate(43 1294.3 49.6)" fill="url(#coro)" stroke="#9C7630" stroke-width="0.5"/><ellipse cx="1300.9" cy="46.3" rx="7.5" ry="3.2" transform="rotate(-37 1300.9 46.3)" fill="url(#coro)" stroke="#9C7630" stroke-width="0.5"/><ellipse cx="1307.2" cy="50.2" rx="7.5" ry="3.2" transform="rotate(42 1307.2 50.2)" fill="url(#coro)" stroke="#9C7630" stroke-width="0.5"/><ellipse cx="1313.8" cy="46.9" rx="7.5" ry="3.2" transform="rotate(-38 1313.8 46.9)" fill="url(#coro)" stroke="#9C7630" stroke-width="0.5"/><ellipse cx="1320.2" cy="50.7" rx="7.5" ry="3.2" transform="rotate(42 1320.2 50.7)" fill="url(#coro)" stroke="#9C7630" stroke-width="0.5"/><ellipse cx="1327.0" cy="47.4" rx="7.5" ry="3.2" transform="rotate(-38 1327.0 47.4)" fill="url(#coro)" stroke="#9C7630" stroke-width="0.5"/><ellipse cx="1333.5" cy="51.2" rx="7.5" ry="3.2" transform="rotate(42 1333.5 51.2)" fill="url(#coro)" stroke="#9C7630" stroke-width="0.5"/><ellipse cx="1340.3" cy="47.8" rx="7.5" ry="3.2" transform="rotate(-38 1340.3 47.8)" fill="url(#coro)" stroke="#9C7630" stroke-width="0.5"/><ellipse cx="1346.9" cy="51.6" rx="7.5" ry="3.2" transform="rotate(41 1346.9 51.6)" fill="url(#coro)" stroke="#9C7630" stroke-width="0.5"/><ellipse cx="1353.7" cy="48.1" rx="7.5" ry="3.2" transform="rotate(-39 1353.7 48.1)" fill="url(#coro)" stroke="#9C7630" stroke-width="0.5"/><ellipse cx="1360.4" cy="51.9" rx="7.5" ry="3.2" transform="rotate(41 1360.4 51.9)" fill="url(#coro)" stroke="#9C7630" stroke-width="0.5"/><ellipse cx="1367.3" cy="48.4" rx="7.5" ry="3.2" transform="rotate(-39 1367.3 48.4)" fill="url(#coro)" stroke="#9C7630" stroke-width="0.5"/><ellipse cx="1374.1" cy="52.1" rx="7.5" ry="3.2" transform="rotate(41 1374.1 52.1)" fill="url(#coro)" stroke="#9C7630" stroke-width="0.5"/><ellipse cx="1381.0" cy="48.5" rx="7.5" ry="3.2" transform="rotate(-40 1381.0 48.5)" fill="url(#coro)" stroke="#9C7630" stroke-width="0.5"/><ellipse cx="1387.9" cy="52.1" rx="7.5" ry="3.2" transform="rotate(40 1387.9 52.1)" fill="url(#coro)" stroke="#9C7630" stroke-width="0.5"/><ellipse cx="1394.8" cy="48.5" rx="7.5" ry="3.2" transform="rotate(-40 1394.8 48.5)" fill="url(#coro)" stroke="#9C7630" stroke-width="0.5"/><ellipse cx="1401.8" cy="52.0" rx="7.5" ry="3.2" transform="rotate(39 1401.8 52.0)" fill="url(#coro)" stroke="#9C7630" stroke-width="0.5"/><ellipse cx="1408.8" cy="48.4" rx="7.5" ry="3.2" transform="rotate(-41 1408.8 48.4)" fill="url(#coro)" stroke="#9C7630" stroke-width="0.5"/><ellipse cx="1415.9" cy="51.8" rx="7.5" ry="3.2" transform="rotate(39 1415.9 51.8)" fill="url(#coro)" stroke="#9C7630" stroke-width="0.5"/><ellipse cx="1422.9" cy="48.0" rx="7.5" ry="3.2" transform="rotate(-42 1422.9 48.0)" fill="url(#coro)" stroke="#9C7630" stroke-width="0.5"/><ellipse cx="1430.0" cy="51.4" rx="7.5" ry="3.2" transform="rotate(38 1430.0 51.4)" fill="url(#coro)" stroke="#9C7630" stroke-width="0.5"/><ellipse cx="1437.0" cy="47.5" rx="7.5" ry="3.2" transform="rotate(-42 1437.0 47.5)" fill="url(#coro)" stroke="#9C7630" stroke-width="0.5"/><ellipse cx="1444.3" cy="50.8" rx="7.5" ry="3.2" transform="rotate(37 1444.3 50.8)" fill="url(#coro)" stroke="#9C7630" stroke-width="0.5"/><ellipse cx="1451.3" cy="46.9" rx="7.5" ry="3.2" transform="rotate(-43 1451.3 46.9)" fill="url(#coro)" stroke="#9C7630" stroke-width="0.5"/><ellipse cx="1458.7" cy="50.0" rx="7.5" ry="3.2" transform="rotate(36 1458.7 50.0)" fill="url(#coro)" stroke="#9C7630" stroke-width="0.5"/><ellipse cx="1465.6" cy="46.0" rx="7.5" ry="3.2" transform="rotate(-44 1465.6 46.0)" fill="url(#coro)" stroke="#9C7630" stroke-width="0.5"/><ellipse cx="1473.1" cy="49.0" rx="7.5" ry="3.2" transform="rotate(36 1473.1 49.0)" fill="url(#coro)" stroke="#9C7630" stroke-width="0.5"/><ellipse cx="1480.0" cy="44.8" rx="7.5" ry="3.2" transform="rotate(-45 1480.0 44.8)" fill="url(#coro)" stroke="#9C7630" stroke-width="0.5"/><ellipse cx="1487.6" cy="47.8" rx="7.5" ry="3.2" transform="rotate(35 1487.6 47.8)" fill="url(#coro)" stroke="#9C7630" stroke-width="0.5"/><ellipse cx="1494.5" cy="43.5" rx="7.5" ry="3.2" transform="rotate(-46 1494.5 43.5)" fill="url(#coro)" stroke="#9C7630" stroke-width="0.5"/><ellipse cx="1502.2" cy="46.3" rx="7.5" ry="3.2" transform="rotate(34 1502.2 46.3)" fill="url(#coro)" stroke="#9C7630" stroke-width="0.5"/><ellipse cx="1509.1" cy="41.9" rx="7.5" ry="3.2" transform="rotate(-47 1509.1 41.9)" fill="url(#coro)" stroke="#9C7630" stroke-width="0.5"/><ellipse cx="1516.8" cy="44.6" rx="7.5" ry="3.2" transform="rotate(33 1516.8 44.6)" fill="url(#coro)" stroke="#9C7630" stroke-width="0.5"/><ellipse cx="1523.7" cy="40.0" rx="7.5" ry="3.2" transform="rotate(-48 1523.7 40.0)" fill="url(#coro)" stroke="#9C7630" stroke-width="0.5"/><ellipse cx="1531.5" cy="42.5" rx="7.5" ry="3.2" transform="rotate(32 1531.5 42.5)" fill="url(#coro)" stroke="#9C7630" stroke-width="0.5"/><ellipse cx="1538.4" cy="37.9" rx="7.5" ry="3.2" transform="rotate(-49 1538.4 37.9)" fill="url(#coro)" stroke="#9C7630" stroke-width="0.5"/><ellipse cx="1546.3" cy="40.2" rx="7.5" ry="3.2" transform="rotate(31 1546.3 40.2)" fill="url(#coro)" stroke="#9C7630" stroke-width="0.5"/><ellipse cx="1553.1" cy="35.4" rx="7.5" ry="3.2" transform="rotate(-50 1553.1 35.4)" fill="url(#coro)" stroke="#9C7630" stroke-width="0.5"/><ellipse cx="1561.1" cy="37.6" rx="7.5" ry="3.2" transform="rotate(29 1561.1 37.6)" fill="url(#coro)" stroke="#9C7630" stroke-width="0.5"/><ellipse cx="1567.8" cy="32.6" rx="7.5" ry="3.2" transform="rotate(-51 1567.8 32.6)" fill="url(#coro)" stroke="#9C7630" stroke-width="0.5"/><ellipse cx="1575.9" cy="34.7" rx="7.5" ry="3.2" transform="rotate(28 1575.9 34.7)" fill="url(#coro)" stroke="#9C7630" stroke-width="0.5"/><ellipse cx="1582.6" cy="29.5" rx="7.5" ry="3.2" transform="rotate(-52 1582.6 29.5)" fill="url(#coro)" stroke="#9C7630" stroke-width="0.5"/><ellipse cx="1590.8" cy="31.4" rx="7.5" ry="3.2" transform="rotate(27 1590.8 31.4)" fill="url(#coro)" stroke="#9C7630" stroke-width="0.5"/><ellipse cx="1597.3" cy="26.1" rx="7.5" ry="3.2" transform="rotate(-54 1597.3 26.1)" fill="url(#coro)" stroke="#9C7630" stroke-width="0.5"/><ellipse cx="1605.6" cy="27.7" rx="7.5" ry="3.2" transform="rotate(26 1605.6 27.7)" fill="url(#coro)" stroke="#9C7630" stroke-width="0.5"/><ellipse cx="1612.1" cy="22.3" rx="7.5" ry="3.2" transform="rotate(-55 1612.1 22.3)" fill="url(#coro)" stroke="#9C7630" stroke-width="0.5"/><ellipse cx="1620.5" cy="23.7" rx="7.5" ry="3.2" transform="rotate(24 1620.5 23.7)" fill="url(#coro)" stroke="#9C7630" stroke-width="0.5"/><g transform="translate(-23.5,17.7) scale(0.87)"><g fill="#FFFFFF" stroke="rgba(60,40,90,0.25)" stroke-width="0.6"><ellipse cy="-7" rx="4.4" ry="7.2" transform="rotate(0)"/><ellipse cy="-7" rx="4.4" ry="7.2" transform="rotate(72)"/><ellipse cy="-7" rx="4.4" ry="7.2" transform="rotate(144)"/><ellipse cy="-7" rx="4.4" ry="7.2" transform="rotate(216)"/><ellipse cy="-7" rx="4.4" ry="7.2" transform="rotate(288)"/></g><circle r="2.8" fill="#E9C46A"/></g><g transform="translate(87.1,41.3) scale(0.89)"><g fill="#FFFFFF" stroke="rgba(60,40,90,0.25)" stroke-width="0.6"><ellipse cy="-7" rx="4.4" ry="7.2" transform="rotate(0)"/><ellipse cy="-7" rx="4.4" ry="7.2" transform="rotate(72)"/><ellipse cy="-7" rx="4.4" ry="7.2" transform="rotate(144)"/><ellipse cy="-7" rx="4.4" ry="7.2" transform="rotate(216)"/><ellipse cy="-7" rx="4.4" ry="7.2" transform="rotate(288)"/></g><circle r="2.8" fill="#E9C46A"/></g><g transform="translate(200.0,54.9) scale(0.83)"><g fill="#F4E6D8" stroke="rgba(60,40,90,0.25)" stroke-width="0.6"><ellipse cy="-7" rx="4.4" ry="7.2" transform="rotate(0)"/><ellipse cy="-7" rx="4.4" ry="7.2" transform="rotate(72)"/><ellipse cy="-7" rx="4.4" ry="7.2" transform="rotate(144)"/><ellipse cy="-7" rx="4.4" ry="7.2" transform="rotate(216)"/><ellipse cy="-7" rx="4.4" ry="7.2" transform="rotate(288)"/></g><circle r="2.8" fill="#E9C46A"/></g><g transform="translate(297.6,44.1) scale(0.73)"><g fill="#FFFFFF" stroke="rgba(60,40,90,0.25)" stroke-width="0.6"><ellipse cy="-7" rx="4.4" ry="7.2" transform="rotate(0)"/><ellipse cy="-7" rx="4.4" ry="7.2" transform="rotate(72)"/><ellipse cy="-7" rx="4.4" ry="7.2" transform="rotate(144)"/><ellipse cy="-7" rx="4.4" ry="7.2" transform="rotate(216)"/><ellipse cy="-7" rx="4.4" ry="7.2" transform="rotate(288)"/></g><circle r="2.8" fill="#E9C46A"/></g><g transform="translate(390.4,43.4) scale(0.74)"><g fill="#F4E6D8" stroke="rgba(60,40,90,0.25)" stroke-width="0.6"><ellipse cy="-7" rx="4.4" ry="7.2" transform="rotate(0)"/><ellipse cy="-7" rx="4.4" ry="7.2" transform="rotate(72)"/><ellipse cy="-7" rx="4.4" ry="7.2" transform="rotate(144)"/><ellipse cy="-7" rx="4.4" ry="7.2" transform="rotate(216)"/><ellipse cy="-7" rx="4.4" ry="7.2" transform="rotate(288)"/></g><circle r="2.8" fill="#E9C46A"/></g><g transform="translate(466.5,47.1) scale(0.85)"><g fill="#FFFFFF" stroke="rgba(60,40,90,0.25)" stroke-width="0.6"><ellipse cy="-7" rx="4.4" ry="7.2" transform="rotate(0)"/><ellipse cy="-7" rx="4.4" ry="7.2" transform="rotate(72)"/><ellipse cy="-7" rx="4.4" ry="7.2" transform="rotate(144)"/><ellipse cy="-7" rx="4.4" ry="7.2" transform="rotate(216)"/><ellipse cy="-7" rx="4.4" ry="7.2" transform="rotate(288)"/></g><circle r="2.8" fill="#E9C46A"/></g><g transform="translate(529.1,52.5) scale(0.87)"><g fill="#F4E6D8" stroke="rgba(60,40,90,0.25)" stroke-width="0.6"><ellipse cy="-7" rx="4.4" ry="7.2" transform="rotate(0)"/><ellipse cy="-7" rx="4.4" ry="7.2" transform="rotate(72)"/><ellipse cy="-7" rx="4.4" ry="7.2" transform="rotate(144)"/><ellipse cy="-7" rx="4.4" ry="7.2" transform="rotate(216)"/><ellipse cy="-7" rx="4.4" ry="7.2" transform="rotate(288)"/></g><circle r="2.8" fill="#E9C46A"/></g><g transform="translate(1069.1,47.0) scale(0.87)"><g fill="#F4E6D8" stroke="rgba(60,40,90,0.25)" stroke-width="0.6"><ellipse cy="-7" rx="4.4" ry="7.2" transform="rotate(0)"/><ellipse cy="-7" rx="4.4" ry="7.2" transform="rotate(72)"/><ellipse cy="-7" rx="4.4" ry="7.2" transform="rotate(144)"/><ellipse cy="-7" rx="4.4" ry="7.2" transform="rotate(216)"/><ellipse cy="-7" rx="4.4" ry="7.2" transform="rotate(288)"/></g><circle r="2.8" fill="#E9C46A"/></g><g transform="translate(1135.3,43.1) scale(0.73)"><g fill="#FFFFFF" stroke="rgba(60,40,90,0.25)" stroke-width="0.6"><ellipse cy="-7" rx="4.4" ry="7.2" transform="rotate(0)"/><ellipse cy="-7" rx="4.4" ry="7.2" transform="rotate(72)"/><ellipse cy="-7" rx="4.4" ry="7.2" transform="rotate(144)"/><ellipse cy="-7" rx="4.4" ry="7.2" transform="rotate(216)"/><ellipse cy="-7" rx="4.4" ry="7.2" transform="rotate(288)"/></g><circle r="2.8" fill="#E9C46A"/></g><g transform="translate(1216.2,45.3) scale(1.09)"><g fill="#E6DAF5" stroke="rgba(60,40,90,0.25)" stroke-width="0.6"><ellipse cy="-7" rx="4.4" ry="7.2" transform="rotate(0)"/><ellipse cy="-7" rx="4.4" ry="7.2" transform="rotate(72)"/><ellipse cy="-7" rx="4.4" ry="7.2" transform="rotate(144)"/><ellipse cy="-7" rx="4.4" ry="7.2" transform="rotate(216)"/><ellipse cy="-7" rx="4.4" ry="7.2" transform="rotate(288)"/></g><circle r="2.8" fill="#E9C46A"/></g><g transform="translate(1306.8,46.7) scale(0.70)"><g fill="#F4E6D8" stroke="rgba(60,40,90,0.25)" stroke-width="0.6"><ellipse cy="-7" rx="4.4" ry="7.2" transform="rotate(0)"/><ellipse cy="-7" rx="4.4" ry="7.2" transform="rotate(72)"/><ellipse cy="-7" rx="4.4" ry="7.2" transform="rotate(144)"/><ellipse cy="-7" rx="4.4" ry="7.2" transform="rotate(216)"/><ellipse cy="-7" rx="4.4" ry="7.2" transform="rotate(288)"/></g><circle r="2.8" fill="#E9C46A"/></g><g transform="translate(1399.3,51.0) scale(0.77)"><g fill="#FFFFFF" stroke="rgba(60,40,90,0.25)" stroke-width="0.6"><ellipse cy="-7" rx="4.4" ry="7.2" transform="rotate(0)"/><ellipse cy="-7" rx="4.4" ry="7.2" transform="rotate(72)"/><ellipse cy="-7" rx="4.4" ry="7.2" transform="rotate(144)"/><ellipse cy="-7" rx="4.4" ry="7.2" transform="rotate(216)"/><ellipse cy="-7" rx="4.4" ry="7.2" transform="rotate(288)"/></g><circle r="2.8" fill="#E9C46A"/></g><g transform="translate(1515.2,45.1) scale(0.77)"><g fill="#FFFFFF" stroke="rgba(60,40,90,0.25)" stroke-width="0.6"><ellipse cy="-7" rx="4.4" ry="7.2" transform="rotate(0)"/><ellipse cy="-7" rx="4.4" ry="7.2" transform="rotate(72)"/><ellipse cy="-7" rx="4.4" ry="7.2" transform="rotate(144)"/><ellipse cy="-7" rx="4.4" ry="7.2" transform="rotate(216)"/><ellipse cy="-7" rx="4.4" ry="7.2" transform="rotate(288)"/></g><circle r="2.8" fill="#E9C46A"/></g><g transform="translate(1624.1,24.5) scale(1.06)"><g fill="#F4E6D8" stroke="rgba(60,40,90,0.25)" stroke-width="0.6"><ellipse cy="-7" rx="4.4" ry="7.2" transform="rotate(0)"/><ellipse cy="-7" rx="4.4" ry="7.2" transform="rotate(72)"/><ellipse cy="-7" rx="4.4" ry="7.2" transform="rotate(144)"/><ellipse cy="-7" rx="4.4" ry="7.2" transform="rotate(216)"/><ellipse cy="-7" rx="4.4" ry="7.2" transform="rotate(288)"/></g><circle r="2.8" fill="#E9C46A"/></g><g transform="translate(558,52) scale(0.62)" opacity="0.95"><circle r="30" fill="url(#chalo)"/><g stroke="url(#coro)" stroke-width="1.3" stroke-linecap="round"><path d="M0,-19 L0,-30" transform="rotate(0)"/><path d="M0,-19 L0,-23" transform="rotate(15)"/><path d="M0,-19 L0,-30" transform="rotate(30)"/><path d="M0,-19 L0,-23" transform="rotate(45)"/><path d="M0,-19 L0,-30" transform="rotate(60)"/><path d="M0,-19 L0,-23" transform="rotate(75)"/><path d="M0,-19 L0,-30" transform="rotate(90)"/><path d="M0,-19 L0,-23" transform="rotate(105)"/><path d="M0,-19 L0,-30" transform="rotate(120)"/><path d="M0,-19 L0,-23" transform="rotate(135)"/><path d="M0,-19 L0,-30" transform="rotate(150)"/><path d="M0,-19 L0,-23" transform="rotate(165)"/><path d="M0,-19 L0,-30" transform="rotate(180)"/><path d="M0,-19 L0,-23" transform="rotate(195)"/><path d="M0,-19 L0,-30" transform="rotate(210)"/><path d="M0,-19 L0,-23" transform="rotate(225)"/><path d="M0,-19 L0,-30" transform="rotate(240)"/><path d="M0,-19 L0,-23" transform="rotate(255)"/><path d="M0,-19 L0,-30" transform="rotate(270)"/><path d="M0,-19 L0,-23" transform="rotate(285)"/><path d="M0,-19 L0,-30" transform="rotate(300)"/><path d="M0,-19 L0,-23" transform="rotate(315)"/><path d="M0,-19 L0,-30" transform="rotate(330)"/><path d="M0,-19 L0,-23" transform="rotate(345)"/></g><circle r="15" fill="none" stroke="url(#coro)" stroke-width="1.4"/><circle r="10.5" fill="none" stroke="#E9C46A" stroke-width="0.7" opacity="0.7"/><circle r="5" fill="url(#coro)"/></g><g transform="translate(1042,52) scale(0.62)" opacity="0.95"><circle r="30" fill="url(#chalo)"/><g stroke="url(#coro)" stroke-width="1.3" stroke-linecap="round"><path d="M0,-19 L0,-30" transform="rotate(0)"/><path d="M0,-19 L0,-23" transform="rotate(15)"/><path d="M0,-19 L0,-30" transform="rotate(30)"/><path d="M0,-19 L0,-23" transform="rotate(45)"/><path d="M0,-19 L0,-30" transform="rotate(60)"/><path d="M0,-19 L0,-23" transform="rotate(75)"/><path d="M0,-19 L0,-30" transform="rotate(90)"/><path d="M0,-19 L0,-23" transform="rotate(105)"/><path d="M0,-19 L0,-30" transform="rotate(120)"/><path d="M0,-19 L0,-23" transform="rotate(135)"/><path d="M0,-19 L0,-30" transform="rotate(150)"/><path d="M0,-19 L0,-23" transform="rotate(165)"/><path d="M0,-19 L0,-30" transform="rotate(180)"/><path d="M0,-19 L0,-23" transform="rotate(195)"/><path d="M0,-19 L0,-30" transform="rotate(210)"/><path d="M0,-19 L0,-23" transform="rotate(225)"/><path d="M0,-19 L0,-30" transform="rotate(240)"/><path d="M0,-19 L0,-23" transform="rotate(255)"/><path d="M0,-19 L0,-30" transform="rotate(270)"/><path d="M0,-19 L0,-23" transform="rotate(285)"/><path d="M0,-19 L0,-30" transform="rotate(300)"/><path d="M0,-19 L0,-23" transform="rotate(315)"/><path d="M0,-19 L0,-30" transform="rotate(330)"/><path d="M0,-19 L0,-23" transform="rotate(345)"/></g><circle r="15" fill="none" stroke="url(#coro)" stroke-width="1.4"/><circle r="10.5" fill="none" stroke="#E9C46A" stroke-width="0.7" opacity="0.7"/><circle r="5" fill="url(#coro)"/></g>
</svg>
