<svg xmlns="http://www.w3.org/2000/svg" width="600" height="1800" viewBox="0 0 600 1800">

  <defs>
    <linearGradient id="bbg" x1="0" y1="0" x2="0.2" y2="1">
      <stop offset="0%" stop-color="#FFFCF4"/><stop offset="45%" stop-color="#FDF2DC"/>
      <stop offset="100%" stop-color="#F7E6C6"/>
    </linearGradient>
    <radialGradient id="bsol" cx="0.5" cy="0.07" r="0.6">
      <stop offset="0%" stop-color="#FFE9A8" stop-opacity="0.7"/>
      <stop offset="100%" stop-color="#FFE9A8" stop-opacity="0"/>
    </radialGradient>
  </defs>
  <rect width="600" height="1800" fill="url(#bbg)"/>
  <rect width="600" height="1800" fill="url(#bsol)"/>
  <g><polygon points="-12.5,-43.3 -12.5,-4.7 -46.0,14.6 -79.5,-4.7 -79.5,-43.3 -46.0,-62.6" fill="none" opacity="0.20" stroke="#EBD2A0" stroke-width="2"/><polygon points="60.2,-43.3 60.2,-4.7 26.7,14.6 -6.7,-4.7 -6.7,-43.3 26.7,-62.6" fill="none" opacity="0.20" stroke="#EBD2A0" stroke-width="2"/><polygon points="133.0,-43.3 133.0,-4.7 99.5,14.6 66.0,-4.7 66.0,-43.3 99.5,-62.6" fill="none" opacity="0.20" stroke="#EBD2A0" stroke-width="2"/><polygon points="205.7,-43.3 205.7,-4.7 172.2,14.6 138.8,-4.7 138.8,-43.3 172.2,-62.6" fill="none" opacity="0.20" stroke="#EBD2A0" stroke-width="2"/><polygon points="278.4,-43.3 278.4,-4.7 245.0,14.6 211.5,-4.7 211.5,-43.3 245.0,-62.6" fill="none" opacity="0.20" stroke="#EBD2A0" stroke-width="2"/><polygon points="351.2,-43.3 351.2,-4.7 317.7,14.6 284.3,-4.7 284.3,-43.3 317.7,-62.6" fill="none" opacity="0.20" stroke="#EBD2A0" stroke-width="2"/><polygon points="423.9,-43.3 423.9,-4.7 390.5,14.6 357.0,-4.7 357.0,-43.3 390.5,-62.6" fill="none" opacity="0.20" stroke="#EBD2A0" stroke-width="2"/><polygon points="496.7,-43.3 496.7,-4.7 463.2,14.6 429.8,-4.7 429.8,-43.3 463.2,-62.6" fill="none" opacity="0.20" stroke="#EBD2A0" stroke-width="2"/><polygon points="569.4,-43.3 569.4,-4.7 536.0,14.6 502.5,-4.7 502.5,-43.3 536.0,-62.6" fill="none" opacity="0.20" stroke="#EBD2A0" stroke-width="2"/><polygon points="642.2,-43.3 642.2,-4.7 608.7,14.6 575.3,-4.7 575.3,-43.3 608.7,-62.6" fill="none" opacity="0.20" stroke="#EBD2A0" stroke-width="2"/><polygon points="23.8,19.7 23.8,58.3 -9.6,77.6 -43.1,58.3 -43.1,19.7 -9.6,0.4" fill="none" opacity="0.20" stroke="#EBD2A0" stroke-width="2"/><polygon points="96.6,19.7 96.6,58.3 63.1,77.6 29.7,58.3 29.7,19.7 63.1,0.4" fill="none" opacity="0.20" stroke="#EBD2A0" stroke-width="2"/><polygon points="169.3,19.7 169.3,58.3 135.9,77.6 102.4,58.3 102.4,19.7 135.9,0.4" fill="none" opacity="0.20" stroke="#EBD2A0" stroke-width="2"/><polygon points="242.1,19.7 242.1,58.3 208.6,77.6 175.1,58.3 175.1,19.7 208.6,0.4" fill="none" opacity="0.20" stroke="#EBD2A0" stroke-width="2"/><polygon points="314.8,19.7 314.8,58.3 281.4,77.6 247.9,58.3 247.9,19.7 281.4,0.4" fill="none" opacity="0.20" stroke="#EBD2A0" stroke-width="2"/><polygon points="387.6,19.7 387.6,58.3 354.1,77.6 320.6,58.3 320.6,19.7 354.1,0.4" fill="none" opacity="0.20" stroke="#EBD2A0" stroke-width="2"/><polygon points="460.3,19.7 460.3,58.3 426.8,77.6 393.4,58.3 393.4,19.7 426.8,0.4" fill="none" opacity="0.20" stroke="#EBD2A0" stroke-width="2"/><polygon points="533.1,19.7 533.1,58.3 499.6,77.6 466.1,58.3 466.1,19.7 499.6,0.4" fill="none" opacity="0.20" stroke="#EBD2A0" stroke-width="2"/><polygon points="605.8,19.7 605.8,58.3 572.3,77.6 538.9,58.3 538.9,19.7 572.3,0.4" fill="none" opacity="0.20" stroke="#EBD2A0" stroke-width="2"/><polygon points="678.6,19.7 678.6,58.3 645.1,77.6 611.6,58.3 611.6,19.7 645.1,0.4" fill="none" opacity="0.20" stroke="#EBD2A0" stroke-width="2"/><polygon points="-12.5,82.7 -12.5,121.3 -46.0,140.6 -79.5,121.3 -79.5,82.7 -46.0,63.4" fill="none" opacity="0.20" stroke="#EBD2A0" stroke-width="2"/><polygon points="60.2,82.7 60.2,121.3 26.7,140.6 -6.7,121.3 -6.7,82.7 26.7,63.4" fill="none" opacity="0.20" stroke="#EBD2A0" stroke-width="2"/><polygon points="133.0,82.7 133.0,121.3 99.5,140.6 66.0,121.3 66.0,82.7 99.5,63.4" fill="none" opacity="0.20" stroke="#EBD2A0" stroke-width="2"/><polygon points="205.7,82.7 205.7,121.3 172.2,140.6 138.8,121.3 138.8,82.7 172.2,63.4" fill="none" opacity="0.20" stroke="#EBD2A0" stroke-width="2"/><polygon points="278.4,82.7 278.4,121.3 245.0,140.6 211.5,121.3 211.5,82.7 245.0,63.4" fill="none" opacity="0.20" stroke="#EBD2A0" stroke-width="2"/><polygon points="351.2,82.7 351.2,121.3 317.7,140.6 284.3,121.3 284.3,82.7 317.7,63.4" fill="none" opacity="0.20" stroke="#EBD2A0" stroke-width="2"/><polygon points="423.9,82.7 423.9,121.3 390.5,140.6 357.0,121.3 357.0,82.7 390.5,63.4" fill="none" opacity="0.20" stroke="#EBD2A0" stroke-width="2"/><polygon points="496.7,82.7 496.7,121.3 463.2,140.6 429.8,121.3 429.8,82.7 463.2,63.4" fill="none" opacity="0.20" stroke="#EBD2A0" stroke-width="2"/><polygon points="569.4,82.7 569.4,121.3 536.0,140.6 502.5,121.3 502.5,82.7 536.0,63.4" fill="none" opacity="0.20" stroke="#EBD2A0" stroke-width="2"/><polygon points="642.2,82.7 642.2,121.3 608.7,140.6 575.3,121.3 575.3,82.7 608.7,63.4" fill="none" opacity="0.20" stroke="#EBD2A0" stroke-width="2"/><polygon points="23.8,145.7 23.8,184.3 -9.6,203.6 -43.1,184.3 -43.1,145.7 -9.6,126.4" fill="none" opacity="0.20" stroke="#EBD2A0" stroke-width="2"/><polygon points="96.6,145.7 96.6,184.3 63.1,203.6 29.7,184.3 29.7,145.7 63.1,126.4" fill="none" opacity="0.20" stroke="#EBD2A0" stroke-width="2"/><polygon points="169.3,145.7 169.3,184.3 135.9,203.6 102.4,184.3 102.4,145.7 135.9,126.4" fill="none" opacity="0.20" stroke="#EBD2A0" stroke-width="2"/><polygon points="242.1,145.7 242.1,184.3 208.6,203.6 175.1,184.3 175.1,145.7 208.6,126.4" fill="none" opacity="0.20" stroke="#EBD2A0" stroke-width="2"/><polygon points="314.8,145.7 314.8,184.3 281.4,203.6 247.9,184.3 247.9,145.7 281.4,126.4" fill="none" opacity="0.20" stroke="#EBD2A0" stroke-width="2"/><polygon points="387.6,145.7 387.6,184.3 354.1,203.6 320.6,184.3 320.6,145.7 354.1,126.4" fill="none" opacity="0.20" stroke="#EBD2A0" stroke-width="2"/><polygon points="460.3,145.7 460.3,184.3 426.8,203.6 393.4,184.3 393.4,145.7 426.8,126.4" fill="none" opacity="0.20" stroke="#EBD2A0" stroke-width="2"/><polygon points="533.1,145.7 533.1,184.3 499.6,203.6 466.1,184.3 466.1,145.7 499.6,126.4" fill="none" opacity="0.20" stroke="#EBD2A0" stroke-width="2"/><polygon points="605.8,145.7 605.8,184.3 572.3,203.6 538.9,184.3 538.9,145.7 572.3,126.4" fill="none" opacity="0.20" stroke="#EBD2A0" stroke-width="2"/><polygon points="678.6,145.7 678.6,184.3 645.1,203.6 611.6,184.3 611.6,145.7 645.1,126.4" fill="none" opacity="0.20" stroke="#EBD2A0" stroke-width="2"/><polygon points="-12.5,208.7 -12.5,247.3 -46.0,266.6 -79.5,247.3 -79.5,208.7 -46.0,189.4" fill="none" opacity="0.20" stroke="#EBD2A0" stroke-width="2"/><polygon points="60.2,208.7 60.2,247.3 26.7,266.6 -6.7,247.3 -6.7,208.7 26.7,189.4" fill="none" opacity="0.20" stroke="#EBD2A0" stroke-width="2"/><polygon points="133.0,208.7 133.0,247.3 99.5,266.6 66.0,247.3 66.0,208.7 99.5,189.4" fill="none" opacity="0.20" stroke="#EBD2A0" stroke-width="2"/><polygon points="205.7,208.7 205.7,247.3 172.2,266.6 138.8,247.3 138.8,208.7 172.2,189.4" fill="none" opacity="0.20" stroke="#EBD2A0" stroke-width="2"/><polygon points="278.4,208.7 278.4,247.3 245.0,266.6 211.5,247.3 211.5,208.7 245.0,189.4" fill="none" opacity="0.20" stroke="#EBD2A0" stroke-width="2"/><polygon points="351.2,208.7 351.2,247.3 317.7,266.6 284.3,247.3 284.3,208.7 317.7,189.4" fill="none" opacity="0.20" stroke="#EBD2A0" stroke-width="2"/><polygon points="423.9,208.7 423.9,247.3 390.5,266.6 357.0,247.3 357.0,208.7 390.5,189.4" fill="none" opacity="0.20" stroke="#EBD2A0" stroke-width="2"/><polygon points="496.7,208.7 496.7,247.3 463.2,266.6 429.8,247.3 429.8,208.7 463.2,189.4" fill="none" opacity="0.20" stroke="#EBD2A0" stroke-width="2"/><polygon points="569.4,208.7 569.4,247.3 536.0,266.6 502.5,247.3 502.5,208.7 536.0,189.4" fill="none" opacity="0.20" stroke="#EBD2A0" stroke-width="2"/><polygon points="642.2,208.7 642.2,247.3 608.7,266.6 575.3,247.3 575.3,208.7 608.7,189.4" fill="none" opacity="0.20" stroke="#EBD2A0" stroke-width="2"/><polygon points="23.8,271.7 23.8,310.3 -9.6,329.6 -43.1,310.3 -43.1,271.7 -9.6,252.4" fill="none" opacity="0.20" stroke="#EBD2A0" stroke-width="2"/><polygon points="96.6,271.7 96.6,310.3 63.1,329.6 29.7,310.3 29.7,271.7 63.1,252.4" fill="none" opacity="0.20" stroke="#EBD2A0" stroke-width="2"/><polygon points="169.3,271.7 169.3,310.3 135.9,329.6 102.4,310.3 102.4,271.7 135.9,252.4" fill="none" opacity="0.20" stroke="#EBD2A0" stroke-width="2"/><polygon points="242.1,271.7 242.1,310.3 208.6,329.6 175.1,310.3 175.1,271.7 208.6,252.4" fill="none" opacity="0.20" stroke="#EBD2A0" stroke-width="2"/><polygon points="314.8,271.7 314.8,310.3 281.4,329.6 247.9,310.3 247.9,271.7 281.4,252.4" fill="none" opacity="0.20" stroke="#EBD2A0" stroke-width="2"/><polygon points="387.6,271.7 387.6,310.3 354.1,329.6 320.6,310.3 320.6,271.7 354.1,252.4" fill="none" opacity="0.20" stroke="#EBD2A0" stroke-width="2"/><polygon points="460.3,271.7 460.3,310.3 426.8,329.6 393.4,310.3 393.4,271.7 426.8,252.4" fill="none" opacity="0.20" stroke="#EBD2A0" stroke-width="2"/><polygon points="533.1,271.7 533.1,310.3 499.6,329.6 466.1,310.3 466.1,271.7 499.6,252.4" fill="none" opacity="0.20" stroke="#EBD2A0" stroke-width="2"/><polygon points="605.8,271.7 605.8,310.3 572.3,329.6 538.9,310.3 538.9,271.7 572.3,252.4" fill="none" opacity="0.20" stroke="#EBD2A0" stroke-width="2"/><polygon points="678.6,271.7 678.6,310.3 645.1,329.6 611.6,310.3 611.6,271.7 645.1,252.4" fill="none" opacity="0.20" stroke="#EBD2A0" stroke-width="2"/><polygon points="-12.5,334.7 -12.5,373.3 -46.0,392.6 -79.5,373.3 -79.5,334.7 -46.0,315.4" fill="none" opacity="0.20" stroke="#EBD2A0" stroke-width="2"/><polygon points="60.2,334.7 60.2,373.3 26.7,392.6 -6.7,373.3 -6.7,334.7 26.7,315.4" fill="none" opacity="0.20" stroke="#EBD2A0" stroke-width="2"/><polygon points="133.0,334.7 133.0,373.3 99.5,392.6 66.0,373.3 66.0,334.7 99.5,315.4" fill="none" opacity="0.20" stroke="#EBD2A0" stroke-width="2"/><polygon points="205.7,334.7 205.7,373.3 172.2,392.6 138.8,373.3 138.8,334.7 172.2,315.4" fill="none" opacity="0.20" stroke="#EBD2A0" stroke-width="2"/><polygon points="278.4,334.7 278.4,373.3 245.0,392.6 211.5,373.3 211.5,334.7 245.0,315.4" fill="none" opacity="0.20" stroke="#EBD2A0" stroke-width="2"/><polygon points="351.2,334.7 351.2,373.3 317.7,392.6 284.3,373.3 284.3,334.7 317.7,315.4" fill="none" opacity="0.20" stroke="#EBD2A0" stroke-width="2"/><polygon points="423.9,334.7 423.9,373.3 390.5,392.6 357.0,373.3 357.0,334.7 390.5,315.4" fill="none" opacity="0.20" stroke="#EBD2A0" stroke-width="2"/><polygon points="496.7,334.7 496.7,373.3 463.2,392.6 429.8,373.3 429.8,334.7 463.2,315.4" fill="none" opacity="0.20" stroke="#EBD2A0" stroke-width="2"/><polygon points="569.4,334.7 569.4,373.3 536.0,392.6 502.5,373.3 502.5,334.7 536.0,315.4" fill="none" opacity="0.20" stroke="#EBD2A0" stroke-width="2"/><polygon points="642.2,334.7 642.2,373.3 608.7,392.6 575.3,373.3 575.3,334.7 608.7,315.4" fill="none" opacity="0.20" stroke="#EBD2A0" stroke-width="2"/><polygon points="23.8,397.7 23.8,436.3 -9.6,455.6 -43.1,436.3 -43.1,397.7 -9.6,378.4" fill="none" opacity="0.20" stroke="#EBD2A0" stroke-width="2"/><polygon points="96.6,397.7 96.6,436.3 63.1,455.6 29.7,436.3 29.7,397.7 63.1,378.4" fill="none" opacity="0.20" stroke="#EBD2A0" stroke-width="2"/><polygon points="169.3,397.7 169.3,436.3 135.9,455.6 102.4,436.3 102.4,397.7 135.9,378.4" fill="none" opacity="0.20" stroke="#EBD2A0" stroke-width="2"/><polygon points="242.1,397.7 242.1,436.3 208.6,455.6 175.1,436.3 175.1,397.7 208.6,378.4" fill="none" opacity="0.20" stroke="#EBD2A0" stroke-width="2"/><polygon points="314.8,397.7 314.8,436.3 281.4,455.6 247.9,436.3 247.9,397.7 281.4,378.4" fill="none" opacity="0.20" stroke="#EBD2A0" stroke-width="2"/><polygon points="387.6,397.7 387.6,436.3 354.1,455.6 320.6,436.3 320.6,397.7 354.1,378.4" fill="none" opacity="0.20" stroke="#EBD2A0" stroke-width="2"/><polygon points="460.3,397.7 460.3,436.3 426.8,455.6 393.4,436.3 393.4,397.7 426.8,378.4" fill="none" opacity="0.20" stroke="#EBD2A0" stroke-width="2"/><polygon points="533.1,397.7 533.1,436.3 499.6,455.6 466.1,436.3 466.1,397.7 499.6,378.4" fill="none" opacity="0.20" stroke="#EBD2A0" stroke-width="2"/><polygon points="605.8,397.7 605.8,436.3 572.3,455.6 538.9,436.3 538.9,397.7 572.3,378.4" fill="none" opacity="0.20" stroke="#EBD2A0" stroke-width="2"/><polygon points="678.6,397.7 678.6,436.3 645.1,455.6 611.6,436.3 611.6,397.7 645.1,378.4" fill="none" opacity="0.20" stroke="#EBD2A0" stroke-width="2"/><polygon points="-12.5,460.7 -12.5,499.3 -46.0,518.6 -79.5,499.3 -79.5,460.7 -46.0,441.4" fill="none" opacity="0.20" stroke="#EBD2A0" stroke-width="2"/><polygon points="60.2,460.7 60.2,499.3 26.7,518.6 -6.7,499.3 -6.7,460.7 26.7,441.4" fill="none" opacity="0.20" stroke="#EBD2A0" stroke-width="2"/><polygon points="133.0,460.7 133.0,499.3 99.5,518.6 66.0,499.3 66.0,460.7 99.5,441.4" fill="none" opacity="0.20" stroke="#EBD2A0" stroke-width="2"/><polygon points="205.7,460.7 205.7,499.3 172.2,518.6 138.8,499.3 138.8,460.7 172.2,441.4" fill="none" opacity="0.20" stroke="#EBD2A0" stroke-width="2"/><polygon points="278.4,460.7 278.4,499.3 245.0,518.6 211.5,499.3 211.5,460.7 245.0,441.4" fill="none" opacity="0.20" stroke="#EBD2A0" stroke-width="2"/><polygon points="351.2,460.7 351.2,499.3 317.7,518.6 284.3,499.3 284.3,460.7 317.7,441.4" fill="none" opacity="0.20" stroke="#EBD2A0" stroke-width="2"/><polygon points="423.9,460.7 423.9,499.3 390.5,518.6 357.0,499.3 357.0,460.7 390.5,441.4" fill="none" opacity="0.20" stroke="#EBD2A0" stroke-width="2"/><polygon points="496.7,460.7 496.7,499.3 463.2,518.6 429.8,499.3 429.8,460.7 463.2,441.4" fill="none" opacity="0.20" stroke="#EBD2A0" stroke-width="2"/><polygon points="569.4,460.7 569.4,499.3 536.0,518.6 502.5,499.3 502.5,460.7 536.0,441.4" fill="none" opacity="0.20" stroke="#EBD2A0" stroke-width="2"/><polygon points="642.2,460.7 642.2,499.3 608.7,518.6 575.3,499.3 575.3,460.7 608.7,441.4" fill="none" opacity="0.20" stroke="#EBD2A0" stroke-width="2"/><polygon points="23.8,523.7 23.8,562.3 -9.6,581.6 -43.1,562.3 -43.1,523.7 -9.6,504.4" fill="none" opacity="0.20" stroke="#EBD2A0" stroke-width="2"/><polygon points="96.6,523.7 96.6,562.3 63.1,581.6 29.7,562.3 29.7,523.7 63.1,504.4" fill="none" opacity="0.20" stroke="#EBD2A0" stroke-width="2"/><polygon points="169.3,523.7 169.3,562.3 135.9,581.6 102.4,562.3 102.4,523.7 135.9,504.4" fill="none" opacity="0.20" stroke="#EBD2A0" stroke-width="2"/><polygon points="242.1,523.7 242.1,562.3 208.6,581.6 175.1,562.3 175.1,523.7 208.6,504.4" fill="none" opacity="0.20" stroke="#EBD2A0" stroke-width="2"/><polygon points="314.8,523.7 314.8,562.3 281.4,581.6 247.9,562.3 247.9,523.7 281.4,504.4" fill="none" opacity="0.20" stroke="#EBD2A0" stroke-width="2"/><polygon points="387.6,523.7 387.6,562.3 354.1,581.6 320.6,562.3 320.6,523.7 354.1,504.4" fill="none" opacity="0.20" stroke="#EBD2A0" stroke-width="2"/><polygon points="460.3,523.7 460.3,562.3 426.8,581.6 393.4,562.3 393.4,523.7 426.8,504.4" fill="none" opacity="0.20" stroke="#EBD2A0" stroke-width="2"/><polygon points="533.1,523.7 533.1,562.3 499.6,581.6 466.1,562.3 466.1,523.7 499.6,504.4" fill="none" opacity="0.20" stroke="#EBD2A0" stroke-width="2"/><polygon points="605.8,523.7 605.8,562.3 572.3,581.6 538.9,562.3 538.9,523.7 572.3,504.4" fill="none" opacity="0.20" stroke="#EBD2A0" stroke-width="2"/><polygon points="678.6,523.7 678.6,562.3 645.1,581.6 611.6,562.3 611.6,523.7 645.1,504.4" fill="none" opacity="0.20" stroke="#EBD2A0" stroke-width="2"/><polygon points="-12.5,586.7 -12.5,625.3 -46.0,644.6 -79.5,625.3 -79.5,586.7 -46.0,567.4" fill="none" opacity="0.20" stroke="#EBD2A0" stroke-width="2"/><polygon points="60.2,586.7 60.2,625.3 26.7,644.6 -6.7,625.3 -6.7,586.7 26.7,567.4" fill="none" opacity="0.20" stroke="#EBD2A0" stroke-width="2"/><polygon points="133.0,586.7 133.0,625.3 99.5,644.6 66.0,625.3 66.0,586.7 99.5,567.4" fill="none" opacity="0.20" stroke="#EBD2A0" stroke-width="2"/><polygon points="205.7,586.7 205.7,625.3 172.2,644.6 138.8,625.3 138.8,586.7 172.2,567.4" fill="none" opacity="0.20" stroke="#EBD2A0" stroke-width="2"/><polygon points="278.4,586.7 278.4,625.3 245.0,644.6 211.5,625.3 211.5,586.7 245.0,567.4" fill="none" opacity="0.20" stroke="#EBD2A0" stroke-width="2"/><polygon points="351.2,586.7 351.2,625.3 317.7,644.6 284.3,625.3 284.3,586.7 317.7,567.4" fill="none" opacity="0.20" stroke="#EBD2A0" stroke-width="2"/><polygon points="423.9,586.7 423.9,625.3 390.5,644.6 357.0,625.3 357.0,586.7 390.5,567.4" fill="none" opacity="0.20" stroke="#EBD2A0" stroke-width="2"/><polygon points="496.7,586.7 496.7,625.3 463.2,644.6 429.8,625.3 429.8,586.7 463.2,567.4" fill="none" opacity="0.20" stroke="#EBD2A0" stroke-width="2"/><polygon points="569.4,586.7 569.4,625.3 536.0,644.6 502.5,625.3 502.5,586.7 536.0,567.4" fill="none" opacity="0.20" stroke="#EBD2A0" stroke-width="2"/><polygon points="642.2,586.7 642.2,625.3 608.7,644.6 575.3,625.3 575.3,586.7 608.7,567.4" fill="none" opacity="0.20" stroke="#EBD2A0" stroke-width="2"/><polygon points="23.8,649.7 23.8,688.3 -9.6,707.6 -43.1,688.3 -43.1,649.7 -9.6,630.4" fill="none" opacity="0.20" stroke="#EBD2A0" stroke-width="2"/><polygon points="96.6,649.7 96.6,688.3 63.1,707.6 29.7,688.3 29.7,649.7 63.1,630.4" fill="none" opacity="0.20" stroke="#EBD2A0" stroke-width="2"/><polygon points="169.3,649.7 169.3,688.3 135.9,707.6 102.4,688.3 102.4,649.7 135.9,630.4" fill="none" opacity="0.20" stroke="#EBD2A0" stroke-width="2"/><polygon points="242.1,649.7 242.1,688.3 208.6,707.6 175.1,688.3 175.1,649.7 208.6,630.4" fill="none" opacity="0.20" stroke="#EBD2A0" stroke-width="2"/><polygon points="314.8,649.7 314.8,688.3 281.4,707.6 247.9,688.3 247.9,649.7 281.4,630.4" fill="none" opacity="0.20" stroke="#EBD2A0" stroke-width="2"/><polygon points="387.6,649.7 387.6,688.3 354.1,707.6 320.6,688.3 320.6,649.7 354.1,630.4" fill="none" opacity="0.20" stroke="#EBD2A0" stroke-width="2"/><polygon points="460.3,649.7 460.3,688.3 426.8,707.6 393.4,688.3 393.4,649.7 426.8,630.4" fill="none" opacity="0.20" stroke="#EBD2A0" stroke-width="2"/><polygon points="533.1,649.7 533.1,688.3 499.6,707.6 466.1,688.3 466.1,649.7 499.6,630.4" fill="none" opacity="0.20" stroke="#EBD2A0" stroke-width="2"/><polygon points="605.8,649.7 605.8,688.3 572.3,707.6 538.9,688.3 538.9,649.7 572.3,630.4" fill="none" opacity="0.20" stroke="#EBD2A0" stroke-width="2"/><polygon points="678.6,649.7 678.6,688.3 645.1,707.6 611.6,688.3 611.6,649.7 645.1,630.4" fill="none" opacity="0.20" stroke="#EBD2A0" stroke-width="2"/><polygon points="-12.5,712.7 -12.5,751.3 -46.0,770.6 -79.5,751.3 -79.5,712.7 -46.0,693.4" fill="none" opacity="0.20" stroke="#EBD2A0" stroke-width="2"/><polygon points="60.2,712.7 60.2,751.3 26.7,770.6 -6.7,751.3 -6.7,712.7 26.7,693.4" fill="none" opacity="0.20" stroke="#EBD2A0" stroke-width="2"/><polygon points="133.0,712.7 133.0,751.3 99.5,770.6 66.0,751.3 66.0,712.7 99.5,693.4" fill="none" opacity="0.20" stroke="#EBD2A0" stroke-width="2"/><polygon points="205.7,712.7 205.7,751.3 172.2,770.6 138.8,751.3 138.8,712.7 172.2,693.4" fill="none" opacity="0.20" stroke="#EBD2A0" stroke-width="2"/><polygon points="278.4,712.7 278.4,751.3 245.0,770.6 211.5,751.3 211.5,712.7 245.0,693.4" fill="none" opacity="0.20" stroke="#EBD2A0" stroke-width="2"/><polygon points="351.2,712.7 351.2,751.3 317.7,770.6 284.3,751.3 284.3,712.7 317.7,693.4" fill="none" opacity="0.20" stroke="#EBD2A0" stroke-width="2"/><polygon points="423.9,712.7 423.9,751.3 390.5,770.6 357.0,751.3 357.0,712.7 390.5,693.4" fill="none" opacity="0.20" stroke="#EBD2A0" stroke-width="2"/><polygon points="496.7,712.7 496.7,751.3 463.2,770.6 429.8,751.3 429.8,712.7 463.2,693.4" fill="none" opacity="0.20" stroke="#EBD2A0" stroke-width="2"/><polygon points="569.4,712.7 569.4,751.3 536.0,770.6 502.5,751.3 502.5,712.7 536.0,693.4" fill="none" opacity="0.20" stroke="#EBD2A0" stroke-width="2"/><polygon points="642.2,712.7 642.2,751.3 608.7,770.6 575.3,751.3 575.3,712.7 608.7,693.4" fill="none" opacity="0.20" stroke="#EBD2A0" stroke-width="2"/><polygon points="23.8,775.7 23.8,814.3 -9.6,833.6 -43.1,814.3 -43.1,775.7 -9.6,756.4" fill="none" opacity="0.20" stroke="#EBD2A0" stroke-width="2"/><polygon points="96.6,775.7 96.6,814.3 63.1,833.6 29.7,814.3 29.7,775.7 63.1,756.4" fill="none" opacity="0.20" stroke="#EBD2A0" stroke-width="2"/><polygon points="169.3,775.7 169.3,814.3 135.9,833.6 102.4,814.3 102.4,775.7 135.9,756.4" fill="none" opacity="0.20" stroke="#EBD2A0" stroke-width="2"/><polygon points="242.1,775.7 242.1,814.3 208.6,833.6 175.1,814.3 175.1,775.7 208.6,756.4" fill="none" opacity="0.20" stroke="#EBD2A0" stroke-width="2"/><polygon points="314.8,775.7 314.8,814.3 281.4,833.6 247.9,814.3 247.9,775.7 281.4,756.4" fill="none" opacity="0.20" stroke="#EBD2A0" stroke-width="2"/><polygon points="387.6,775.7 387.6,814.3 354.1,833.6 320.6,814.3 320.6,775.7 354.1,756.4" fill="none" opacity="0.20" stroke="#EBD2A0" stroke-width="2"/><polygon points="460.3,775.7 460.3,814.3 426.8,833.6 393.4,814.3 393.4,775.7 426.8,756.4" fill="none" opacity="0.20" stroke="#EBD2A0" stroke-width="2"/><polygon points="533.1,775.7 533.1,814.3 499.6,833.6 466.1,814.3 466.1,775.7 499.6,756.4" fill="none" opacity="0.20" stroke="#EBD2A0" stroke-width="2"/><polygon points="605.8,775.7 605.8,814.3 572.3,833.6 538.9,814.3 538.9,775.7 572.3,756.4" fill="none" opacity="0.20" stroke="#EBD2A0" stroke-width="2"/><polygon points="678.6,775.7 678.6,814.3 645.1,833.6 611.6,814.3 611.6,775.7 645.1,756.4" fill="none" opacity="0.20" stroke="#EBD2A0" stroke-width="2"/><polygon points="-12.5,838.7 -12.5,877.3 -46.0,896.6 -79.5,877.3 -79.5,838.7 -46.0,819.4" fill="none" opacity="0.20" stroke="#EBD2A0" stroke-width="2"/><polygon points="60.2,838.7 60.2,877.3 26.7,896.6 -6.7,877.3 -6.7,838.7 26.7,819.4" fill="none" opacity="0.20" stroke="#EBD2A0" stroke-width="2"/><polygon points="133.0,838.7 133.0,877.3 99.5,896.6 66.0,877.3 66.0,838.7 99.5,819.4" fill="none" opacity="0.20" stroke="#EBD2A0" stroke-width="2"/><polygon points="205.7,838.7 205.7,877.3 172.2,896.6 138.8,877.3 138.8,838.7 172.2,819.4" fill="none" opacity="0.20" stroke="#EBD2A0" stroke-width="2"/><polygon points="278.4,838.7 278.4,877.3 245.0,896.6 211.5,877.3 211.5,838.7 245.0,819.4" fill="none" opacity="0.20" stroke="#EBD2A0" stroke-width="2"/><polygon points="351.2,838.7 351.2,877.3 317.7,896.6 284.3,877.3 284.3,838.7 317.7,819.4" fill="none" opacity="0.20" stroke="#EBD2A0" stroke-width="2"/><polygon points="423.9,838.7 423.9,877.3 390.5,896.6 357.0,877.3 357.0,838.7 390.5,819.4" fill="none" opacity="0.20" stroke="#EBD2A0" stroke-width="2"/><polygon points="496.7,838.7 496.7,877.3 463.2,896.6 429.8,877.3 429.8,838.7 463.2,819.4" fill="none" opacity="0.20" stroke="#EBD2A0" stroke-width="2"/><polygon points="569.4,838.7 569.4,877.3 536.0,896.6 502.5,877.3 502.5,838.7 536.0,819.4" fill="none" opacity="0.20" stroke="#EBD2A0" stroke-width="2"/><polygon points="642.2,838.7 642.2,877.3 608.7,896.6 575.3,877.3 575.3,838.7 608.7,819.4" fill="none" opacity="0.20" stroke="#EBD2A0" stroke-width="2"/><polygon points="23.8,901.7 23.8,940.3 -9.6,959.6 -43.1,940.3 -43.1,901.7 -9.6,882.4" fill="none" opacity="0.20" stroke="#EBD2A0" stroke-width="2"/><polygon points="96.6,901.7 96.6,940.3 63.1,959.6 29.7,940.3 29.7,901.7 63.1,882.4" fill="none" opacity="0.20" stroke="#EBD2A0" stroke-width="2"/><polygon points="169.3,901.7 169.3,940.3 135.9,959.6 102.4,940.3 102.4,901.7 135.9,882.4" fill="none" opacity="0.20" stroke="#EBD2A0" stroke-width="2"/><polygon points="242.1,901.7 242.1,940.3 208.6,959.6 175.1,940.3 175.1,901.7 208.6,882.4" fill="none" opacity="0.20" stroke="#EBD2A0" stroke-width="2"/><polygon points="314.8,901.7 314.8,940.3 281.4,959.6 247.9,940.3 247.9,901.7 281.4,882.4" fill="none" opacity="0.20" stroke="#EBD2A0" stroke-width="2"/><polygon points="387.6,901.7 387.6,940.3 354.1,959.6 320.6,940.3 320.6,901.7 354.1,882.4" fill="none" opacity="0.20" stroke="#EBD2A0" stroke-width="2"/><polygon points="460.3,901.7 460.3,940.3 426.8,959.6 393.4,940.3 393.4,901.7 426.8,882.4" fill="none" opacity="0.20" stroke="#EBD2A0" stroke-width="2"/><polygon points="533.1,901.7 533.1,940.3 499.6,959.6 466.1,940.3 466.1,901.7 499.6,882.4" fill="none" opacity="0.20" stroke="#EBD2A0" stroke-width="2"/><polygon points="605.8,901.7 605.8,940.3 572.3,959.6 538.9,940.3 538.9,901.7 572.3,882.4" fill="none" opacity="0.20" stroke="#EBD2A0" stroke-width="2"/><polygon points="678.6,901.7 678.6,940.3 645.1,959.6 611.6,940.3 611.6,901.7 645.1,882.4" fill="none" opacity="0.20" stroke="#EBD2A0" stroke-width="2"/><polygon points="-12.5,964.7 -12.5,1003.3 -46.0,1022.6 -79.5,1003.3 -79.5,964.7 -46.0,945.4" fill="none" opacity="0.20" stroke="#EBD2A0" stroke-width="2"/><polygon points="60.2,964.7 60.2,1003.3 26.7,1022.6 -6.7,1003.3 -6.7,964.7 26.7,945.4" fill="none" opacity="0.20" stroke="#EBD2A0" stroke-width="2"/><polygon points="133.0,964.7 133.0,1003.3 99.5,1022.6 66.0,1003.3 66.0,964.7 99.5,945.4" fill="none" opacity="0.20" stroke="#EBD2A0" stroke-width="2"/><polygon points="205.7,964.7 205.7,1003.3 172.2,1022.6 138.8,1003.3 138.8,964.7 172.2,945.4" fill="none" opacity="0.20" stroke="#EBD2A0" stroke-width="2"/><polygon points="278.4,964.7 278.4,1003.3 245.0,1022.6 211.5,1003.3 211.5,964.7 245.0,945.4" fill="none" opacity="0.20" stroke="#EBD2A0" stroke-width="2"/><polygon points="351.2,964.7 351.2,1003.3 317.7,1022.6 284.3,1003.3 284.3,964.7 317.7,945.4" fill="none" opacity="0.20" stroke="#EBD2A0" stroke-width="2"/><polygon points="423.9,964.7 423.9,1003.3 390.5,1022.6 357.0,1003.3 357.0,964.7 390.5,945.4" fill="none" opacity="0.20" stroke="#EBD2A0" stroke-width="2"/><polygon points="496.7,964.7 496.7,1003.3 463.2,1022.6 429.8,1003.3 429.8,964.7 463.2,945.4" fill="none" opacity="0.20" stroke="#EBD2A0" stroke-width="2"/><polygon points="569.4,964.7 569.4,1003.3 536.0,1022.6 502.5,1003.3 502.5,964.7 536.0,945.4" fill="none" opacity="0.20" stroke="#EBD2A0" stroke-width="2"/><polygon points="642.2,964.7 642.2,1003.3 608.7,1022.6 575.3,1003.3 575.3,964.7 608.7,945.4" fill="none" opacity="0.20" stroke="#EBD2A0" stroke-width="2"/><polygon points="23.8,1027.7 23.8,1066.3 -9.6,1085.6 -43.1,1066.3 -43.1,1027.7 -9.6,1008.4" fill="none" opacity="0.20" stroke="#EBD2A0" stroke-width="2"/><polygon points="96.6,1027.7 96.6,1066.3 63.1,1085.6 29.7,1066.3 29.7,1027.7 63.1,1008.4" fill="none" opacity="0.20" stroke="#EBD2A0" stroke-width="2"/><polygon points="169.3,1027.7 169.3,1066.3 135.9,1085.6 102.4,1066.3 102.4,1027.7 135.9,1008.4" fill="none" opacity="0.20" stroke="#EBD2A0" stroke-width="2"/><polygon points="242.1,1027.7 242.1,1066.3 208.6,1085.6 175.1,1066.3 175.1,1027.7 208.6,1008.4" fill="none" opacity="0.20" stroke="#EBD2A0" stroke-width="2"/><polygon points="314.8,1027.7 314.8,1066.3 281.4,1085.6 247.9,1066.3 247.9,1027.7 281.4,1008.4" fill="none" opacity="0.20" stroke="#EBD2A0" stroke-width="2"/><polygon points="387.6,1027.7 387.6,1066.3 354.1,1085.6 320.6,1066.3 320.6,1027.7 354.1,1008.4" fill="none" opacity="0.20" stroke="#EBD2A0" stroke-width="2"/><polygon points="460.3,1027.7 460.3,1066.3 426.8,1085.6 393.4,1066.3 393.4,1027.7 426.8,1008.4" fill="none" opacity="0.20" stroke="#EBD2A0" stroke-width="2"/><polygon points="533.1,1027.7 533.1,1066.3 499.6,1085.6 466.1,1066.3 466.1,1027.7 499.6,1008.4" fill="none" opacity="0.20" stroke="#EBD2A0" stroke-width="2"/><polygon points="605.8,1027.7 605.8,1066.3 572.3,1085.6 538.9,1066.3 538.9,1027.7 572.3,1008.4" fill="none" opacity="0.20" stroke="#EBD2A0" stroke-width="2"/><polygon points="678.6,1027.7 678.6,1066.3 645.1,1085.6 611.6,1066.3 611.6,1027.7 645.1,1008.4" fill="none" opacity="0.20" stroke="#EBD2A0" stroke-width="2"/><polygon points="-12.5,1090.7 -12.5,1129.3 -46.0,1148.6 -79.5,1129.3 -79.5,1090.7 -46.0,1071.4" fill="none" opacity="0.20" stroke="#EBD2A0" stroke-width="2"/><polygon points="60.2,1090.7 60.2,1129.3 26.7,1148.6 -6.7,1129.3 -6.7,1090.7 26.7,1071.4" fill="none" opacity="0.20" stroke="#EBD2A0" stroke-width="2"/><polygon points="133.0,1090.7 133.0,1129.3 99.5,1148.6 66.0,1129.3 66.0,1090.7 99.5,1071.4" fill="none" opacity="0.20" stroke="#EBD2A0" stroke-width="2"/><polygon points="205.7,1090.7 205.7,1129.3 172.2,1148.6 138.8,1129.3 138.8,1090.7 172.2,1071.4" fill="none" opacity="0.20" stroke="#EBD2A0" stroke-width="2"/><polygon points="278.4,1090.7 278.4,1129.3 245.0,1148.6 211.5,1129.3 211.5,1090.7 245.0,1071.4" fill="none" opacity="0.20" stroke="#EBD2A0" stroke-width="2"/><polygon points="351.2,1090.7 351.2,1129.3 317.7,1148.6 284.3,1129.3 284.3,1090.7 317.7,1071.4" fill="none" opacity="0.20" stroke="#EBD2A0" stroke-width="2"/><polygon points="423.9,1090.7 423.9,1129.3 390.5,1148.6 357.0,1129.3 357.0,1090.7 390.5,1071.4" fill="none" opacity="0.20" stroke="#EBD2A0" stroke-width="2"/><polygon points="496.7,1090.7 496.7,1129.3 463.2,1148.6 429.8,1129.3 429.8,1090.7 463.2,1071.4" fill="none" opacity="0.20" stroke="#EBD2A0" stroke-width="2"/><polygon points="569.4,1090.7 569.4,1129.3 536.0,1148.6 502.5,1129.3 502.5,1090.7 536.0,1071.4" fill="none" opacity="0.20" stroke="#EBD2A0" stroke-width="2"/><polygon points="642.2,1090.7 642.2,1129.3 608.7,1148.6 575.3,1129.3 575.3,1090.7 608.7,1071.4" fill="none" opacity="0.20" stroke="#EBD2A0" stroke-width="2"/><polygon points="23.8,1153.7 23.8,1192.3 -9.6,1211.6 -43.1,1192.3 -43.1,1153.7 -9.6,1134.4" fill="none" opacity="0.20" stroke="#EBD2A0" stroke-width="2"/><polygon points="96.6,1153.7 96.6,1192.3 63.1,1211.6 29.7,1192.3 29.7,1153.7 63.1,1134.4" fill="none" opacity="0.20" stroke="#EBD2A0" stroke-width="2"/><polygon points="169.3,1153.7 169.3,1192.3 135.9,1211.6 102.4,1192.3 102.4,1153.7 135.9,1134.4" fill="none" opacity="0.20" stroke="#EBD2A0" stroke-width="2"/><polygon points="242.1,1153.7 242.1,1192.3 208.6,1211.6 175.1,1192.3 175.1,1153.7 208.6,1134.4" fill="none" opacity="0.20" stroke="#EBD2A0" stroke-width="2"/><polygon points="314.8,1153.7 314.8,1192.3 281.4,1211.6 247.9,1192.3 247.9,1153.7 281.4,1134.4" fill="none" opacity="0.20" stroke="#EBD2A0" stroke-width="2"/><polygon points="387.6,1153.7 387.6,1192.3 354.1,1211.6 320.6,1192.3 320.6,1153.7 354.1,1134.4" fill="none" opacity="0.20" stroke="#EBD2A0" stroke-width="2"/><polygon points="460.3,1153.7 460.3,1192.3 426.8,1211.6 393.4,1192.3 393.4,1153.7 426.8,1134.4" fill="none" opacity="0.20" stroke="#EBD2A0" stroke-width="2"/><polygon points="533.1,1153.7 533.1,1192.3 499.6,1211.6 466.1,1192.3 466.1,1153.7 499.6,1134.4" fill="none" opacity="0.20" stroke="#EBD2A0" stroke-width="2"/><polygon points="605.8,1153.7 605.8,1192.3 572.3,1211.6 538.9,1192.3 538.9,1153.7 572.3,1134.4" fill="none" opacity="0.20" stroke="#EBD2A0" stroke-width="2"/><polygon points="678.6,1153.7 678.6,1192.3 645.1,1211.6 611.6,1192.3 611.6,1153.7 645.1,1134.4" fill="none" opacity="0.20" stroke="#EBD2A0" stroke-width="2"/><polygon points="-12.5,1216.7 -12.5,1255.3 -46.0,1274.6 -79.5,1255.3 -79.5,1216.7 -46.0,1197.4" fill="none" opacity="0.20" stroke="#EBD2A0" stroke-width="2"/><polygon points="60.2,1216.7 60.2,1255.3 26.7,1274.6 -6.7,1255.3 -6.7,1216.7 26.7,1197.4" fill="none" opacity="0.20" stroke="#EBD2A0" stroke-width="2"/><polygon points="133.0,1216.7 133.0,1255.3 99.5,1274.6 66.0,1255.3 66.0,1216.7 99.5,1197.4" fill="none" opacity="0.20" stroke="#EBD2A0" stroke-width="2"/><polygon points="205.7,1216.7 205.7,1255.3 172.2,1274.6 138.8,1255.3 138.8,1216.7 172.2,1197.4" fill="none" opacity="0.20" stroke="#EBD2A0" stroke-width="2"/><polygon points="278.4,1216.7 278.4,1255.3 245.0,1274.6 211.5,1255.3 211.5,1216.7 245.0,1197.4" fill="none" opacity="0.20" stroke="#EBD2A0" stroke-width="2"/><polygon points="351.2,1216.7 351.2,1255.3 317.7,1274.6 284.3,1255.3 284.3,1216.7 317.7,1197.4" fill="none" opacity="0.20" stroke="#EBD2A0" stroke-width="2"/><polygon points="423.9,1216.7 423.9,1255.3 390.5,1274.6 357.0,1255.3 357.0,1216.7 390.5,1197.4" fill="none" opacity="0.20" stroke="#EBD2A0" stroke-width="2"/><polygon points="496.7,1216.7 496.7,1255.3 463.2,1274.6 429.8,1255.3 429.8,1216.7 463.2,1197.4" fill="none" opacity="0.20" stroke="#EBD2A0" stroke-width="2"/><polygon points="569.4,1216.7 569.4,1255.3 536.0,1274.6 502.5,1255.3 502.5,1216.7 536.0,1197.4" fill="none" opacity="0.20" stroke="#EBD2A0" stroke-width="2"/><polygon points="642.2,1216.7 642.2,1255.3 608.7,1274.6 575.3,1255.3 575.3,1216.7 608.7,1197.4" fill="none" opacity="0.20" stroke="#EBD2A0" stroke-width="2"/><polygon points="23.8,1279.7 23.8,1318.3 -9.6,1337.6 -43.1,1318.3 -43.1,1279.7 -9.6,1260.4" fill="none" opacity="0.20" stroke="#EBD2A0" stroke-width="2"/><polygon points="96.6,1279.7 96.6,1318.3 63.1,1337.6 29.7,1318.3 29.7,1279.7 63.1,1260.4" fill="none" opacity="0.20" stroke="#EBD2A0" stroke-width="2"/><polygon points="169.3,1279.7 169.3,1318.3 135.9,1337.6 102.4,1318.3 102.4,1279.7 135.9,1260.4" fill="none" opacity="0.20" stroke="#EBD2A0" stroke-width="2"/><polygon points="242.1,1279.7 242.1,1318.3 208.6,1337.6 175.1,1318.3 175.1,1279.7 208.6,1260.4" fill="none" opacity="0.20" stroke="#EBD2A0" stroke-width="2"/><polygon points="314.8,1279.7 314.8,1318.3 281.4,1337.6 247.9,1318.3 247.9,1279.7 281.4,1260.4" fill="none" opacity="0.20" stroke="#EBD2A0" stroke-width="2"/><polygon points="387.6,1279.7 387.6,1318.3 354.1,1337.6 320.6,1318.3 320.6,1279.7 354.1,1260.4" fill="none" opacity="0.20" stroke="#EBD2A0" stroke-width="2"/><polygon points="460.3,1279.7 460.3,1318.3 426.8,1337.6 393.4,1318.3 393.4,1279.7 426.8,1260.4" fill="none" opacity="0.20" stroke="#EBD2A0" stroke-width="2"/><polygon points="533.1,1279.7 533.1,1318.3 499.6,1337.6 466.1,1318.3 466.1,1279.7 499.6,1260.4" fill="none" opacity="0.20" stroke="#EBD2A0" stroke-width="2"/><polygon points="605.8,1279.7 605.8,1318.3 572.3,1337.6 538.9,1318.3 538.9,1279.7 572.3,1260.4" fill="none" opacity="0.20" stroke="#EBD2A0" stroke-width="2"/><polygon points="678.6,1279.7 678.6,1318.3 645.1,1337.6 611.6,1318.3 611.6,1279.7 645.1,1260.4" fill="none" opacity="0.20" stroke="#EBD2A0" stroke-width="2"/><polygon points="-12.5,1342.7 -12.5,1381.3 -46.0,1400.6 -79.5,1381.3 -79.5,1342.7 -46.0,1323.4" fill="none" opacity="0.20" stroke="#EBD2A0" stroke-width="2"/><polygon points="60.2,1342.7 60.2,1381.3 26.7,1400.6 -6.7,1381.3 -6.7,1342.7 26.7,1323.4" fill="none" opacity="0.20" stroke="#EBD2A0" stroke-width="2"/><polygon points="133.0,1342.7 133.0,1381.3 99.5,1400.6 66.0,1381.3 66.0,1342.7 99.5,1323.4" fill="none" opacity="0.20" stroke="#EBD2A0" stroke-width="2"/><polygon points="205.7,1342.7 205.7,1381.3 172.2,1400.6 138.8,1381.3 138.8,1342.7 172.2,1323.4" fill="none" opacity="0.20" stroke="#EBD2A0" stroke-width="2"/><polygon points="278.4,1342.7 278.4,1381.3 245.0,1400.6 211.5,1381.3 211.5,1342.7 245.0,1323.4" fill="none" opacity="0.20" stroke="#EBD2A0" stroke-width="2"/><polygon points="351.2,1342.7 351.2,1381.3 317.7,1400.6 284.3,1381.3 284.3,1342.7 317.7,1323.4" fill="none" opacity="0.20" stroke="#EBD2A0" stroke-width="2"/><polygon points="423.9,1342.7 423.9,1381.3 390.5,1400.6 357.0,1381.3 357.0,1342.7 390.5,1323.4" fill="none" opacity="0.20" stroke="#EBD2A0" stroke-width="2"/><polygon points="496.7,1342.7 496.7,1381.3 463.2,1400.6 429.8,1381.3 429.8,1342.7 463.2,1323.4" fill="none" opacity="0.20" stroke="#EBD2A0" stroke-width="2"/><polygon points="569.4,1342.7 569.4,1381.3 536.0,1400.6 502.5,1381.3 502.5,1342.7 536.0,1323.4" fill="none" opacity="0.20" stroke="#EBD2A0" stroke-width="2"/><polygon points="642.2,1342.7 642.2,1381.3 608.7,1400.6 575.3,1381.3 575.3,1342.7 608.7,1323.4" fill="none" opacity="0.20" stroke="#EBD2A0" stroke-width="2"/><polygon points="23.8,1405.7 23.8,1444.3 -9.6,1463.6 -43.1,1444.3 -43.1,1405.7 -9.6,1386.4" fill="none" opacity="0.20" stroke="#EBD2A0" stroke-width="2"/><polygon points="96.6,1405.7 96.6,1444.3 63.1,1463.6 29.7,1444.3 29.7,1405.7 63.1,1386.4" fill="none" opacity="0.20" stroke="#EBD2A0" stroke-width="2"/><polygon points="169.3,1405.7 169.3,1444.3 135.9,1463.6 102.4,1444.3 102.4,1405.7 135.9,1386.4" fill="none" opacity="0.20" stroke="#EBD2A0" stroke-width="2"/><polygon points="242.1,1405.7 242.1,1444.3 208.6,1463.6 175.1,1444.3 175.1,1405.7 208.6,1386.4" fill="none" opacity="0.20" stroke="#EBD2A0" stroke-width="2"/><polygon points="314.8,1405.7 314.8,1444.3 281.4,1463.6 247.9,1444.3 247.9,1405.7 281.4,1386.4" fill="none" opacity="0.20" stroke="#EBD2A0" stroke-width="2"/><polygon points="387.6,1405.7 387.6,1444.3 354.1,1463.6 320.6,1444.3 320.6,1405.7 354.1,1386.4" fill="none" opacity="0.20" stroke="#EBD2A0" stroke-width="2"/><polygon points="460.3,1405.7 460.3,1444.3 426.8,1463.6 393.4,1444.3 393.4,1405.7 426.8,1386.4" fill="none" opacity="0.20" stroke="#EBD2A0" stroke-width="2"/><polygon points="533.1,1405.7 533.1,1444.3 499.6,1463.6 466.1,1444.3 466.1,1405.7 499.6,1386.4" fill="none" opacity="0.20" stroke="#EBD2A0" stroke-width="2"/><polygon points="605.8,1405.7 605.8,1444.3 572.3,1463.6 538.9,1444.3 538.9,1405.7 572.3,1386.4" fill="none" opacity="0.20" stroke="#EBD2A0" stroke-width="2"/><polygon points="678.6,1405.7 678.6,1444.3 645.1,1463.6 611.6,1444.3 611.6,1405.7 645.1,1386.4" fill="none" opacity="0.20" stroke="#EBD2A0" stroke-width="2"/><polygon points="-12.5,1468.7 -12.5,1507.3 -46.0,1526.6 -79.5,1507.3 -79.5,1468.7 -46.0,1449.4" fill="none" opacity="0.20" stroke="#EBD2A0" stroke-width="2"/><polygon points="60.2,1468.7 60.2,1507.3 26.7,1526.6 -6.7,1507.3 -6.7,1468.7 26.7,1449.4" fill="none" opacity="0.20" stroke="#EBD2A0" stroke-width="2"/><polygon points="133.0,1468.7 133.0,1507.3 99.5,1526.6 66.0,1507.3 66.0,1468.7 99.5,1449.4" fill="none" opacity="0.20" stroke="#EBD2A0" stroke-width="2"/><polygon points="205.7,1468.7 205.7,1507.3 172.2,1526.6 138.8,1507.3 138.8,1468.7 172.2,1449.4" fill="none" opacity="0.20" stroke="#EBD2A0" stroke-width="2"/><polygon points="278.4,1468.7 278.4,1507.3 245.0,1526.6 211.5,1507.3 211.5,1468.7 245.0,1449.4" fill="none" opacity="0.20" stroke="#EBD2A0" stroke-width="2"/><polygon points="351.2,1468.7 351.2,1507.3 317.7,1526.6 284.3,1507.3 284.3,1468.7 317.7,1449.4" fill="none" opacity="0.20" stroke="#EBD2A0" stroke-width="2"/><polygon points="423.9,1468.7 423.9,1507.3 390.5,1526.6 357.0,1507.3 357.0,1468.7 390.5,1449.4" fill="none" opacity="0.20" stroke="#EBD2A0" stroke-width="2"/><polygon points="496.7,1468.7 496.7,1507.3 463.2,1526.6 429.8,1507.3 429.8,1468.7 463.2,1449.4" fill="none" opacity="0.20" stroke="#EBD2A0" stroke-width="2"/><polygon points="569.4,1468.7 569.4,1507.3 536.0,1526.6 502.5,1507.3 502.5,1468.7 536.0,1449.4" fill="none" opacity="0.20" stroke="#EBD2A0" stroke-width="2"/><polygon points="642.2,1468.7 642.2,1507.3 608.7,1526.6 575.3,1507.3 575.3,1468.7 608.7,1449.4" fill="none" opacity="0.20" stroke="#EBD2A0" stroke-width="2"/><polygon points="23.8,1531.7 23.8,1570.3 -9.6,1589.6 -43.1,1570.3 -43.1,1531.7 -9.6,1512.4" fill="none" opacity="0.20" stroke="#EBD2A0" stroke-width="2"/><polygon points="96.6,1531.7 96.6,1570.3 63.1,1589.6 29.7,1570.3 29.7,1531.7 63.1,1512.4" fill="none" opacity="0.20" stroke="#EBD2A0" stroke-width="2"/><polygon points="169.3,1531.7 169.3,1570.3 135.9,1589.6 102.4,1570.3 102.4,1531.7 135.9,1512.4" fill="none" opacity="0.20" stroke="#EBD2A0" stroke-width="2"/><polygon points="242.1,1531.7 242.1,1570.3 208.6,1589.6 175.1,1570.3 175.1,1531.7 208.6,1512.4" fill="none" opacity="0.20" stroke="#EBD2A0" stroke-width="2"/><polygon points="314.8,1531.7 314.8,1570.3 281.4,1589.6 247.9,1570.3 247.9,1531.7 281.4,1512.4" fill="none" opacity="0.20" stroke="#EBD2A0" stroke-width="2"/><polygon points="387.6,1531.7 387.6,1570.3 354.1,1589.6 320.6,1570.3 320.6,1531.7 354.1,1512.4" fill="none" opacity="0.20" stroke="#EBD2A0" stroke-width="2"/><polygon points="460.3,1531.7 460.3,1570.3 426.8,1589.6 393.4,1570.3 393.4,1531.7 426.8,1512.4" fill="none" opacity="0.20" stroke="#EBD2A0" stroke-width="2"/><polygon points="533.1,1531.7 533.1,1570.3 499.6,1589.6 466.1,1570.3 466.1,1531.7 499.6,1512.4" fill="none" opacity="0.20" stroke="#EBD2A0" stroke-width="2"/><polygon points="605.8,1531.7 605.8,1570.3 572.3,1589.6 538.9,1570.3 538.9,1531.7 572.3,1512.4" fill="none" opacity="0.20" stroke="#EBD2A0" stroke-width="2"/><polygon points="678.6,1531.7 678.6,1570.3 645.1,1589.6 611.6,1570.3 611.6,1531.7 645.1,1512.4" fill="none" opacity="0.20" stroke="#EBD2A0" stroke-width="2"/><polygon points="-12.5,1594.7 -12.5,1633.3 -46.0,1652.6 -79.5,1633.3 -79.5,1594.7 -46.0,1575.4" fill="none" opacity="0.20" stroke="#EBD2A0" stroke-width="2"/><polygon points="60.2,1594.7 60.2,1633.3 26.7,1652.6 -6.7,1633.3 -6.7,1594.7 26.7,1575.4" fill="none" opacity="0.20" stroke="#EBD2A0" stroke-width="2"/><polygon points="133.0,1594.7 133.0,1633.3 99.5,1652.6 66.0,1633.3 66.0,1594.7 99.5,1575.4" fill="none" opacity="0.20" stroke="#EBD2A0" stroke-width="2"/><polygon points="205.7,1594.7 205.7,1633.3 172.2,1652.6 138.8,1633.3 138.8,1594.7 172.2,1575.4" fill="none" opacity="0.20" stroke="#EBD2A0" stroke-width="2"/><polygon points="278.4,1594.7 278.4,1633.3 245.0,1652.6 211.5,1633.3 211.5,1594.7 245.0,1575.4" fill="none" opacity="0.20" stroke="#EBD2A0" stroke-width="2"/><polygon points="351.2,1594.7 351.2,1633.3 317.7,1652.6 284.3,1633.3 284.3,1594.7 317.7,1575.4" fill="none" opacity="0.20" stroke="#EBD2A0" stroke-width="2"/><polygon points="423.9,1594.7 423.9,1633.3 390.5,1652.6 357.0,1633.3 357.0,1594.7 390.5,1575.4" fill="none" opacity="0.20" stroke="#EBD2A0" stroke-width="2"/><polygon points="496.7,1594.7 496.7,1633.3 463.2,1652.6 429.8,1633.3 429.8,1594.7 463.2,1575.4" fill="none" opacity="0.20" stroke="#EBD2A0" stroke-width="2"/><polygon points="569.4,1594.7 569.4,1633.3 536.0,1652.6 502.5,1633.3 502.5,1594.7 536.0,1575.4" fill="none" opacity="0.20" stroke="#EBD2A0" stroke-width="2"/><polygon points="642.2,1594.7 642.2,1633.3 608.7,1652.6 575.3,1633.3 575.3,1594.7 608.7,1575.4" fill="none" opacity="0.20" stroke="#EBD2A0" stroke-width="2"/><polygon points="23.8,1657.7 23.8,1696.3 -9.6,1715.6 -43.1,1696.3 -43.1,1657.7 -9.6,1638.4" fill="none" opacity="0.20" stroke="#EBD2A0" stroke-width="2"/><polygon points="96.6,1657.7 96.6,1696.3 63.1,1715.6 29.7,1696.3 29.7,1657.7 63.1,1638.4" fill="none" opacity="0.20" stroke="#EBD2A0" stroke-width="2"/><polygon points="169.3,1657.7 169.3,1696.3 135.9,1715.6 102.4,1696.3 102.4,1657.7 135.9,1638.4" fill="none" opacity="0.20" stroke="#EBD2A0" stroke-width="2"/><polygon points="242.1,1657.7 242.1,1696.3 208.6,1715.6 175.1,1696.3 175.1,1657.7 208.6,1638.4" fill="none" opacity="0.20" stroke="#EBD2A0" stroke-width="2"/><polygon points="314.8,1657.7 314.8,1696.3 281.4,1715.6 247.9,1696.3 247.9,1657.7 281.4,1638.4" fill="none" opacity="0.20" stroke="#EBD2A0" stroke-width="2"/><polygon points="387.6,1657.7 387.6,1696.3 354.1,1715.6 320.6,1696.3 320.6,1657.7 354.1,1638.4" fill="none" opacity="0.20" stroke="#EBD2A0" stroke-width="2"/><polygon points="460.3,1657.7 460.3,1696.3 426.8,1715.6 393.4,1696.3 393.4,1657.7 426.8,1638.4" fill="none" opacity="0.20" stroke="#EBD2A0" stroke-width="2"/><polygon points="533.1,1657.7 533.1,1696.3 499.6,1715.6 466.1,1696.3 466.1,1657.7 499.6,1638.4" fill="none" opacity="0.20" stroke="#EBD2A0" stroke-width="2"/><polygon points="605.8,1657.7 605.8,1696.3 572.3,1715.6 538.9,1696.3 538.9,1657.7 572.3,1638.4" fill="none" opacity="0.20" stroke="#EBD2A0" stroke-width="2"/><polygon points="678.6,1657.7 678.6,1696.3 645.1,1715.6 611.6,1696.3 611.6,1657.7 645.1,1638.4" fill="none" opacity="0.20" stroke="#EBD2A0" stroke-width="2"/><polygon points="-12.5,1720.7 -12.5,1759.3 -46.0,1778.6 -79.5,1759.3 -79.5,1720.7 -46.0,1701.4" fill="none" opacity="0.20" stroke="#EBD2A0" stroke-width="2"/><polygon points="60.2,1720.7 60.2,1759.3 26.7,1778.6 -6.7,1759.3 -6.7,1720.7 26.7,1701.4" fill="none" opacity="0.20" stroke="#EBD2A0" stroke-width="2"/><polygon points="133.0,1720.7 133.0,1759.3 99.5,1778.6 66.0,1759.3 66.0,1720.7 99.5,1701.4" fill="none" opacity="0.20" stroke="#EBD2A0" stroke-width="2"/><polygon points="205.7,1720.7 205.7,1759.3 172.2,1778.6 138.8,1759.3 138.8,1720.7 172.2,1701.4" fill="none" opacity="0.20" stroke="#EBD2A0" stroke-width="2"/><polygon points="278.4,1720.7 278.4,1759.3 245.0,1778.6 211.5,1759.3 211.5,1720.7 245.0,1701.4" fill="none" opacity="0.20" stroke="#EBD2A0" stroke-width="2"/><polygon points="351.2,1720.7 351.2,1759.3 317.7,1778.6 284.3,1759.3 284.3,1720.7 317.7,1701.4" fill="none" opacity="0.20" stroke="#EBD2A0" stroke-width="2"/><polygon points="423.9,1720.7 423.9,1759.3 390.5,1778.6 357.0,1759.3 357.0,1720.7 390.5,1701.4" fill="none" opacity="0.20" stroke="#EBD2A0" stroke-width="2"/><polygon points="496.7,1720.7 496.7,1759.3 463.2,1778.6 429.8,1759.3 429.8,1720.7 463.2,1701.4" fill="none" opacity="0.20" stroke="#EBD2A0" stroke-width="2"/><polygon points="569.4,1720.7 569.4,1759.3 536.0,1778.6 502.5,1759.3 502.5,1720.7 536.0,1701.4" fill="none" opacity="0.20" stroke="#EBD2A0" stroke-width="2"/><polygon points="642.2,1720.7 642.2,1759.3 608.7,1778.6 575.3,1759.3 575.3,1720.7 608.7,1701.4" fill="none" opacity="0.20" stroke="#EBD2A0" stroke-width="2"/><polygon points="23.8,1783.7 23.8,1822.3 -9.6,1841.6 -43.1,1822.3 -43.1,1783.7 -9.6,1764.4" fill="none" opacity="0.20" stroke="#EBD2A0" stroke-width="2"/><polygon points="96.6,1783.7 96.6,1822.3 63.1,1841.6 29.7,1822.3 29.7,1783.7 63.1,1764.4" fill="none" opacity="0.20" stroke="#EBD2A0" stroke-width="2"/><polygon points="169.3,1783.7 169.3,1822.3 135.9,1841.6 102.4,1822.3 102.4,1783.7 135.9,1764.4" fill="none" opacity="0.20" stroke="#EBD2A0" stroke-width="2"/><polygon points="242.1,1783.7 242.1,1822.3 208.6,1841.6 175.1,1822.3 175.1,1783.7 208.6,1764.4" fill="none" opacity="0.20" stroke="#EBD2A0" stroke-width="2"/><polygon points="314.8,1783.7 314.8,1822.3 281.4,1841.6 247.9,1822.3 247.9,1783.7 281.4,1764.4" fill="none" opacity="0.20" stroke="#EBD2A0" stroke-width="2"/><polygon points="387.6,1783.7 387.6,1822.3 354.1,1841.6 320.6,1822.3 320.6,1783.7 354.1,1764.4" fill="none" opacity="0.20" stroke="#EBD2A0" stroke-width="2"/><polygon points="460.3,1783.7 460.3,1822.3 426.8,1841.6 393.4,1822.3 393.4,1783.7 426.8,1764.4" fill="none" opacity="0.20" stroke="#EBD2A0" stroke-width="2"/><polygon points="533.1,1783.7 533.1,1822.3 499.6,1841.6 466.1,1822.3 466.1,1783.7 499.6,1764.4" fill="none" opacity="0.20" stroke="#EBD2A0" stroke-width="2"/><polygon points="605.8,1783.7 605.8,1822.3 572.3,1841.6 538.9,1822.3 538.9,1783.7 572.3,1764.4" fill="none" opacity="0.20" stroke="#EBD2A0" stroke-width="2"/><polygon points="678.6,1783.7 678.6,1822.3 645.1,1841.6 611.6,1822.3 611.6,1783.7 645.1,1764.4" fill="none" opacity="0.20" stroke="#EBD2A0" stroke-width="2"/></g>
  <g><circle cx="277.8" cy="628.5" r="1.99" fill="#E3A244" opacity="0.13"/><circle cx="204.1" cy="1608.1" r="1.62" fill="#F2B01E" opacity="0.15"/><circle cx="127.3" cy="1274.4" r="1.29" fill="#E3A244" opacity="0.12"/><circle cx="8.5" cy="1680.4" r="2.21" fill="#F2B01E" opacity="0.17"/><circle cx="377.3" cy="1007.8" r="2.08" fill="#F2B01E" opacity="0.11"/><circle cx="18.1" cy="1357.5" r="1.03" fill="#E3A244" opacity="0.19"/><circle cx="411.4" cy="1789.5" r="1.36" fill="#F2B01E" opacity="0.16"/><circle cx="257.5" cy="773.7" r="1.71" fill="#F2B01E" opacity="0.19"/><circle cx="162.4" cy="1469.9" r="2.02" fill="#E3A244" opacity="0.12"/><circle cx="141.6" cy="1601.0" r="2.32" fill="#E3A244" opacity="0.13"/><circle cx="392.5" cy="878.0" r="1.12" fill="#F2B01E" opacity="0.10"/><circle cx="193.2" cy="518.2" r="1.79" fill="#F2B01E" opacity="0.15"/><circle cx="41.2" cy="1263.4" r="2.38" fill="#F2B01E" opacity="0.19"/><circle cx="335.3" cy="151.7" r="1.31" fill="#F2B01E" opacity="0.20"/><circle cx="227.0" cy="1338.4" r="1.08" fill="#E3A244" opacity="0.17"/><circle cx="22.2" cy="337.4" r="1.11" fill="#E3A244" opacity="0.14"/><circle cx="433.4" cy="1695.7" r="2.18" fill="#E3A244" opacity="0.14"/><circle cx="504.1" cy="1628.1" r="1.48" fill="#E3A244" opacity="0.15"/><circle cx="27.9" cy="175.8" r="1.35" fill="#E3A244" opacity="0.14"/><circle cx="540.3" cy="108.9" r="1.00" fill="#F2B01E" opacity="0.11"/><circle cx="331.5" cy="1636.0" r="1.71" fill="#E3A244" opacity="0.14"/><circle cx="356.1" cy="1646.1" r="1.35" fill="#E3A244" opacity="0.18"/><circle cx="329.2" cy="1540.9" r="1.79" fill="#E3A244" opacity="0.12"/><circle cx="185.2" cy="681.5" r="1.33" fill="#E3A244" opacity="0.11"/><circle cx="435.7" cy="978.7" r="1.59" fill="#F2B01E" opacity="0.14"/><circle cx="440.0" cy="82.2" r="1.82" fill="#E3A244" opacity="0.17"/><circle cx="242.1" cy="53.3" r="2.17" fill="#F2B01E" opacity="0.18"/><circle cx="196.7" cy="454.2" r="1.95" fill="#E3A244" opacity="0.16"/><circle cx="56.6" cy="1318.5" r="1.91" fill="#E3A244" opacity="0.17"/><circle cx="299.4" cy="1452.4" r="1.03" fill="#F2B01E" opacity="0.17"/><circle cx="325.3" cy="1659.3" r="2.31" fill="#E3A244" opacity="0.15"/><circle cx="484.9" cy="729.2" r="2.06" fill="#E3A244" opacity="0.14"/><circle cx="501.9" cy="1492.6" r="2.22" fill="#F2B01E" opacity="0.11"/><circle cx="599.3" cy="862.2" r="1.65" fill="#F2B01E" opacity="0.17"/><circle cx="223.0" cy="608.7" r="1.51" fill="#F2B01E" opacity="0.17"/><circle cx="173.9" cy="2.9" r="1.03" fill="#F2B01E" opacity="0.14"/><circle cx="491.3" cy="1756.1" r="1.00" fill="#E3A244" opacity="0.12"/><circle cx="533.9" cy="756.9" r="0.91" fill="#E3A244" opacity="0.09"/><circle cx="40.1" cy="548.8" r="1.10" fill="#F2B01E" opacity="0.13"/><circle cx="473.2" cy="961.1" r="1.26" fill="#E3A244" opacity="0.14"/><circle cx="536.9" cy="975.5" r="1.30" fill="#E3A244" opacity="0.10"/><circle cx="532.0" cy="1426.8" r="1.72" fill="#F2B01E" opacity="0.15"/><circle cx="187.5" cy="145.2" r="1.64" fill="#E3A244" opacity="0.15"/><circle cx="242.4" cy="672.8" r="1.35" fill="#F2B01E" opacity="0.14"/><circle cx="414.6" cy="993.0" r="1.86" fill="#E3A244" opacity="0.13"/><circle cx="499.8" cy="1520.7" r="1.08" fill="#F2B01E" opacity="0.16"/><circle cx="585.1" cy="1062.5" r="1.58" fill="#F2B01E" opacity="0.14"/><circle cx="408.4" cy="1128.9" r="1.78" fill="#E3A244" opacity="0.16"/><circle cx="254.2" cy="1080.9" r="1.87" fill="#F2B01E" opacity="0.15"/><circle cx="445.2" cy="948.7" r="2.37" fill="#E3A244" opacity="0.18"/><circle cx="266.8" cy="766.7" r="2.21" fill="#F2B01E" opacity="0.18"/><circle cx="46.8" cy="1160.5" r="1.35" fill="#F2B01E" opacity="0.17"/><circle cx="206.0" cy="16.6" r="2.14" fill="#F2B01E" opacity="0.16"/><circle cx="531.1" cy="732.2" r="1.56" fill="#E3A244" opacity="0.17"/><circle cx="315.3" cy="1687.1" r="1.51" fill="#E3A244" opacity="0.16"/><circle cx="411.2" cy="555.7" r="1.00" fill="#E3A244" opacity="0.17"/><circle cx="338.1" cy="1530.1" r="1.87" fill="#E3A244" opacity="0.09"/><circle cx="219.4" cy="1415.4" r="2.24" fill="#E3A244" opacity="0.09"/><circle cx="112.7" cy="1550.5" r="1.92" fill="#F2B01E" opacity="0.14"/><circle cx="534.9" cy="281.7" r="1.20" fill="#E3A244" opacity="0.17"/><circle cx="462.1" cy="1448.1" r="2.21" fill="#F2B01E" opacity="0.16"/><circle cx="512.7" cy="655.3" r="1.41" fill="#F2B01E" opacity="0.20"/><circle cx="229.5" cy="845.0" r="2.01" fill="#E3A244" opacity="0.08"/><circle cx="279.4" cy="1695.4" r="1.11" fill="#F2B01E" opacity="0.20"/><circle cx="563.2" cy="590.1" r="1.60" fill="#E3A244" opacity="0.15"/><circle cx="168.4" cy="818.7" r="1.75" fill="#F2B01E" opacity="0.12"/><circle cx="574.8" cy="467.8" r="1.32" fill="#F2B01E" opacity="0.10"/><circle cx="97.3" cy="1451.5" r="1.51" fill="#F2B01E" opacity="0.10"/><circle cx="497.5" cy="1066.7" r="2.12" fill="#F2B01E" opacity="0.12"/><circle cx="36.5" cy="814.5" r="2.37" fill="#E3A244" opacity="0.14"/><circle cx="383.7" cy="478.9" r="1.26" fill="#E3A244" opacity="0.15"/><circle cx="318.9" cy="191.8" r="1.29" fill="#F2B01E" opacity="0.15"/><circle cx="367.9" cy="234.4" r="2.39" fill="#E3A244" opacity="0.10"/><circle cx="189.8" cy="595.7" r="2.13" fill="#E3A244" opacity="0.18"/><circle cx="327.5" cy="279.6" r="1.60" fill="#E3A244" opacity="0.12"/><circle cx="327.5" cy="424.6" r="1.65" fill="#F2B01E" opacity="0.09"/><circle cx="511.0" cy="1690.9" r="2.35" fill="#F2B01E" opacity="0.16"/><circle cx="335.5" cy="7.1" r="1.97" fill="#E3A244" opacity="0.15"/><circle cx="498.8" cy="1294.0" r="1.45" fill="#F2B01E" opacity="0.14"/><circle cx="4.8" cy="1354.7" r="1.42" fill="#E3A244" opacity="0.10"/><circle cx="384.1" cy="1071.1" r="1.79" fill="#F2B01E" opacity="0.20"/><circle cx="122.1" cy="1330.3" r="1.02" fill="#F2B01E" opacity="0.18"/><circle cx="562.9" cy="1522.5" r="2.05" fill="#F2B01E" opacity="0.11"/><circle cx="367.6" cy="532.0" r="1.83" fill="#F2B01E" opacity="0.10"/><circle cx="457.5" cy="1689.3" r="1.95" fill="#E3A244" opacity="0.18"/><circle cx="287.9" cy="1075.9" r="2.08" fill="#F2B01E" opacity="0.17"/><circle cx="390.7" cy="981.6" r="1.06" fill="#F2B01E" opacity="0.11"/><circle cx="356.6" cy="887.2" r="2.22" fill="#F2B01E" opacity="0.11"/><circle cx="421.8" cy="866.9" r="1.82" fill="#F2B01E" opacity="0.17"/><circle cx="441.1" cy="381.7" r="1.47" fill="#E3A244" opacity="0.11"/></g>
  <g transform="translate(500,300) rotate(20.0) scale(1.00)" fill="#8B5E34" opacity="0.10"><ellipse cx="0" cy="6" rx="11" ry="9"/><circle cx="-10.5" cy="-5" r="4"/><circle cx="-3.6" cy="-10" r="4.3"/><circle cx="3.6" cy="-10" r="4.3"/><circle cx="10.5" cy="-5" r="4"/></g>
  <g transform="translate(70,1120) rotate(-16.0) scale(1.00)" fill="#8B5E34" opacity="0.10"><ellipse cx="0" cy="6" rx="11" ry="9"/><circle cx="-10.5" cy="-5" r="4"/><circle cx="-3.6" cy="-10" r="4.3"/><circle cx="3.6" cy="-10" r="4.3"/><circle cx="10.5" cy="-5" r="4"/></g>
</svg>
